<svg width="25" height="25" viewBox="0 0 25 25" fill="none" xmlns="http://www.w3.org/2000/svg">
<path d="M22.8424 21.0865L21.0538 18.1052C20.2278 16.7292 19.7913 15.1531 19.7913 13.549V10.9375C19.7913 7.64063 17.5913 4.8521 14.583 3.95312V2.08335C14.583 0.934375 13.6486 0 12.4996 0C11.3507 0 10.4163 0.934375 10.4163 2.08335V3.95312C7.408 4.8521 5.208 7.64063 5.208 10.9375V13.549C5.208 15.1531 4.77152 16.7281 3.94652 18.1042L2.158 21.0854C2.06112 21.2469 2.05902 21.4469 2.15175 21.6104C2.24447 21.774 2.41635 21.875 2.60385 21.875H22.3955C22.583 21.875 22.7559 21.774 22.8486 21.6115C22.9413 21.449 22.9382 21.2469 22.8424 21.0865Z" fill="black"/>
<path d="M9.21948 22.9166C9.80698 24.1437 11.0507 25 12.4997 25C13.9486 25 15.1924 24.1437 15.7799 22.9166H9.21948V22.9166Z" fill="black"/>
</svg>
