<svg width="26" height="24" viewBox="0 0 26 24" fill="none" xmlns="http://www.w3.org/2000/svg">
<g clip-path="url(#clip0_28:4213)">
<path d="M24.81 2.15999H9.43C9.21158 1.53871 8.80565 1.00056 8.26827 0.619862C7.73089 0.239164 7.08856 0.0346985 6.43 0.0346985C5.77143 0.0346985 5.12911 0.239164 4.59173 0.619862C4.05435 1.00056 3.64842 1.53871 3.43 2.15999H1C0.734784 2.15999 0.48043 2.26535 0.292893 2.45289C0.105357 2.64042 0 2.89478 0 3.15999C0 3.42521 0.105357 3.67956 0.292893 3.8671C0.48043 4.05464 0.734784 4.15999 1 4.15999H3.4C3.61369 4.78594 4.01782 5.32936 4.55578 5.71416C5.09374 6.09895 5.73859 6.30584 6.4 6.30584C7.06141 6.30584 7.70626 6.09895 8.24422 5.71416C8.78218 5.32936 9.18631 4.78594 9.4 4.15999H24.81C25.0752 4.15999 25.3296 4.05464 25.5171 3.8671C25.7046 3.67956 25.81 3.42521 25.81 3.15999C25.81 2.89478 25.7046 2.64042 25.5171 2.45289C25.3296 2.26535 25.0752 2.15999 24.81 2.15999ZM6.42 4.32999C6.19016 4.33198 5.96491 4.26563 5.77284 4.13938C5.58076 4.01313 5.43053 3.83266 5.3412 3.62088C5.25186 3.4091 5.22746 3.17555 5.27108 2.94988C5.31471 2.72421 5.42439 2.51658 5.58621 2.35335C5.74804 2.19012 5.95471 2.07865 6.17999 2.03307C6.40528 1.98749 6.63903 2.00987 6.85157 2.09737C7.06412 2.18487 7.24588 2.33353 7.37379 2.52451C7.5017 2.71548 7.56999 2.94014 7.57 3.16999C7.57001 3.47592 7.44917 3.76947 7.23379 3.98672C7.0184 4.20398 6.72591 4.32736 6.42 4.32999Z" fill="white"/>
<path d="M24.81 10.82H22.4C22.1863 10.194 21.7822 9.65062 21.2442 9.26583C20.7063 8.88103 20.0614 8.67415 19.4 8.67415C18.7386 8.67415 18.0937 8.88103 17.5558 9.26583C17.0178 9.65062 16.6137 10.194 16.4 10.82H1C0.734784 10.82 0.48043 10.9253 0.292893 11.1129C0.105357 11.3004 0 11.5548 0 11.82C0 12.0852 0.105357 12.3396 0.292893 12.5271C0.48043 12.7146 0.734784 12.82 1 12.82H16.39C16.6037 13.4459 17.0078 13.9894 17.5458 14.3742C18.0837 14.7589 18.7286 14.9658 19.39 14.9658C20.0514 14.9658 20.6963 14.7589 21.2342 14.3742C21.7722 13.9894 22.1763 13.4459 22.39 12.82H24.8C25.0652 12.82 25.3196 12.7146 25.5071 12.5271C25.6946 12.3396 25.8 12.0852 25.8 11.82C25.8 11.5548 25.6946 11.3004 25.5071 11.1129C25.3196 10.9253 25.0652 10.82 24.8 10.82H24.81ZM19.4 13C19.1697 13.002 18.9441 12.9354 18.7518 12.8087C18.5595 12.682 18.4093 12.5009 18.3203 12.2885C18.2312 12.0762 18.2074 11.8421 18.2518 11.6162C18.2963 11.3902 18.407 11.1826 18.5698 11.0198C18.7326 10.857 18.9402 10.7463 19.1662 10.7018C19.3921 10.6574 19.6262 10.6812 19.8386 10.7702C20.0509 10.8593 20.232 11.0095 20.3587 11.2018C20.4854 11.3941 20.552 11.6197 20.55 11.85C20.5474 12.1542 20.4254 12.4452 20.2103 12.6603C19.9952 12.8754 19.7042 12.9974 19.4 13Z" fill="white"/>
<path d="M24.81 19.47H13.75C13.5363 18.8441 13.1322 18.3006 12.5942 17.9158C12.0563 17.531 11.4114 17.3242 10.75 17.3242C10.0886 17.3242 9.44374 17.531 8.90578 17.9158C8.36782 18.3006 7.96369 18.8441 7.75 19.47H1C0.734784 19.47 0.48043 19.5754 0.292893 19.7629C0.105357 19.9504 0 20.2048 0 20.47C0 20.7352 0.105357 20.9896 0.292893 21.1771C0.48043 21.3646 0.734784 21.47 1 21.47H7.74C7.95369 22.0959 8.35782 22.6394 8.89578 23.0242C9.43374 23.409 10.0786 23.6158 10.74 23.6158C11.4014 23.6158 12.0463 23.409 12.5842 23.0242C13.1222 22.6394 13.5263 22.0959 13.74 21.47H24.81C25.0752 21.47 25.3296 21.3646 25.5171 21.1771C25.7046 20.9896 25.81 20.7352 25.81 20.47C25.81 20.2048 25.7046 19.9504 25.5171 19.7629C25.3296 19.5754 25.0752 19.47 24.81 19.47ZM10.74 21.63C10.513 21.628 10.2916 21.5589 10.1038 21.4313C9.91605 21.3038 9.7702 21.1235 9.6847 20.9132C9.59919 20.7029 9.57783 20.472 9.62333 20.2496C9.66883 20.0272 9.77913 19.8232 9.94036 19.6634C10.1016 19.5035 10.3065 19.395 10.5293 19.3514C10.7521 19.3079 10.9828 19.3312 11.1924 19.4185C11.4019 19.5059 11.5809 19.6533 11.7069 19.8421C11.8328 20.031 11.9 20.253 11.9 20.48C11.8974 20.7859 11.774 21.0784 11.5567 21.2938C11.3395 21.5092 11.0459 21.63 10.74 21.63Z" fill="white"/>
</g>
<defs>
<clipPath id="clip0_28:4213">
<rect width="25.82" height="23.65" fill="white"/>
</clipPath>
</defs>
</svg>
