<svg width="150" height="45" viewBox="0 0 150 45" fill="none" xmlns="http://www.w3.org/2000/svg">
<path d="M0 18.3286H9.24776V19.3689H0V18.3286Z" fill="#FFAE34"/>
<path d="M10.4487 11.3285V1.28442H12.112V11.3285C12.112 13.8973 13.6147 15.1818 15.6248 15.1818C17.635 15.1818 19.1441 13.8203 19.1441 11.3285V1.28442H20.8074V11.3285C20.8074 13.8267 22.2845 15.1818 24.3203 15.1818C26.3561 15.1818 27.8332 13.8973 27.8332 11.3285V1.28442H29.4965V11.3285C29.4965 14.912 27.3001 16.7102 24.4359 16.7102C23.4911 16.7632 22.5533 16.52 21.7532 16.0147C20.9531 15.5093 20.3306 14.7669 19.9726 13.8909C19.6127 14.7723 18.9853 15.5186 18.1788 16.0244C17.3722 16.5302 16.4273 16.7701 15.4771 16.7102C12.645 16.6974 10.4487 14.912 10.4487 11.3285Z" fill="#FFAE34"/>
<path d="M32.2066 0H33.7543V7.21197C34.1444 6.41147 34.7634 5.74484 35.5329 5.29665C36.3024 4.84846 37.1876 4.63889 38.0764 4.69452C41.1269 4.69452 43.4838 6.54408 43.4838 10.4744V16.4405H41.936V10.4487C41.936 7.6294 40.3177 6.12664 37.8452 6.12664C35.3727 6.12664 33.7543 7.70647 33.7543 10.4487V16.4148H32.2066V0Z" fill="#FFAE34"/>
<path d="M45.7764 1.59265C45.7984 1.29514 45.9321 1.01694 46.1507 0.813915C46.3693 0.610886 46.6565 0.498047 46.9549 0.498047C47.2532 0.498047 47.5405 0.610886 47.7591 0.813915C47.9776 1.01694 48.1113 1.29514 48.1333 1.59265C48.1453 1.75472 48.1237 1.91752 48.0699 2.07087C48.0161 2.22422 47.9313 2.36483 47.8207 2.4839C47.7101 2.60297 47.5761 2.69795 47.4271 2.76289C47.2781 2.82784 47.1174 2.86136 46.9549 2.86136C46.7924 2.86136 46.6316 2.82784 46.4826 2.76289C46.3336 2.69795 46.1997 2.60297 46.0891 2.4839C45.9785 2.36483 45.8936 2.22422 45.8398 2.07087C45.786 1.91752 45.7644 1.75472 45.7764 1.59265V1.59265ZM46.1939 4.98992H47.7416V16.4148H46.1939V4.98992Z" fill="#FFAE34"/>
<path d="M50.4196 12.2019V0.95047H51.9737V4.98994H58.6976V6.42206H51.9737V12.2019C51.9737 14.2827 53.1297 15.2717 54.9086 15.2717C56.6875 15.2717 57.8435 14.3019 57.8435 12.2019V11.945H59.3462V12.2019C59.3462 15.2074 57.5416 16.6974 54.9086 16.6974C52.2756 16.6974 50.4196 15.2139 50.4196 12.2019Z" fill="#FFAE34"/>
<path d="M60.8233 10.7056C60.8233 7.23766 63.3921 4.69452 66.9756 4.69452C67.7792 4.6569 68.5818 4.78594 69.333 5.07352C70.0843 5.3611 70.7679 5.80101 71.3409 6.36558C71.9139 6.93014 72.3639 7.60716 72.6626 8.35405C72.9613 9.10095 73.1023 9.90157 73.0766 10.7056V11.2129H62.4224C62.492 12.354 63.0095 13.4214 63.8622 14.1827C64.715 14.9441 65.834 15.3378 66.9756 15.2781C67.7564 15.3304 68.5365 15.1663 69.23 14.8037C69.9235 14.4411 70.5034 13.8941 70.9059 13.223H72.5692C72.0926 14.2961 71.3044 15.2012 70.3069 15.8207C69.3095 16.4402 68.1488 16.7457 66.9756 16.6973C63.3664 16.6973 60.8233 14.1671 60.8233 10.7056ZM71.4582 9.82575C71.2561 8.78177 70.6969 7.84069 69.8766 7.164C69.0564 6.48731 68.0262 6.11721 66.9628 6.11721C65.8994 6.11721 64.8692 6.48731 64.0489 7.164C63.2287 7.84069 62.6695 8.78177 62.4673 9.82575H71.4582Z" fill="#FFAE34"/>
<path d="M81.0335 10.6349V0H82.5812V7.44316C83.0365 6.57328 83.7316 5.85208 84.5841 5.36495C85.4365 4.87782 86.4107 4.64516 87.3913 4.69452C88.177 4.6758 88.9582 4.81749 89.6873 5.11095C90.4163 5.40441 91.0779 5.84346 91.6315 6.40126C92.1851 6.95907 92.6191 7.62392 92.907 8.35516C93.195 9.08641 93.3307 9.86869 93.3061 10.6542C93.3061 14.1671 90.7372 16.7102 87.1345 16.7102C83.5317 16.7102 81.0335 14.3083 81.0335 10.6349ZM91.7327 10.7056C91.7557 10.0903 91.6544 9.47661 91.4349 8.90134C91.2153 8.32607 90.882 7.801 90.4548 7.35752C90.0276 6.91405 89.5154 6.56128 88.9488 6.32033C88.3821 6.07938 87.7727 5.95519 87.1569 5.95519C86.5412 5.95519 85.9318 6.07938 85.3651 6.32033C84.7985 6.56128 84.2863 6.91405 83.8591 7.35752C83.4319 7.801 83.0986 8.32607 82.879 8.90134C82.6595 9.47661 82.5582 10.0903 82.5812 10.7056C82.6256 11.8895 83.1271 13.0101 83.9803 13.832C84.8336 14.6539 85.9722 15.113 87.1569 15.113C88.3417 15.113 89.4803 14.6539 90.3335 13.832C91.1868 13.0101 91.6883 11.8895 91.7327 10.7056V10.7056Z" fill="#FFAE34"/>
<path d="M94.6483 10.7056C94.6483 7.23765 97.2171 4.69452 100.801 4.69452C104.384 4.69452 106.947 7.26334 106.947 10.7056C106.947 14.1478 104.403 16.6973 100.826 16.6973C97.2492 16.6973 94.6483 14.1671 94.6483 10.7056ZM105.373 10.7056C105.396 10.0903 105.295 9.47661 105.075 8.90134C104.856 8.32607 104.522 7.80099 104.095 7.35752C103.668 6.91404 103.156 6.56128 102.589 6.32033C102.023 6.07938 101.413 5.95519 100.797 5.95519C100.182 5.95519 99.5722 6.07938 99.0056 6.32033C98.439 6.56128 97.9267 6.91404 97.4996 7.35752C97.0724 7.80099 96.739 8.32607 96.5195 8.90134C96.2999 9.47661 96.1986 10.0903 96.2217 10.7056C96.266 11.8895 96.7675 13.0101 97.6208 13.832C98.4741 14.6539 99.6127 15.113 100.797 15.113C101.982 15.113 103.121 14.6539 103.974 13.832C104.827 13.0101 105.329 11.8895 105.373 10.7056V10.7056Z" fill="#FFAE34"/>
<path d="M108.289 10.7056C108.289 7.23765 110.858 4.69452 114.441 4.69452C118.025 4.69452 120.587 7.26334 120.587 10.7056C120.587 14.1478 118.018 16.7102 114.441 16.7102C110.864 16.7102 108.289 14.1671 108.289 10.7056ZM119.014 10.7056C119.037 10.0903 118.935 9.47661 118.716 8.90134C118.496 8.32607 118.163 7.80099 117.736 7.35752C117.309 6.91404 116.796 6.56128 116.23 6.32033C115.663 6.07938 115.054 5.95519 114.438 5.95519C113.822 5.95519 113.213 6.07938 112.646 6.32033C112.079 6.56128 111.567 6.91404 111.14 7.35752C110.713 7.80099 110.379 8.32607 110.16 8.90134C109.94 9.47661 109.839 10.0903 109.862 10.7056C109.906 11.8895 110.408 13.0101 111.261 13.832C112.115 14.6539 113.253 15.113 114.438 15.113C115.623 15.113 116.761 14.6539 117.614 13.832C118.468 13.0101 118.969 11.8895 119.014 10.7056V10.7056Z" fill="#FFAE34"/>
<path d="M122.835 0H124.382V10.1019L130.438 4.96425H132.609L126.02 10.5129L132.84 16.3891H130.644L124.382 10.956V16.3891H122.835V0Z" fill="#FFAE34"/>
<path d="M0 40.9214H9.24776V43.0278H0V40.9214Z" fill="#FFAE34"/>
<path d="M10.7955 24.4038H14.5395V36.0663H21.6873V39.5342H10.7698L10.7955 24.4038Z" fill="#FFAE34"/>
<path d="M22.9589 33.825C22.9589 30.3571 25.5277 27.8139 29.1048 27.8139C29.9087 27.7712 30.7126 27.8969 31.4651 28.1829C32.2176 28.4689 32.902 28.909 33.4746 29.4749C34.0471 30.0408 34.4952 30.72 34.79 31.4691C35.0847 32.2182 35.2198 33.0207 35.1865 33.825V34.7947H26.5616C26.6698 35.3797 26.9941 35.9025 27.47 36.2594C27.9459 36.6163 28.5386 36.7812 29.1305 36.7213C30.1259 36.7213 30.8644 36.5158 31.3075 35.8929H34.891C34.1461 38.2498 31.9754 39.8168 29.1112 39.8168C25.502 39.8168 22.9589 37.2865 22.9589 33.825ZM31.6286 32.5984C31.4637 32.0712 31.1235 31.6162 30.6644 31.309C30.2054 31.0017 29.655 30.8607 29.1048 30.9094C28.5606 30.8596 28.016 31.001 27.5648 31.3092C27.1135 31.6175 26.7838 32.0733 26.6323 32.5984H31.6286Z" fill="#FFAE34"/>
<path d="M36.8498 40.6388H40.3626C40.7094 41.358 41.5443 41.7048 42.7003 41.7048C44.3893 41.7048 45.314 40.9856 45.314 38.77V38.1278C44.9344 38.6403 44.4336 39.0506 43.8563 39.3218C43.2791 39.5931 42.6435 39.7168 42.0067 39.6819C39.5792 39.6819 36.5287 38.0828 36.5287 33.8571C36.5287 30.3892 39.0975 27.846 42.6746 27.846C46.2517 27.846 48.8076 30.1837 48.8076 33.9406V38.6544C48.8076 43.0214 46.0526 44.7104 42.7516 44.7104C39.8168 44.7104 37.5434 43.4388 36.8498 40.6388ZM45.314 33.825C45.3317 33.4678 45.2766 33.1108 45.152 32.7756C45.0275 32.4404 44.8362 32.134 44.5896 31.875C44.3431 31.616 44.0465 31.4098 43.7179 31.2689C43.3892 31.128 43.0354 31.0554 42.6778 31.0554C42.3202 31.0554 41.9664 31.128 41.6377 31.2689C41.3091 31.4098 41.0125 31.616 40.7659 31.875C40.5194 32.134 40.3281 32.4404 40.2035 32.7756C40.079 33.1108 40.0239 33.4678 40.0415 33.825C40.0749 34.5016 40.3673 35.1396 40.858 35.6067C41.3487 36.0738 42.0003 36.3343 42.6778 36.3343C43.3553 36.3343 44.0068 36.0738 44.4976 35.6067C44.9883 35.1396 45.2806 34.5016 45.314 33.825Z" fill="#FFAE34"/>
<path d="M50.5865 33.9598C50.5865 30.2864 53.1554 27.8139 56.7581 27.8139C60.3609 27.8139 62.8334 30.1901 62.8334 33.9406V39.5342H59.6224V37.6076C59.3322 38.2903 58.8401 38.8678 58.2122 39.2627C57.5843 39.6576 56.8505 39.851 56.1095 39.8168C53.5664 39.8168 50.5865 37.9351 50.5865 33.9598ZM59.3655 33.825C59.3908 33.4637 59.3414 33.1012 59.2205 32.7598C59.0996 32.4185 58.9098 32.1057 58.6628 31.8408C58.4158 31.576 58.117 31.3648 57.7849 31.2204C57.4528 31.076 57.0946 31.0015 56.7325 31.0015C56.3703 31.0015 56.0121 31.076 55.68 31.2204C55.3479 31.3648 55.0491 31.576 54.8021 31.8408C54.5551 32.1057 54.3653 32.4185 54.2444 32.7598C54.1235 33.1012 54.0742 33.4637 54.0994 33.825C54.0742 34.1862 54.1235 34.5488 54.2444 34.8901C54.3653 35.2315 54.5551 35.5443 54.8021 35.8091C55.0491 36.074 55.3479 36.2852 55.68 36.4296C56.0121 36.5739 56.3703 36.6485 56.7325 36.6485C57.0946 36.6485 57.4528 36.5739 57.7849 36.4296C58.117 36.2852 58.4158 36.074 58.6628 35.8091C58.9098 35.5443 59.0996 35.2315 59.2205 34.8901C59.3414 34.5488 59.3908 34.1862 59.3655 33.825V33.825Z" fill="#FFAE34"/>
<path d="M65.505 23.1194H68.9729V39.5342H65.505V23.1194Z" fill="#FFAE34"/>
<path d="M78.1436 24.4038H83.4867C88.8042 24.4038 91.5785 27.4286 91.5785 31.9626C91.5785 36.4965 88.7978 39.5342 83.4867 39.5342H78.15L78.1436 24.4038ZM83.4867 36.0663C86.5179 36.0663 87.7895 34.4929 87.7895 31.9754C87.7895 29.458 86.5051 27.8846 83.4867 27.8846H81.8941V36.0663H83.4867Z" fill="#FFAE34"/>
<path d="M93.0299 33.825C93.0299 30.3571 95.5987 27.8139 99.1823 27.8139C99.9856 27.7721 100.789 27.8985 101.541 28.1849C102.292 28.4713 102.976 28.9115 103.548 29.4773C104.12 30.0431 104.567 30.7221 104.861 31.4707C105.156 32.2194 105.291 33.0212 105.258 33.825V34.7947H96.6391C96.7459 35.3803 97.0698 35.9041 97.5461 36.2613C98.0223 36.6185 98.6158 36.7828 99.2079 36.7213C100.197 36.7213 100.942 36.5158 101.379 35.8929H104.962C104.224 38.2498 102.046 39.8168 99.1823 39.8168C95.5731 39.8168 93.0299 37.2865 93.0299 33.825ZM101.7 32.5984C101.537 32.071 101.198 31.6155 100.74 31.3081C100.282 31.0006 99.7319 30.8599 99.1823 30.9094C98.637 30.858 98.0909 30.9987 97.6383 31.307C97.1858 31.6154 96.855 32.0721 96.7033 32.5984H101.7Z" fill="#FFAE34"/>
<path d="M106.606 36.0663H110.029C110.029 36.6635 110.491 36.9654 111.442 36.9654C112.502 36.9654 112.848 36.5993 112.848 36.1112C112.848 35.347 112.02 35.2764 110.922 35.1158C109.348 34.8846 106.76 34.4736 106.76 31.7442C106.76 29.4323 108.584 27.8139 111.429 27.8139C114.274 27.8139 116.034 29.4516 116.098 31.513H112.726C112.63 30.98 112.168 30.6782 111.474 30.6782C110.62 30.6782 110.273 31.1149 110.273 31.5773C110.273 32.2708 111.108 32.3672 112.168 32.5277C113.812 32.7589 116.329 33.1699 116.329 35.9057C116.329 38.2626 114.403 39.8296 111.455 39.8296C108.507 39.8296 106.645 38.2626 106.606 36.0663Z" fill="#FFAE34"/>
<path d="M118.044 24.8534C118.044 24.4139 118.174 23.9843 118.418 23.6189C118.662 23.2534 119.01 22.9686 119.416 22.8005C119.822 22.6323 120.268 22.5883 120.699 22.674C121.13 22.7598 121.526 22.9714 121.837 23.2821C122.148 23.5929 122.359 23.9888 122.445 24.4199C122.531 24.8509 122.487 25.2977 122.319 25.7037C122.151 26.1097 121.866 26.4567 121.5 26.7009C121.135 26.9451 120.705 27.0754 120.266 27.0754C119.972 27.0824 119.68 27.0298 119.407 26.9206C119.135 26.8114 118.887 26.648 118.679 26.4402C118.471 26.2325 118.308 25.9847 118.199 25.7119C118.089 25.4392 118.037 25.1471 118.044 24.8534V24.8534ZM118.532 28.1093H122.019V39.5342H118.551L118.532 28.1093Z" fill="#FFAE34"/>
<path d="M124.498 40.6388H128.011C128.358 41.358 129.186 41.7048 130.342 41.7048C132.031 41.7048 132.956 40.9856 132.956 38.77V38.1278C132.576 38.6403 132.075 39.0506 131.498 39.3218C130.921 39.5931 130.285 39.7168 129.649 39.6819C127.221 39.6819 124.17 38.0828 124.17 33.8571C124.17 30.3892 126.739 27.846 130.323 27.846C133.906 27.846 136.424 30.2222 136.424 33.9727V38.6865C136.424 43.0535 133.675 44.7425 130.368 44.7425C127.452 44.7104 125.192 43.4388 124.498 40.6388ZM132.937 33.825C132.954 33.4678 132.899 33.1108 132.775 32.7756C132.65 32.4404 132.459 32.134 132.212 31.875C131.966 31.616 131.669 31.4098 131.34 31.2689C131.012 31.128 130.658 31.0554 130.3 31.0554C129.943 31.0554 129.589 31.128 129.26 31.2689C128.932 31.4098 128.635 31.616 128.388 31.875C128.142 32.134 127.951 32.4404 127.826 32.7756C127.702 33.1108 127.646 33.4678 127.664 33.825C127.697 34.5016 127.99 35.1396 128.481 35.6067C128.971 36.0738 129.623 36.3343 130.3 36.3343C130.978 36.3343 131.629 36.0738 132.12 35.6067C132.611 35.1396 132.903 34.5016 132.937 33.825V33.825Z" fill="#FFAE34"/>
<path d="M138.716 33.613C138.716 29.7598 140.983 27.8332 144.355 27.8332C147.727 27.8332 150 29.7598 150 33.613V39.5342H146.532V33.613C146.532 31.8084 145.652 31.0442 144.355 31.0442C143.058 31.0442 142.184 31.802 142.184 33.613V39.5342H138.716V33.613Z" fill="#FFAE34"/>
</svg>
