<svg width="44" height="43" viewBox="0 0 61 60" fill="none" xmlns="http://www.w3.org/2000/svg">
<g clip-path="url(#clip0_28:4219)">
<path d="M60.62 58.21C60.62 58.21 57.27 55.49 57.5 51.53C57.67 48.42 53.76 47.08 51.68 46.6C51.6525 46.4859 51.6051 46.3776 51.54 46.28L48.1 41.34C47.9717 41.1505 47.7747 41.0184 47.5507 40.9717C47.3267 40.925 47.0933 40.9675 46.9 41.09L46.56 41.4L46.5 41.46C46.1275 39.9718 45.3156 38.6303 44.17 37.61C42.64 36.08 33.06 27.37 26.17 21.47C26.8909 20.6254 27.5588 19.7371 28.17 18.81C28.6102 18.1589 28.9632 17.4528 29.22 16.71C29.3631 16.7203 29.5068 16.7203 29.65 16.71C30.1043 16.7144 30.555 16.6283 30.9756 16.4566C31.3963 16.2849 31.7785 16.0311 32.1 15.71L33.74 14.07C34.3891 13.4178 34.7535 12.5351 34.7535 11.615C34.7535 10.6949 34.3891 9.81215 33.74 9.16L25.54 1C25.2184 0.676182 24.8359 0.419185 24.4146 0.243811C23.9932 0.0684364 23.5414 -0.0218506 23.085 -0.0218506C22.6286 -0.0218506 22.1767 0.0684364 21.7554 0.243811C21.3341 0.419185 20.9516 0.676182 20.63 1L19 2.65C18.6244 3.0218 18.339 3.47469 18.1657 3.97392C17.9923 4.47316 17.9357 5.00546 18 5.53C17.2597 5.7711 16.5538 6.10724 15.9 6.53C14.0581 7.76717 12.349 9.1914 10.8 10.78C9.2114 12.3263 7.79022 14.0358 6.55999 15.88C6.13681 16.53 5.80062 17.2327 5.55999 17.97C5.03545 17.9057 4.50315 17.9624 4.00392 18.1357C3.50468 18.309 3.05179 18.5944 2.67999 18.97L0.999991 20.63C0.679072 20.9537 0.425467 21.3377 0.253826 21.7599C0.0821857 22.1822 -0.00408749 22.6342 -9.28895e-06 23.09C-0.00498383 23.5444 0.0809172 23.9952 0.252646 24.416C0.424375 24.8367 0.678467 25.2189 0.999991 25.54L9.16999 33.72C9.82512 34.3673 10.709 34.7303 11.63 34.7303C12.551 34.7303 13.4349 34.3673 14.09 33.72L15.72 32.08C16.0955 31.7082 16.3809 31.2553 16.5543 30.7561C16.7276 30.2568 16.7843 29.7245 16.72 29.2C17.4516 28.953 18.1502 28.6172 18.8 28.2C19.7321 27.5914 20.6239 26.9234 21.47 26.2C27.36 33.08 36.07 42.67 37.61 44.2C38.6226 45.3519 39.962 46.1681 41.45 46.54L41.3 46.7L41.11 46.88C41.0266 46.9643 40.9608 47.0642 40.9161 47.1741C40.8715 47.2839 40.849 47.4015 40.85 47.52V47.6C40.8561 47.7351 40.8937 47.8669 40.9596 47.9849C41.0256 48.1029 41.1182 48.204 41.23 48.28L46.23 51.72C46.406 51.8393 46.6186 51.8924 46.83 51.87C47.0074 53.6834 47.7649 55.3913 48.99 56.74C51.26 59.14 54.99 60.19 60.18 59.83C60.4144 59.8121 60.6323 59.7021 60.7859 59.5241C60.9396 59.3461 61.0165 59.1146 61 58.88C60.9895 58.7473 60.95 58.6186 60.8844 58.5028C60.8187 58.3871 60.7285 58.2871 60.62 58.21ZM20.64 4.3L22.28 2.66C22.4966 2.44866 22.7873 2.33036 23.09 2.33036C23.3927 2.33036 23.6833 2.44866 23.9 2.66L32.07 10.84C32.177 10.946 32.262 11.0722 32.32 11.2112C32.378 11.3502 32.4078 11.4994 32.4078 11.65C32.4078 11.8006 32.378 11.9498 32.32 12.0888C32.262 12.2278 32.177 12.354 32.07 12.46L30.44 14.09C30.3331 14.1973 30.2061 14.2825 30.0663 14.3406C29.9264 14.3987 29.7764 14.4287 29.625 14.4287C29.4735 14.4287 29.3236 14.3987 29.1837 14.3406C29.0438 14.2825 28.9168 14.1973 28.81 14.09L20.64 5.92C20.533 5.814 20.448 5.68784 20.39 5.54881C20.332 5.40978 20.3022 5.26064 20.3022 5.11C20.3022 4.95936 20.332 4.81022 20.39 4.67119C20.448 4.53216 20.533 4.406 20.64 4.3ZM14.1 30.44L12.46 32.07C12.354 32.177 12.2278 32.262 12.0888 32.32C11.9498 32.378 11.8006 32.4078 11.65 32.4078C11.4994 32.4078 11.3502 32.378 11.2112 32.32C11.0721 32.262 10.946 32.177 10.84 32.07L2.66999 23.9C2.56211 23.7945 2.47645 23.6685 2.41806 23.5294C2.35966 23.3903 2.32972 23.2409 2.32999 23.09C2.32857 22.939 2.35799 22.7892 2.41645 22.6499C2.47491 22.5107 2.56119 22.3848 2.66999 22.28L4.29999 20.64C4.51665 20.4287 4.80733 20.3104 5.10999 20.3104C5.41266 20.3104 5.70333 20.4287 5.91999 20.64L14.09 28.81C14.3057 29.0258 14.4277 29.3179 14.4295 29.6229C14.4314 29.928 14.313 30.2216 14.1 30.44ZM15.74 27.17L7.66999 19.1C7.66999 18.44 8.99999 15.94 12.47 12.47C15.94 9 18.59 7.58 19 7.57L27.07 15.64C27.07 16.23 26.07 18.13 23.68 20.78H23.61C23.61 20.78 23.61 20.78 23.61 20.84C23.21 21.28 22.79 21.74 22.31 22.21C21.83 22.68 21.37 23.12 20.94 23.52H20.87V23.58C18 26.17 16.09 27.15 15.74 27.17ZM23.2 24.59L23.9 23.92C24.14 23.68 24.36 23.44 24.59 23.19C31.75 29.32 41.19 37.93 42.52 39.26C43.85 40.59 44.31 41.51 44.23 42.26C44.1446 42.7373 43.8887 43.1673 43.51 43.47C42.9 44.08 41.88 45.1 39.26 42.47C37.92 41.18 29.3 31.72 23.2 24.59ZM46.56 49.75L43.13 47.35L47.27 43.21L49.67 46.68L46.56 49.75ZM50.27 55.47C49.0261 54.06 48.3867 52.2174 48.49 50.34L50.65 48.19C52.38 48.52 55.85 49.56 55.73 51.41C55.652 53.8407 56.4787 56.2139 58.05 58.07C54.49 58.07 51.87 57.18 50.27 55.47Z" fill="#FFAE34"/>
</g>
<defs>
<clipPath id="clip0_28:4219">
<rect width="60.95" height="59.86" fill="white"/>
</clipPath>
</defs>
</svg>
