<svg width="150" height="44" viewBox="0 0 234 70" fill="none" xmlns="http://www.w3.org/2000/svg">
<g clip-path="url(#clip0_28:4171)">
<path d="M0 28.54H14.4V30.16H0V28.54Z" fill="#FFAE34"/>
<path d="M16.81 2H19.4V23.18H33.66V25.56H16.81V2Z" fill="#FFAE34"/>
<path d="M36.4 2.47999C36.4342 2.01672 36.6424 1.58354 36.9828 1.26739C37.3231 0.951249 37.7705 0.775543 38.235 0.775543C38.6995 0.775543 39.1469 0.951249 39.4872 1.26739C39.8276 1.58354 40.0358 2.01672 40.07 2.47999C40.0886 2.73235 40.055 2.98585 39.9713 3.22464C39.8875 3.46343 39.7554 3.68237 39.5832 3.86778C39.4109 4.05319 39.2023 4.20108 38.9704 4.30221C38.7384 4.40335 38.4881 4.45554 38.235 4.45554C37.9819 4.45554 37.7316 4.40335 37.4996 4.30221C37.2677 4.20108 37.0591 4.05319 36.8869 3.86778C36.7146 3.68237 36.5825 3.46343 36.4987 3.22464C36.415 2.98585 36.3814 2.73235 36.4 2.47999ZM37 7.76999H39.41V25.56H37V7.76999Z" fill="#FFAE34"/>
<path d="M42.62 7.76999H45.32L52.09 23.25L58.86 7.76999H61.48L53.48 25.56H50.61L42.62 7.76999Z" fill="#FFAE34"/>
<path d="M63.11 14.9C63.11 9.79 66.17 7.31 70.59 7.31C75.01 7.31 78.05 9.79 78.05 14.94V15.15H75.67V14.9C75.67 11.19 73.67 9.54 70.59 9.54C67.51 9.54 65.52 11.19 65.52 14.9V25.56H63.11V14.9Z" fill="#FFAE34"/>
<path d="M79.7 16.67C79.7 11.27 83.7 7.31001 89.28 7.31001C90.5312 7.25144 91.781 7.45237 92.9508 7.90017C94.1206 8.34797 95.1851 9.03296 96.0773 9.91207C96.9696 10.7912 97.6703 11.8454 98.1354 13.0084C98.6005 14.1714 98.82 15.4181 98.78 16.67V17.46H82.19C82.2983 19.2368 83.1041 20.8989 84.432 22.0844C85.7599 23.27 87.5023 23.883 89.28 23.79C90.4955 23.8693 91.7093 23.6127 92.7888 23.0483C93.8682 22.4839 94.7715 21.6334 95.4 20.59H98C97.2594 22.2643 96.031 23.6762 94.4753 24.6414C92.9196 25.6066 91.109 26.0801 89.28 26C83.66 26 79.7 22.06 79.7 16.67ZM96.26 15.3C95.9453 13.6744 95.0745 12.209 93.7973 11.1553C92.52 10.1016 90.9158 9.52534 89.26 9.52534C87.6042 9.52534 86 10.1016 84.7227 11.1553C83.4455 12.209 82.5747 13.6744 82.26 15.3H96.26Z" fill="#FFAE34"/>
<path d="M111.81 2H123.19C127.47 2 129.81 4.48 129.81 8C129.858 9.12713 129.559 10.2418 128.955 11.1945C128.351 12.1473 127.47 12.8924 126.43 13.33V13.4C127.745 13.7223 128.908 14.4902 129.721 15.5731C130.534 16.656 130.947 17.987 130.89 19.34C130.89 22.94 128.48 25.57 124.12 25.57H111.81V2ZM123 12.38C125.7 12.38 127.21 10.73 127.21 8.38C127.21 6.03 125.91 4.38 122.89 4.38H114.4V12.38H123ZM123.79 23.18C126.79 23.18 128.25 21.42 128.25 18.97C128.283 18.3928 128.191 17.8154 127.979 17.2773C127.768 16.7393 127.442 16.2534 127.025 15.8533C126.608 15.4532 126.109 15.1482 125.563 14.9595C125.016 14.7707 124.435 14.7027 123.86 14.76H114.4V23.18H123.79Z" fill="#FFAE34"/>
<path d="M134.28 0H136.69V25.56H134.28V0Z" fill="#FFAE34"/>
<path d="M140.18 16.77C140.18 11.23 144.18 7.31 149.76 7.31C155.34 7.31 159.29 11.16 159.29 16.77V25.56H157.06V21.17C156.438 22.6676 155.368 23.936 153.997 24.8009C152.625 25.6657 151.019 26.0846 149.4 26C148.177 26.0404 146.96 25.8293 145.822 25.3796C144.684 24.9299 143.651 24.2513 142.787 23.3859C141.922 22.5205 141.245 21.4867 140.797 20.3486C140.348 19.2106 140.138 17.9925 140.18 16.77ZM156.88 16.67C156.916 15.7119 156.758 14.7563 156.416 13.8606C156.074 12.9648 155.555 12.1472 154.89 11.4566C154.225 10.7661 153.427 10.2168 152.545 9.8416C151.663 9.4664 150.714 9.27302 149.755 9.27302C148.796 9.27302 147.847 9.4664 146.965 9.8416C146.083 10.2168 145.285 10.7661 144.62 11.4566C143.955 12.1472 143.436 12.9648 143.094 13.8606C142.752 14.7563 142.594 15.7119 142.63 16.67C142.699 18.5135 143.48 20.2584 144.809 21.5382C146.137 22.818 147.91 23.533 149.755 23.533C151.6 23.533 153.373 22.818 154.701 21.5382C156.03 20.2584 156.811 18.5135 156.88 16.67Z" fill="#FFAE34"/>
<path d="M162.82 16.27C162.82 10.37 166.35 7.26999 171.61 7.26999C176.87 7.26999 180.39 10.33 180.39 16.27V25.56H178V16.27C178 11.88 175.48 9.53999 171.63 9.53999C167.78 9.53999 165.26 11.88 165.26 16.27V25.56H162.84L162.82 16.27Z" fill="#FFAE34"/>
<path d="M183.2 16.67C183.2 11.27 187.2 7.31 192.78 7.31C197.38 7.31 200.88 9.97 201.92 13.93H199.47C198.829 12.402 197.68 11.1423 196.217 10.364C194.754 9.58574 193.067 9.33667 191.442 9.65893C189.816 9.98119 188.352 10.855 187.297 12.1326C186.241 13.4101 185.66 15.013 185.65 16.67C185.662 18.3262 186.245 19.9275 187.301 21.2033C188.357 22.4791 189.822 23.3512 191.446 23.6722C193.071 23.9932 194.757 23.7433 196.219 22.9649C197.681 22.1865 198.829 20.9273 199.47 19.4H201.92C200.92 23.4 197.38 26.02 192.78 26.02C187.16 26 183.2 22.06 183.2 16.67Z" fill="#FFAE34"/>
<path d="M0 63.72H14.4V67H0V63.72Z" fill="#FFAE34"/>
<path d="M16.81 38H22.64V56.16H33.77V61.56H16.77L16.81 38Z" fill="#FFAE34"/>
<path d="M35.75 52.67C35.75 47.27 39.75 43.31 45.32 43.31C46.5718 43.2435 47.8236 43.4391 48.9953 43.8845C50.1671 44.3299 51.2329 45.0151 52.1244 45.8963C53.0159 46.7775 53.7136 47.8352 54.1726 49.0016C54.6316 50.1681 54.8419 51.4175 54.79 52.67V54.18H41.36C41.5285 55.0908 42.0334 55.905 42.7744 56.4607C43.5155 57.0165 44.4384 57.2733 45.36 57.18C46.91 57.18 48.06 56.86 48.75 55.89H54.33C53.17 59.56 49.79 62 45.33 62C39.71 62 35.75 58.06 35.75 52.67ZM49.25 50.76C48.9932 49.939 48.4635 49.2306 47.7486 48.7522C47.0338 48.2738 46.1768 48.0543 45.32 48.13C44.4726 48.0525 43.6247 48.2726 42.922 48.7526C42.2194 49.2326 41.7059 49.9424 41.47 50.76H49.25Z" fill="#FFAE34"/>
<path d="M57.38 63.28H62.85C63.39 64.4 64.69 64.94 66.49 64.94C69.12 64.94 70.56 63.82 70.56 60.37V59.37C69.9689 60.1681 69.189 60.807 68.2901 61.2293C67.3913 61.6517 66.4017 61.8443 65.41 61.79C61.63 61.79 56.88 59.3 56.88 52.72C56.88 47.32 60.88 43.36 66.45 43.36C72.02 43.36 76 47 76 52.85V60.19C76 66.99 71.71 69.62 66.57 69.62C62 69.62 58.46 67.64 57.38 63.28ZM70.56 52.67C70.5875 52.1139 70.5016 51.558 70.3077 51.036C70.1138 50.5141 69.8159 50.037 69.432 49.6337C69.0481 49.2304 68.5863 48.9093 68.0745 48.6899C67.5628 48.4705 67.0118 48.3573 66.455 48.3573C65.8982 48.3573 65.3472 48.4705 64.8355 48.6899C64.3237 48.9093 63.8619 49.2304 63.478 49.6337C63.0941 50.037 62.7962 50.5141 62.6023 51.036C62.4084 51.558 62.3225 52.1139 62.35 52.67C62.402 53.7237 62.8572 54.717 63.6214 55.4443C64.3855 56.1717 65.4001 56.5773 66.455 56.5773C67.51 56.5773 68.5245 56.1717 69.2887 55.4443C70.0528 54.717 70.508 53.7237 70.56 52.67Z" fill="#FFAE34"/>
<path d="M78.77 52.88C78.77 47.16 82.77 43.31 88.38 43.31C93.99 43.31 97.84 47.01 97.84 52.85V61.56H92.84V58.56C92.3882 59.623 91.6219 60.5224 90.6441 61.1373C89.6664 61.7522 88.5238 62.0533 87.37 62C83.41 62 78.77 59.07 78.77 52.88ZM92.44 52.67C92.4793 52.1075 92.4025 51.5429 92.2142 51.0114C92.026 50.4799 91.7304 49.9928 91.3458 49.5804C90.9612 49.168 90.4959 48.8392 89.9788 48.6143C89.4617 48.3895 88.9039 48.2735 88.34 48.2735C87.7761 48.2735 87.2183 48.3895 86.7012 48.6143C86.1841 48.8392 85.7188 49.168 85.3342 49.5804C84.9496 49.9928 84.654 50.4799 84.4658 51.0114C84.2775 51.5429 84.2007 52.1075 84.24 52.67C84.2007 53.2325 84.2775 53.7971 84.4658 54.3286C84.654 54.8601 84.9496 55.3472 85.3342 55.7596C85.7188 56.172 86.1841 56.5008 86.7012 56.7257C87.2183 56.9505 87.7761 57.0665 88.34 57.0665C88.9039 57.0665 89.4617 56.9505 89.9788 56.7257C90.4959 56.5008 90.9612 56.172 91.3458 55.7596C91.7304 55.3472 92.026 54.8601 92.2142 54.3286C92.4025 53.7971 92.4793 53.2325 92.44 52.67Z" fill="#FFAE34"/>
<path d="M102 36H107.4V61.56H102V36Z" fill="#FFAE34"/>
<path d="M121.68 38H130C138.28 38 142.6 42.71 142.6 49.77C142.6 56.83 138.27 61.56 130 61.56H121.69L121.68 38ZM130 56.16C134.72 56.16 136.7 53.71 136.7 49.79C136.7 45.87 134.7 43.42 130 43.42H127.52V56.16H130Z" fill="#FFAE34"/>
<path d="M144.86 52.67C144.86 47.27 148.86 43.31 154.44 43.31C155.691 43.2449 156.942 43.4417 158.112 43.8877C159.283 44.3337 160.347 45.0191 161.238 45.9002C162.128 46.7812 162.825 47.8384 163.283 49.0041C163.742 50.1699 163.952 51.4184 163.9 52.67V54.18H150.48C150.646 55.0919 151.151 55.9075 151.892 56.4637C152.634 57.0198 153.558 57.2757 154.48 57.18C156.02 57.18 157.18 56.86 157.86 55.89H163.44C162.29 59.56 158.9 62 154.44 62C148.82 62 144.86 58.06 144.86 52.67ZM158.36 50.76C158.107 49.9389 157.579 49.2296 156.866 48.7508C156.152 48.2721 155.296 48.0529 154.44 48.13C153.591 48.05 152.741 48.269 152.036 48.7492C151.331 49.2294 150.816 49.9406 150.58 50.76H158.36Z" fill="#FFAE34"/>
<path d="M166 56.16H171.33C171.33 57.09 172.05 57.56 173.53 57.56C175.18 57.56 175.72 56.99 175.72 56.23C175.72 55.04 174.43 54.93 172.72 54.68C170.27 54.32 166.24 53.68 166.24 49.43C166.24 45.83 169.08 43.31 173.51 43.31C177.94 43.31 180.68 45.86 180.78 49.07H175.53C175.38 48.24 174.66 47.77 173.58 47.77C172.25 47.77 171.71 48.45 171.71 49.17C171.71 50.25 173.01 50.4 174.66 50.65C177.22 51.01 181.14 51.65 181.14 55.91C181.14 59.58 178.14 62.02 173.55 62.02C168.96 62.02 166.06 59.58 166 56.16Z" fill="#FFAE34"/>
<path d="M183.81 38.7C183.81 38.0157 184.013 37.3467 184.393 36.7777C184.773 36.2087 185.314 35.7652 185.946 35.5034C186.578 35.2415 187.274 35.173 187.945 35.3065C188.616 35.44 189.233 35.7695 189.717 36.2534C190.2 36.7373 190.53 37.3538 190.664 38.025C190.797 38.6962 190.729 39.3918 190.467 40.0241C190.205 40.6563 189.761 41.1967 189.192 41.5769C188.623 41.9571 187.954 42.16 187.27 42.16C186.813 42.171 186.358 42.0889 185.933 41.9189C185.508 41.7489 185.123 41.4945 184.799 41.171C184.476 40.8475 184.221 40.4617 184.051 40.0369C183.881 39.6122 183.799 39.1574 183.81 38.7ZM184.57 43.77H190V61.56H184.6L184.57 43.77Z" fill="#FFAE34"/>
<path d="M193.86 63.28H199.33C199.87 64.4 201.16 64.94 202.96 64.94C205.59 64.94 207.03 63.82 207.03 60.37V59.37C206.439 60.1681 205.659 60.807 204.76 61.2293C203.861 61.6517 202.872 61.8443 201.88 61.79C198.1 61.79 193.35 59.3 193.35 52.72C193.35 47.32 197.35 43.36 202.93 43.36C208.51 43.36 212.43 47.06 212.43 52.9V60.24C212.43 67.04 208.15 69.67 203 69.67C198.46 69.62 194.94 67.64 193.86 63.28ZM207 52.67C207.027 52.1139 206.942 51.558 206.748 51.036C206.554 50.5141 206.256 50.037 205.872 49.6337C205.488 49.2304 205.026 48.9093 204.515 48.6899C204.003 48.4705 203.452 48.3573 202.895 48.3573C202.338 48.3573 201.787 48.4705 201.275 48.6899C200.764 48.9093 200.302 49.2304 199.918 49.6337C199.534 50.037 199.236 50.5141 199.042 51.036C198.848 51.558 198.763 52.1139 198.79 52.67C198.842 53.7237 199.297 54.717 200.061 55.4443C200.825 56.1717 201.84 56.5773 202.895 56.5773C203.95 56.5773 204.965 56.1717 205.729 55.4443C206.493 54.717 206.948 53.7237 207 52.67Z" fill="#FFAE34"/>
<path d="M216 52.34C216 46.34 219.53 43.34 224.78 43.34C230.03 43.34 233.57 46.34 233.57 52.34V61.56H228.17V52.34C228.17 49.53 226.8 48.34 224.78 48.34C222.76 48.34 221.4 49.52 221.4 52.34V61.56H216V52.34Z" fill="#FFAE34"/>
</g>
<defs>
<clipPath id="clip0_28:4171">
<rect width="233.53" height="69.62" fill="white"/>
</clipPath>
</defs>
</svg>
