<svg width="150" height="44" viewBox="0 0 150 44" fill="none" xmlns="http://www.w3.org/2000/svg">
<g clip-path="url(#clip0_149:2)">
<path d="M0 18.0374H9.24935V19.0612H0V18.0374Z" fill="#FFAE34"/>
<path d="M10.4505 11.1484V1.26392H12.1141V11.1484C12.1141 13.6764 13.6171 14.9404 15.6275 14.9404C17.638 14.9404 19.1474 13.6006 19.1474 11.1484V1.26392H20.811V11.1484C20.811 13.6069 22.2883 14.9404 24.3245 14.9404C26.3606 14.9404 27.838 13.6764 27.838 11.1484V1.26392H29.5016V11.1484C29.5016 14.675 27.3048 16.4446 24.4401 16.4446C23.4951 16.4968 22.5571 16.2575 21.7569 15.7601C20.9567 15.2628 20.3341 14.5322 19.976 13.6701C19.6161 14.5375 18.9886 15.2719 18.1819 15.7697C17.3752 16.2674 16.4301 16.5035 15.4798 16.4446C12.6472 16.432 10.4505 14.675 10.4505 11.1484Z" fill="#FFAE34"/>
<path d="M32.2121 0H33.7601V7.09739C34.1502 6.3096 34.7694 5.65357 35.539 5.2125C36.3086 4.77143 37.194 4.56519 38.0829 4.61994C41.1339 4.61994 43.4912 6.4401 43.4912 10.308V16.1793H41.9432V10.2827C41.9432 7.50819 40.3246 6.0293 37.8517 6.0293C35.3787 6.0293 33.7601 7.58403 33.7601 10.2827V16.154H32.2121V0Z" fill="#FFAE34"/>
<path d="M45.7843 1.56745C45.8062 1.27466 45.94 1.00089 46.1586 0.801084C46.3772 0.601281 46.6645 0.490234 46.9629 0.490234C47.2613 0.490234 47.5486 0.601281 47.7672 0.801084C47.9859 1.00089 48.1196 1.27466 48.1416 1.56745C48.1535 1.72694 48.1319 1.88716 48.0781 2.03807C48.0243 2.18898 47.9395 2.32735 47.8289 2.44453C47.7182 2.56171 47.5842 2.65518 47.4352 2.7191C47.2862 2.78301 47.1255 2.816 46.9629 2.816C46.8004 2.816 46.6396 2.78301 46.4906 2.7191C46.3416 2.65518 46.2076 2.56171 46.097 2.44453C45.9864 2.32735 45.9015 2.18898 45.8477 2.03807C45.7939 1.88716 45.7723 1.72694 45.7843 1.56745V1.56745ZM46.2018 4.91074H47.7497V16.1541H46.2018V4.91074Z" fill="#FFAE34"/>
<path d="M50.4282 12.008V0.935303H51.9826V4.9106H58.7077V6.31996H51.9826V12.008C51.9826 14.0557 53.1388 15.029 54.918 15.029C56.6972 15.029 57.8534 14.0746 57.8534 12.008V11.7552H59.3564V12.008C59.3564 14.9658 57.5515 16.432 54.918 16.432C52.2845 16.432 50.4282 14.9721 50.4282 12.008Z" fill="#FFAE34"/>
<path d="M60.8337 10.5356C60.8337 7.12278 63.403 4.62005 66.9871 4.62005C67.7908 4.58303 68.5935 4.71002 69.3449 4.99303C70.0963 5.27604 70.78 5.70896 71.3531 6.26455C71.9262 6.82015 72.3763 7.48641 72.6751 8.22144C72.9738 8.95647 73.1148 9.74436 73.0891 10.5356V11.0349H62.4331C62.5027 12.1578 63.0203 13.2083 63.8732 13.9575C64.7261 14.7068 65.8453 15.0942 66.9871 15.0354C67.768 15.087 68.5483 14.9254 69.2419 14.5686C69.9355 14.2117 70.5155 13.6735 70.9181 13.013H72.5817C72.1049 14.0691 71.3166 14.9597 70.319 15.5694C69.3214 16.1791 68.1605 16.4797 66.9871 16.4322C63.3773 16.4322 60.8337 13.9421 60.8337 10.5356ZM71.4705 9.66975C71.2683 8.64235 70.709 7.71623 69.8886 7.05029C69.0682 6.38436 68.0378 6.02014 66.9743 6.02014C65.9107 6.02014 64.8803 6.38436 64.0599 7.05029C63.2395 7.71623 62.6802 8.64235 62.4781 9.66975H71.4705Z" fill="#FFAE34"/>
<path d="M81.0474 10.5986C81.0474 6.98356 83.6167 4.61987 87.1494 4.61987C90.6821 4.61987 93.322 7.14788 93.322 10.5797C93.3449 11.3516 93.2078 12.1201 92.9191 12.8382C92.6303 13.5564 92.1959 14.2091 91.6424 14.7567C91.0889 15.3043 90.4278 15.7352 89.6996 16.0233C88.9713 16.3113 88.191 16.4503 87.4063 16.432C86.4256 16.4806 85.4512 16.2516 84.5986 15.7722C83.7459 15.2928 83.0508 14.5831 82.5954 13.727V20.9508H81.0474V10.5986ZM91.7484 10.5354C91.7714 9.92988 91.6701 9.32598 91.4505 8.75985C91.2309 8.19372 90.8975 7.67699 90.4703 7.24056C90.0431 6.80413 89.5307 6.45697 88.964 6.21985C88.3973 5.98273 87.7877 5.86051 87.1719 5.86051C86.556 5.86051 85.9465 5.98273 85.3798 6.21985C84.813 6.45697 84.3007 6.80413 83.8735 7.24056C83.4462 7.67699 83.1128 8.19372 82.8932 8.75985C82.6736 9.32598 82.5723 9.92988 82.5954 10.5354C82.6397 11.7005 83.1413 12.8033 83.9947 13.6121C84.8482 14.421 85.987 14.8729 87.1719 14.8729C88.3568 14.8729 89.4956 14.421 90.349 13.6121C91.2024 12.8033 91.704 11.7005 91.7484 10.5354V10.5354Z" fill="#FFAE34"/>
<path d="M94.6645 10.5986C94.6645 7.09732 97.2338 4.61987 100.818 4.61987C104.402 4.61987 106.946 7.05308 106.946 10.5986V16.1539H105.507V13.3794C105.108 14.3259 104.42 15.1276 103.539 15.6741C102.658 16.2207 101.627 16.4855 100.587 16.432C99.8014 16.4576 99.0191 16.3241 98.2885 16.0399C97.5578 15.7557 96.8942 15.3268 96.339 14.7799C95.7837 14.2329 95.3485 13.5796 95.0605 12.8603C94.7725 12.1411 94.6377 11.3712 94.6645 10.5986ZM105.391 10.5354C105.414 9.92988 105.313 9.32598 105.093 8.75985C104.874 8.19372 104.54 7.67699 104.113 7.24056C103.686 6.80413 103.174 6.45697 102.607 6.21985C102.04 5.98273 101.431 5.86051 100.815 5.86051C100.199 5.86051 99.5893 5.98273 99.0226 6.21985C98.4558 6.45697 97.9435 6.80413 97.5163 7.24056C97.089 7.67699 96.7556 8.19372 96.536 8.75985C96.3164 9.32598 96.2151 9.92988 96.2382 10.5354C96.2825 11.7005 96.7841 12.8033 97.6375 13.6121C98.4909 14.421 99.6297 14.8729 100.815 14.8729C102 14.8729 103.138 14.421 103.992 13.6121C104.845 12.8033 105.347 11.7005 105.391 10.5354V10.5354Z" fill="#FFAE34"/>
<path d="M109.194 10.5986C109.194 6.98356 111.763 4.61987 115.296 4.61987C118.828 4.61987 121.468 7.14788 121.468 10.5797C121.491 11.3505 121.354 12.1179 121.066 12.8352C120.778 13.5525 120.345 14.2046 119.793 14.752C119.241 15.2994 118.581 15.7306 117.855 16.0194C117.128 16.3082 116.349 16.4486 115.565 16.432C114.586 16.4793 113.613 16.2498 112.761 15.7705C111.91 15.2912 111.216 14.5821 110.761 13.727V20.9508H109.194V10.5986ZM119.895 10.5354C119.918 9.92988 119.816 9.32598 119.597 8.75985C119.377 8.19372 119.044 7.67699 118.617 7.24056C118.189 6.80413 117.677 6.45697 117.11 6.21985C116.544 5.98273 115.934 5.86051 115.318 5.86051C114.702 5.86051 114.093 5.98273 113.526 6.21985C112.959 6.45697 112.447 6.80413 112.02 7.24056C111.593 7.67699 111.259 8.19372 111.04 8.75985C110.82 9.32598 110.719 9.92988 110.742 10.5354C110.786 11.7005 111.288 12.8033 112.141 13.6121C112.994 14.421 114.133 14.8729 115.318 14.8729C116.503 14.8729 117.642 14.421 118.495 13.6121C119.349 12.8033 119.85 11.7005 119.895 10.5354V10.5354Z" fill="#FFAE34"/>
<path d="M122.83 10.5354C122.83 7.12259 125.399 4.61986 128.977 4.61986C129.781 4.58194 130.585 4.70826 131.337 4.99087C132.089 5.27348 132.773 5.70626 133.347 6.26195C133.921 6.81764 134.372 7.48421 134.671 8.21969C134.97 8.95516 135.111 9.74362 135.085 10.5354V11.0347H124.423C124.494 12.157 125.012 13.2065 125.865 13.9554C126.717 14.7043 127.836 15.0923 128.977 15.0353C129.758 15.0868 130.538 14.9252 131.232 14.5684C131.925 14.2116 132.505 13.6733 132.908 13.0129H134.597C134.119 14.073 133.327 14.9665 132.324 15.5766C131.321 16.1866 130.155 16.4847 128.977 16.432C125.374 16.432 122.83 13.9419 122.83 10.5354ZM133.467 9.66956C133.265 8.64217 132.705 7.71604 131.885 7.0501C131.065 6.38417 130.034 6.01995 128.971 6.01995C127.907 6.01995 126.877 6.38417 126.056 7.0501C125.236 7.71604 124.677 8.64217 124.474 9.66956H133.467Z" fill="#FFAE34"/>
<path d="M136.89 9.41677C136.89 6.18724 138.856 4.61987 141.695 4.61987C144.534 4.61987 146.487 6.18724 146.487 9.44205V9.57477H144.958V9.41677C144.958 7.07204 143.641 6.02924 141.695 6.02924C139.749 6.02924 138.438 7.07204 138.438 9.41677V16.1539H136.89V9.41677Z" fill="#FFAE34"/>
<path d="M0 40.2712H9.24935V42.3442H0V40.2712Z" fill="#FFAE34"/>
<path d="M10.7973 24.0161H14.542V35.4933H21.691V38.9061H10.7716L10.7973 24.0161Z" fill="#FFAE34"/>
<path d="M22.9628 33.2876C22.9628 29.8748 25.532 27.372 29.1097 27.372C29.9138 27.33 30.7179 27.4537 31.4705 27.7351C32.2231 28.0166 32.9077 28.4497 33.4803 29.0066C34.053 29.5635 34.5011 30.2319 34.7959 30.9692C35.0907 31.7064 35.2258 32.496 35.1925 33.2876V34.2419H26.5662C26.6744 34.8175 26.9987 35.3321 27.4747 35.6833C27.9507 36.0346 28.5435 36.1969 29.1354 36.1379C30.131 36.1379 30.8697 35.9357 31.3129 35.3226H34.897C34.1519 37.6421 31.9809 39.1842 29.1162 39.1842C25.5064 39.1842 22.9628 36.6941 22.9628 33.2876ZM31.634 32.0804C31.4691 31.5616 31.1288 31.1139 30.6697 30.8115C30.2105 30.5092 29.6601 30.3704 29.1097 30.4183C28.5654 30.3693 28.0208 30.5084 27.5695 30.8118C27.1182 31.1151 26.7884 31.5637 26.6368 32.0804H31.634Z" fill="#FFAE34"/>
<path d="M36.8561 39.993H40.3695C40.7164 40.7009 41.5514 41.0422 42.7076 41.0422C44.3969 41.0422 45.3218 40.3343 45.3218 38.1539V37.5219C44.9421 38.0263 44.4412 38.4301 43.8638 38.697C43.2865 38.964 42.6508 39.0857 42.0139 39.0514C39.5859 39.0514 36.5349 37.4777 36.5349 33.3191C36.5349 29.9063 39.1042 27.4036 42.6819 27.4036C46.2596 27.4036 48.816 29.7041 48.816 33.4013V38.0402C48.816 42.3378 46.0605 43.9999 42.759 43.9999C39.8236 43.9999 37.5498 42.7486 36.8561 39.993ZM45.3218 33.2875C45.3394 32.936 45.2843 32.5847 45.1598 32.2548C45.0352 31.925 44.8438 31.6234 44.5973 31.3685C44.3507 31.1137 44.054 30.9107 43.7253 30.7721C43.3966 30.6334 43.0427 30.5619 42.6851 30.5619C42.3274 30.5619 41.9735 30.6334 41.6448 30.7721C41.3161 30.9107 41.0195 31.1137 40.7729 31.3685C40.5263 31.6234 40.335 31.925 40.2104 32.2548C40.0859 32.5847 40.0307 32.936 40.0484 33.2875C40.0818 33.9534 40.3742 34.5812 40.865 35.0409C41.3558 35.5006 42.0075 35.7569 42.6851 35.7569C43.3627 35.7569 44.0144 35.5006 44.5052 35.0409C44.996 34.5812 45.2884 33.9534 45.3218 33.2875Z" fill="#FFAE34"/>
<path d="M50.5952 33.4203C50.5952 29.8053 53.1645 27.3721 56.7679 27.3721C60.3713 27.3721 62.8442 29.7105 62.8442 33.4014V38.9061H59.6326V37.0101C59.3424 37.6819 58.8502 38.2503 58.2222 38.639C57.5941 39.0276 56.8603 39.2178 56.1191 39.1842C53.5756 39.1842 50.5952 37.3324 50.5952 33.4203ZM59.3757 33.2876C59.4009 32.9321 59.3516 32.5753 59.2306 32.2394C59.1097 31.9034 58.9199 31.5956 58.6729 31.335C58.4258 31.0743 58.127 30.8665 57.7948 30.7244C57.4627 30.5823 57.1044 30.509 56.7422 30.509C56.38 30.509 56.0217 30.5823 55.6895 30.7244C55.3574 30.8665 55.0585 31.0743 54.8115 31.335C54.5645 31.5956 54.3746 31.9034 54.2537 32.2394C54.1328 32.5753 54.0834 32.9321 54.1087 33.2876C54.0834 33.6431 54.1328 33.9999 54.2537 34.3358C54.3746 34.6718 54.5645 34.9796 54.8115 35.2402C55.0585 35.5009 55.3574 35.7087 55.6895 35.8508C56.0217 35.9929 56.38 36.0662 56.7422 36.0662C57.1044 36.0662 57.4627 35.9929 57.7948 35.8508C58.127 35.7087 58.4258 35.5009 58.6729 35.2402C58.9199 34.9796 59.1097 34.6718 59.2306 34.3358C59.3516 33.9999 59.4009 33.6431 59.3757 33.2876V33.2876Z" fill="#FFAE34"/>
<path d="M65.5162 22.7522H68.9847V38.9062H65.5162V22.7522Z" fill="#FFAE34"/>
<path d="M78.157 24.0161H83.501C88.8194 24.0161 91.5942 26.9928 91.5942 31.4548C91.5942 35.9167 88.813 38.9061 83.501 38.9061H78.1634L78.157 24.0161ZM83.501 35.4933C86.5328 35.4933 87.8046 33.9449 87.8046 31.4674C87.8046 28.99 86.5199 27.4416 83.501 27.4416H81.9081V35.4933H83.501Z" fill="#FFAE34"/>
<path d="M93.0459 33.2875C93.0459 29.8747 95.6151 27.3719 99.1992 27.3719C100.003 27.3308 100.806 27.4552 101.558 27.737C102.31 28.0189 102.994 28.4521 103.566 29.0089C104.137 29.5657 104.585 30.2339 104.879 30.9706C105.174 31.7074 105.309 32.4965 105.276 33.2875V34.2418H96.6557C96.7625 34.8181 97.0865 35.3336 97.5628 35.6851C98.0391 36.0366 98.6327 36.1983 99.2249 36.1378C100.214 36.1378 100.959 35.9356 101.396 35.3225H104.98C104.241 37.642 102.064 39.1841 99.1992 39.1841C95.5894 39.1841 93.0459 36.694 93.0459 33.2875ZM101.717 32.0804C101.555 31.5614 101.216 31.1131 100.757 30.8105C100.299 30.508 99.749 30.3695 99.1992 30.4182C98.6539 30.3677 98.1077 30.5061 97.6551 30.8095C97.2024 31.113 96.8716 31.5625 96.7199 32.0804H101.717Z" fill="#FFAE34"/>
<path d="M106.624 35.4933H110.048C110.048 36.0811 110.51 36.3781 111.461 36.3781C112.521 36.3781 112.868 36.0179 112.868 35.5375C112.868 34.7855 112.039 34.7159 110.941 34.5579C109.367 34.3304 106.779 33.9259 106.779 31.2399C106.779 28.9647 108.603 27.3721 111.448 27.3721C114.294 27.3721 116.054 28.9837 116.118 31.0124H112.746C112.649 30.4878 112.187 30.1908 111.493 30.1908C110.639 30.1908 110.292 30.6206 110.292 31.0756C110.292 31.7582 111.127 31.853 112.187 32.011C113.831 32.2385 116.349 32.643 116.349 35.3353C116.349 37.6547 114.422 39.1968 111.474 39.1968C108.526 39.1968 106.663 37.6547 106.624 35.4933Z" fill="#FFAE34"/>
<path d="M118.064 24.4585C118.064 24.026 118.194 23.6032 118.439 23.2436C118.683 22.884 119.03 22.6037 119.436 22.4382C119.842 22.2727 120.289 22.2294 120.72 22.3137C121.151 22.3981 121.547 22.6064 121.858 22.9122C122.169 23.218 122.38 23.6077 122.466 24.0318C122.552 24.456 122.508 24.8957 122.34 25.2953C122.172 25.6949 121.887 26.0364 121.521 26.2767C121.156 26.5169 120.726 26.6452 120.286 26.6452C119.993 26.6521 119.701 26.6003 119.428 26.4928C119.155 26.3854 118.907 26.2246 118.699 26.0201C118.492 25.8157 118.328 25.5718 118.219 25.3034C118.11 25.035 118.057 24.7475 118.064 24.4585V24.4585ZM118.552 27.6627H122.04V38.906H118.571L118.552 27.6627Z" fill="#FFAE34"/>
<path d="M124.519 39.993H128.033C128.38 40.7009 129.208 41.0422 130.364 41.0422C132.054 41.0422 132.979 40.3343 132.979 38.1539V37.5219C132.599 38.0263 132.098 38.4301 131.521 38.697C130.943 38.964 130.308 39.0857 129.671 39.0514C127.243 39.0514 124.192 37.4777 124.192 33.3191C124.192 29.9063 126.761 27.4036 130.345 27.4036C133.929 27.4036 136.447 29.742 136.447 33.4329V38.0718C136.447 42.3694 133.698 44.0315 130.39 44.0315C127.474 43.9999 125.213 42.7486 124.519 39.993ZM132.959 33.2875C132.977 32.936 132.922 32.5847 132.797 32.2548C132.673 31.925 132.481 31.6234 132.235 31.3685C131.988 31.1137 131.692 30.9107 131.363 30.7721C131.034 30.6334 130.68 30.5619 130.323 30.5619C129.965 30.5619 129.611 30.6334 129.282 30.7721C128.954 30.9107 128.657 31.1137 128.41 31.3685C128.164 31.6234 127.973 31.925 127.848 32.2548C127.723 32.5847 127.668 32.936 127.686 33.2875C127.719 33.9534 128.012 34.5812 128.503 35.0409C128.993 35.5006 129.645 35.7569 130.323 35.7569C131 35.7569 131.652 35.5006 132.143 35.0409C132.634 34.5812 132.926 33.9534 132.959 33.2875V33.2875Z" fill="#FFAE34"/>
<path d="M138.74 33.0789C138.74 29.2869 141.008 27.3909 144.38 27.3909C147.752 27.3909 150.026 29.2869 150.026 33.0789V38.906H146.557V33.0789C146.557 31.303 145.677 30.5509 144.38 30.5509C143.082 30.5509 142.209 31.2966 142.209 33.0789V38.906H138.74V33.0789Z" fill="#FFAE34"/>
</g>
<defs>
<clipPath id="clip0_149:2">
<rect width="150" height="44" fill="white"/>
</clipPath>
</defs>
</svg>
