<svg width="300" height="38" viewBox="0 0 477 61" fill="none" xmlns="http://www.w3.org/2000/svg">
<g clip-path="url(#clip0_28:4223)">
<path d="M281.01 33.26V39.75H275.63V33.26L267.12 18.23H273.04L278.29 27.59L283.58 18.23H289.5L281.01 33.26Z" fill="#25282B"/>
<path d="M300.35 17.78C302.561 17.8076 304.714 18.4882 306.538 19.7362C308.363 20.9842 309.778 22.7439 310.605 24.794C311.433 26.844 311.635 29.0929 311.188 31.2579C310.741 33.4228 309.663 35.4072 308.091 36.9613C306.519 38.5155 304.522 39.5701 302.352 39.9926C300.182 40.415 297.936 40.1864 295.895 39.3355C293.855 38.4846 292.112 37.0495 290.885 35.2105C289.658 33.3714 289.002 31.2107 289 29H294.41C294.41 30.5913 295.042 32.1175 296.167 33.2427C297.293 34.3679 298.819 35 300.41 35C302.001 35 303.527 34.3679 304.653 33.2427C305.778 32.1175 306.41 30.5913 306.41 29C306.442 28.1921 306.311 27.386 306.024 26.6302C305.737 25.8743 305.3 25.1842 304.74 24.6014C304.179 24.0186 303.507 23.555 302.763 23.2386C302.019 22.9222 301.219 22.7594 300.41 22.76L300.35 17.78Z" fill="#25282B"/>
<path d="M334.54 29.72C334.54 36.39 330.68 40.22 324.54 40.22C318.4 40.22 314.54 36.39 314.54 29.72V22.94H319.92V29.81C319.92 33.1 321.72 35.22 324.54 35.22C327.36 35.22 329.19 33.1 329.19 29.81V18.23H334.57L334.54 29.72Z" fill="#25282B"/>
<path d="M352.71 32.22C353.84 31.5762 354.775 30.6387 355.416 29.5067C356.057 28.3747 356.38 27.0904 356.35 25.79C356.35 21.14 352.77 18.23 347.43 18.23H338V22.94H347.31C349.37 22.94 350.99 24.05 350.99 25.79C350.99 27.53 349.37 28.71 347.31 28.71H338V33.51H347.41L351.52 39.75H357.76L352.71 32.22Z" fill="#25282B"/>
<path d="M364.12 40.4901C362.817 40.4941 361.522 40.295 360.28 39.9001L360.45 39.34C361.637 39.7145 362.875 39.9034 364.12 39.9001C366.644 40.0023 369.115 39.1589 371.05 37.535C372.984 35.911 374.243 33.6234 374.58 31.12H369.64C369.388 32.3907 368.69 33.5295 367.673 34.3309C366.655 35.1323 365.384 35.5434 364.09 35.4901C362.676 35.5099 361.297 35.0479 360.18 34.18L360.55 33.7201C361.561 34.5058 362.81 34.9222 364.09 34.9001C365.286 34.9502 366.459 34.5561 367.382 33.7936C368.305 33.0312 368.913 31.9542 369.09 30.77V30.53H375.18V30.86C374.9 33.5681 373.603 36.0688 371.549 37.8566C369.496 39.6443 366.841 40.5856 364.12 40.4901ZM375.25 27.49H369.16V27.25C368.985 26.0649 368.377 24.9867 367.454 24.2238C366.53 23.4609 365.357 23.0677 364.16 23.12C362.879 23.093 361.628 23.5099 360.62 24.3L360.25 23.84C361.365 22.9693 362.745 22.507 364.16 22.53C365.454 22.4767 366.725 22.8878 367.743 23.6892C368.76 24.4906 369.458 25.6294 369.71 26.9H374.65C374.311 24.3967 373.052 22.1094 371.118 20.4843C369.184 18.8591 366.714 18.0126 364.19 18.11C362.945 18.1067 361.707 18.2956 360.52 18.67L360.35 18.11C361.592 17.7183 362.888 17.5226 364.19 17.53C366.916 17.4268 369.579 18.3645 371.638 20.153C373.698 21.9415 375 24.4467 375.28 27.16L375.25 27.49Z" fill="#25282B"/>
<path d="M389.1 40.49C387.574 40.5193 386.057 40.2436 384.638 39.679C383.22 39.1145 381.928 38.2724 380.84 37.2023C379.751 36.1322 378.887 34.8554 378.298 33.447C377.709 32.0385 377.407 30.5266 377.41 29H378C377.962 31.2031 378.581 33.3675 379.778 35.2177C380.974 37.0679 382.694 38.5202 384.719 39.3895C386.743 40.2589 388.981 40.506 391.147 40.0994C393.312 39.6928 395.308 38.6509 396.879 37.1063C398.451 35.5618 399.527 33.5846 399.971 31.4263C400.415 29.2681 400.206 27.0266 399.372 24.9873C398.538 22.9479 397.115 21.203 395.286 19.9747C393.457 18.7464 391.303 18.0903 389.1 18.09V17.5C392.15 17.5 395.075 18.7116 397.232 20.8683C399.388 23.0249 400.6 25.95 400.6 29C400.6 32.05 399.388 34.9751 397.232 37.1317C395.075 39.2884 392.15 40.5 389.1 40.5V40.49ZM389.1 35.49C388.26 35.4823 387.429 35.3076 386.657 34.9761C385.885 34.6446 385.186 34.1629 384.602 33.559C384.018 32.9551 383.559 32.2411 383.253 31.4584C382.947 30.6758 382.8 29.8401 382.82 29C382.786 28.1549 382.924 27.3117 383.224 26.5209C383.524 25.7302 383.981 25.0082 384.567 24.3983C385.153 23.7884 385.856 23.3032 386.634 22.9718C387.412 22.6403 388.249 22.4694 389.095 22.4694C389.941 22.4694 390.778 22.6403 391.556 22.9718C392.334 23.3032 393.037 23.7884 393.623 24.3983C394.209 25.0082 394.666 25.7302 394.966 26.5209C395.266 27.3117 395.404 28.1549 395.37 29C395.395 29.8421 395.252 30.6808 394.949 31.4669C394.646 32.253 394.189 32.9707 393.605 33.5779C393.021 34.1852 392.322 34.6697 391.548 35.0032C390.775 35.3367 389.942 35.5124 389.1 35.52V35.49ZM389.1 23.02C388.331 23.0288 387.571 23.1916 386.865 23.4989C386.16 23.8062 385.523 24.2517 384.993 24.8091C384.462 25.3665 384.049 26.0246 383.777 26.7444C383.505 27.4642 383.38 28.2311 383.41 29C383.378 29.7666 383.501 30.5318 383.772 31.2496C384.043 31.9674 384.457 32.6229 384.988 33.1767C385.519 33.7305 386.157 34.1712 386.862 34.4722C387.568 34.7733 388.328 34.9285 389.095 34.9285C389.862 34.9285 390.622 34.7733 391.327 34.4722C392.033 34.1712 392.671 33.7305 393.202 33.1767C393.733 32.6229 394.146 31.9674 394.418 31.2496C394.689 30.5318 394.812 29.7666 394.78 29C394.807 28.2341 394.68 27.4706 394.407 26.7543C394.135 26.0381 393.722 25.3836 393.193 24.8292C392.663 24.2749 392.029 23.8319 391.326 23.5264C390.623 23.2208 389.866 23.0589 389.1 23.05V23.02Z" fill="#25282B"/>
<path d="M421.06 40.0501H415.12V29.9501L410.93 36.4201V36.6301L410.64 36.6601H407.37V36.4201L402.61 29.0501L403.1 28.7301L407.85 36.0701H410.46L415.71 27.9601V39.4601H420.48V18.5201H416.94L409.15 30.2501L402.61 20.3901L403.1 20.0601L409.15 29.1801L416.62 17.9301H421.06V40.0501Z" fill="#25282B"/>
<path d="M430.21 39.7501H429.63V18.5201H424.86V39.7501H424.28V17.9301H430.21V39.7501Z" fill="#25282B"/>
<path d="M444.61 40.4901C443.079 40.5375 441.554 40.2742 440.128 39.7161C438.701 39.1581 437.402 38.3168 436.31 37.243C435.217 36.1692 434.354 34.8852 433.771 33.4685C433.189 32.0518 432.899 30.5317 432.92 29.0001C432.898 27.4676 433.186 25.9464 433.768 24.5285C434.35 23.1106 435.214 21.8255 436.306 20.7506C437.399 19.6758 438.698 18.8335 440.125 18.2749C441.552 17.7162 443.078 17.4526 444.61 17.5001V18.0901C438.17 18.0901 433.51 22.6801 433.51 29.0001C433.51 35.3201 438.17 39.9101 444.61 39.9101C447.133 40.0121 449.603 39.1683 451.536 37.5442C453.469 35.9201 454.726 33.6326 455.06 31.1301H450.13C449.878 32.4007 449.181 33.5395 448.163 34.3409C447.145 35.1423 445.874 35.5534 444.58 35.5001C443.735 35.5122 442.896 35.3505 442.115 35.0249C441.335 34.6993 440.63 34.2167 440.044 33.6072C439.458 32.9977 439.003 32.2742 438.708 31.4816C438.413 30.6891 438.285 29.8444 438.33 29.0001C438.285 28.1557 438.413 27.311 438.708 26.5185C439.003 25.726 439.458 25.0025 440.044 24.3929C440.63 23.7834 441.335 23.3009 442.115 22.9753C442.896 22.6496 443.735 22.4879 444.58 22.5001V23.0901C441.24 23.0901 438.92 25.5201 438.92 29.0001C438.92 32.4801 441.24 34.9101 444.58 34.9101C445.778 34.9599 446.951 34.5644 447.875 33.7999C448.798 33.0354 449.406 31.9561 449.58 30.7701V30.5401H455.66V30.8701C455.383 33.5764 454.087 36.076 452.035 37.8623C449.983 39.6486 447.329 40.588 444.61 40.4901Z" fill="#25282B"/>
<path d="M467.15 40.49C462.67 40.49 457.69 38.4 457.15 32.56L457.73 32.51C458.25 37.96 462.94 39.9 467.16 39.9C472.4 39.9 475.79 37.27 475.79 33.2C475.79 30.02 473.92 28.26 469.53 27.31L466.53 26.62C465.07 26.32 463.71 25.82 463.71 24.21C463.71 22.6 465.02 21.7 467.13 21.7C468.013 21.6145 468.895 21.8674 469.599 22.4076C470.302 22.9478 470.775 23.735 470.92 24.61H475.73C474.96 18.53 468.73 18.04 466.85 18.04C461.85 18.04 458.6 20.69 458.6 24.78C458.6 28.02 460.45 29.86 464.6 30.78L468.15 31.54C469.83 31.85 470.66 32.54 470.66 33.72C470.66 35.12 469.38 35.98 467.32 35.98C464.72 35.98 462.93 34.72 462.54 32.61L463.12 32.5C463.45 34.31 465.02 35.39 467.32 35.39C469.02 35.39 470.07 34.75 470.07 33.72C470.07 33.2 469.86 32.45 468.07 32.11L464.52 31.35C460.1 30.4 458.05 28.35 458.05 24.8C458.05 20.42 461.6 17.48 466.89 17.48C468.96 17.48 475.75 18.01 476.39 24.9V25.22H470.44V24.98C470.357 24.1958 469.968 23.476 469.358 22.9763C468.748 22.4766 467.965 22.2372 467.18 22.31C465.41 22.31 464.35 23.02 464.35 24.23C464.35 25.23 464.98 25.71 466.7 26.06L469.7 26.76C472.82 27.43 476.42 28.76 476.42 33.22C476.42 37.68 472.75 40.49 467.15 40.49Z" fill="#25282B"/>
<path d="M57.91 26.52C56 10.78 43.87 4.07001 38.31 1.81001C36.8421 1.20683 35.3132 0.764252 33.75 0.490014C10.36 -3.38999 0.430002 17 0.430002 17L3.12 18.6C-5.49 37.08 6 49.87 10.51 54C11.4361 54.8379 12.4408 55.5847 13.51 56.23C32.94 67.91 48.34 53.57 48.34 53.57C52.1499 50.2829 55.0365 46.0589 56.7148 41.315C58.3931 36.5712 58.8051 31.4717 57.91 26.52ZM9.13 29.67C6.74 34.4 7.29 38.67 7.13 39.81C6.97 40.95 6.21 39.81 6.21 39.81C4.79 37.41 5.21 31.81 5.21 31.81C5.7 29.04 7.21 24.81 8.58 23.46C9.95 22.11 10.86 20.09 15.95 17.62C21.04 15.15 26.2 15.53 31.07 17.62C35.94 19.71 39.61 25.04 39.98 27.27C40.35 29.5 38.76 27.51 38.76 27.51C38.76 27.51 38.81 26.97 34.65 23.71C32.6787 22.1914 30.3958 21.1278 27.965 20.5953C25.5342 20.0628 23.0157 20.0746 20.59 20.63C18.1598 21.2655 15.8873 22.3966 13.9152 23.9523C11.943 25.508 10.3139 27.4546 9.13 29.67ZM35 40.79C29.41 47.12 23.88 42.45 23.88 42.45C18.36 38.45 21.68 32.19 21.68 32.19C25.24 27.52 28.92 28.09 30.82 28.86C31.6069 29.1876 32.3133 29.6824 32.89 30.31C36.89 34.76 32.99 39.31 32.99 39.31L35 40.79ZM52.21 39.19C52.21 39.19 46.3 57.24 27.13 55.28C27.13 55.28 14.49 53.44 12.39 40.05C12.39 40.05 10.55 33.17 18.6 27.05C18.6 27.05 19.09 26.71 18.9 27.5C18.71 28.29 16.41 29 15.49 35.74C14.57 42.48 20.27 46.56 21.74 47.57C23.21 48.58 32.49 52.27 39.44 45.5C41.4755 43.4947 43.047 41.0677 44.0439 38.3899C45.0407 35.712 45.4388 32.8482 45.21 30C45.21 30 45.08 22 37.1 15.53C29.12 9.06001 19.27 11.1 19.27 11.1C19.27 11.1 15.27 11.64 9.12 15.68C9.07207 15.7112 9.0312 15.7521 9 15.8C8.87841 15.9738 8.69813 16.0979 8.49233 16.1493C8.28654 16.2008 8.06909 16.1762 7.88 16.08C7.88 16.08 7.37 15.7 8.2 14.85C9.03 14 9.44 13.5 9.44 13.5C9.44 13.5 20.16 -0.679986 39.35 8.09001C39.812 8.29762 40.2568 8.54172 40.68 8.82001C44.23 11 58.12 21.09 52.2 39.19H52.21Z" fill="#25282B"/>
<path d="M67.33 17.87H72.41V32.48C72.41 32.48 73.13 36 76.51 36C77.5287 36.0327 78.5266 35.7075 79.3304 35.0808C80.1343 34.4542 80.6931 33.5658 80.91 32.57V17.85H85.91V32.23C85.91 32.43 85.91 32.63 85.91 32.83C85.71 34.43 84.41 40.53 76.68 40.53C69.48 40.53 67.87 35.41 67.52 33.46C67.4512 33.0772 67.4177 32.6889 67.42 32.3V17.87H67.33Z" fill="#25282B"/>
<path d="M99.92 28.6C99.92 28.6 102.62 27.43 102.62 23.35C102.62 19.27 97.92 17.85 95.74 17.85H88.12C88.12 17.85 87.86 40.58 88.12 40.58H96.87C97.2514 40.577 97.631 40.5266 98 40.43C99.58 40.01 103.45 38.53 103.45 34.21C103.47 28.8 99.92 28.6 99.92 28.6ZM92.92 22.12C92.92 22.12 94.45 22.07 95.92 22.07C96.4946 22.1205 97.0287 22.3869 97.4147 22.8156C97.8007 23.2442 98.0098 23.8032 98 24.38C97.9878 24.7378 97.8908 25.0875 97.7169 25.4005C97.5431 25.7134 97.2973 25.9806 97 26.18C96.5806 26.4727 96.0815 26.6298 95.57 26.63H92.87L92.92 22.12ZM96.12 36.33H92.92V31C92.92 31 94.75 30.93 96.47 30.93C97.1542 30.9905 97.7902 31.3077 98.2502 31.8178C98.7103 32.3279 98.9603 32.9932 98.95 33.68C98.9452 34.0994 98.8401 34.5116 98.6435 34.8821C98.4469 35.2526 98.1646 35.5708 97.82 35.81C97.3105 36.1569 96.7064 36.3385 96.09 36.33H96.12Z" fill="#25282B"/>
<path d="M110.32 17.87H105.27V40.56H110.32V17.87Z" fill="#25282B"/>
<path d="M111.7 36L115.58 32.94C115.58 32.94 117.13 36.25 120.06 36.25C120.436 36.2653 120.811 36.1991 121.159 36.056C121.507 35.9128 121.82 35.6961 122.077 35.4206C122.333 35.1452 122.527 34.8175 122.645 34.4601C122.763 34.1027 122.802 33.724 122.76 33.35C122.76 33.35 122.83 31.87 119.01 30.69C115.19 29.51 112.73 27.09 112.9 24.27C113.07 21.45 115.03 18.44 117.9 17.91C120.77 17.38 124.45 17.46 127.22 21.59L123.42 24.37C123.098 23.5906 122.537 22.933 121.819 22.4912C121.101 22.0494 120.261 21.846 119.42 21.91C116.49 22.19 117.04 24.62 117.82 25.39C118.6 26.16 122.14 27.39 122.97 27.69L123.62 27.94C124.44 28.34 127.37 30.02 127.52 32.37C127.72 35.17 127.8 37.75 123.64 39.82C119.48 41.89 114.13 39.88 111.7 36Z" fill="#25282B"/>
<path d="M167.35 31.4501H157.97V40.5601H153.3V17.9501H168.33V22.7701H158.03V27.5801H167.35" fill="#25282B"/>
<path d="M176.21 40.5601V22.8801H170.06V17.9501H187.37V22.8801H181.39V40.5601H176.63H176.21Z" fill="#25282B"/>
<path d="M140.57 17.42C139.019 17.4133 137.483 17.7179 136.052 18.3156C134.621 18.9134 133.325 19.7922 132.24 20.9L132.89 21.55C131.401 23.0371 130.332 24.8915 129.791 26.9253C129.25 28.959 129.256 31.0997 129.81 33.13C129.908 33.4766 130.042 33.8118 130.21 34.13C131.195 36.0262 132.682 37.615 134.509 38.7226C136.337 39.8302 138.433 40.414 140.57 40.41C143.501 40.4118 146.317 39.2749 148.426 37.2394C150.534 35.2039 151.769 32.4289 151.87 29.5C151.87 29.3 151.87 29.13 151.87 28.93C151.894 27.4296 151.619 25.9394 151.063 24.5459C150.506 23.1524 149.678 21.8834 148.626 20.8126C147.575 19.7417 146.322 18.8904 144.939 18.308C143.556 17.7257 142.071 17.4238 140.57 17.42ZM140.84 36.06C140.064 36.128 139.283 36.0842 138.52 35.93C137.449 35.7019 136.466 35.1734 135.685 34.4066C134.904 33.6397 134.358 32.6662 134.11 31.6C133.983 31.0591 133.916 30.5057 133.91 29.95C133.911 28.9921 134.106 28.0443 134.484 27.1641C134.862 26.284 135.416 25.4899 136.11 24.83L135.46 24.1C136.056 23.4752 136.77 22.9762 137.562 22.6326C138.354 22.2891 139.207 22.108 140.07 22.1C141.095 22.0533 142.118 22.2386 143.061 22.642C144.005 23.0454 144.845 23.6566 145.52 24.43C146.127 25.1552 146.579 25.9967 146.849 26.9029C147.119 27.8091 147.201 28.761 147.09 29.7C146.939 31.3173 146.235 32.8331 145.096 33.9916C143.958 35.1502 142.454 35.8807 140.84 36.06Z" fill="#25282B"/>
<path d="M212.37 14.75L241.37 43.75" stroke="#25282B" stroke-miterlimit="10"/>
<path d="M241.37 14.75L212.37 43.75" stroke="#25282B" stroke-miterlimit="10"/>
</g>
<defs>
<clipPath id="clip0_28:4223">
<rect width="476.37" height="60.79" fill="white"/>
</clipPath>
</defs>
</svg>
