<svg width="50" height="47" viewBox="0 0 50 47" fill="none" xmlns="http://www.w3.org/2000/svg">
<path d="M39.9598 3.91362C37.9136 5.65972 36.1539 7.17391 36.0448 7.2694C35.9084 7.41946 35.7992 8.11517 35.6901 9.58844C35.5946 10.748 35.4855 11.7711 35.4445 11.8666C35.4036 11.9484 34.4487 12.8214 33.3301 13.8036L31.2976 15.577L30.179 14.5266C24.5587 9.20648 15.7327 7.84234 8.92569 11.239C6.41568 12.4941 4.16485 14.322 2.48696 16.4773C1.55935 17.6505 0.372547 19.5057 0.372547 19.7513C0.372547 19.8331 0.536244 19.9968 0.754506 20.1332C0.959127 20.256 1.25924 20.4743 1.43658 20.6107L1.75033 20.8562L1.34109 21.8384C1.12282 22.3704 0.781789 23.4344 0.590809 24.1847C-0.718763 29.3548 0.167927 34.5522 3.0599 38.9038C4.09665 40.4452 6.40204 42.7506 7.88895 43.7328C14.1776 47.8934 22.0351 47.8525 28.3374 43.651C29.6197 42.7916 32.157 40.2543 33.0164 38.9583C34.326 36.9803 35.2808 34.7159 35.7992 32.3423C36.1403 30.7462 36.1403 26.531 35.7856 24.7986C35.4309 22.957 34.6943 20.8699 33.8894 19.342L33.1801 17.9779L35.3218 16.0954L37.4771 14.2129L39.687 14.4038L41.9106 14.5948L45.9348 11.2527C48.1447 9.42474 49.9726 7.88327 49.9999 7.8287C50.0135 7.77414 48.6085 7.62408 46.8624 7.48767C45.1163 7.35125 43.6294 7.18756 43.5748 7.13299C43.5202 7.09207 43.5612 5.8507 43.6839 4.39107C43.9158 1.40361 43.9295 0.72154 43.7931 0.735181C43.7249 0.735181 42.006 2.16753 39.9598 3.91362ZM40.3691 8.76996L40.3009 9.99768H40.9829C41.3649 9.99768 41.856 10.0386 42.0879 10.0795L42.5108 10.1614L41.7059 10.8298L40.9147 11.4982L39.7416 11.4164L38.5684 11.3209L38.5821 10.8298C38.5957 10.557 38.6366 10.0113 38.6776 9.62936C38.773 8.96094 38.8276 8.86545 39.5915 8.2243C40.028 7.85598 40.41 7.54223 40.4236 7.54223C40.4373 7.54223 40.41 8.08789 40.3691 8.76996ZM20.0571 12.9442C22.1988 13.3535 24.5587 14.3629 26.373 15.6725C27.3961 16.3955 28.7739 17.6369 28.7193 17.7869C28.6648 17.9097 26.032 20.2287 25.9365 20.2287C25.8956 20.2287 25.5136 19.9559 25.0907 19.6285C19.8252 15.5497 12.1723 16.8047 8.48917 22.3568C7.13867 24.3893 6.57938 26.531 6.67487 29.2184C6.72943 30.678 6.81128 31.1282 7.1796 32.2331C7.92987 34.4703 9.18488 36.2846 10.9173 37.6351C14.9143 40.759 20.248 40.9636 24.4632 38.1671C26.7823 36.6257 28.4192 34.2793 29.1695 31.4829C29.3878 30.6507 29.456 29.996 29.456 28.6864C29.456 26.7084 29.1831 25.4534 28.3783 23.7209L27.8599 22.6432L28.6102 21.9748C29.0195 21.6065 29.647 21.0472 30.0016 20.7607L30.6428 20.2151L30.8474 20.5288C31.3521 21.3064 32.2115 23.3526 32.5253 24.5667C32.9891 26.3673 33.0982 29.273 32.7845 31.1418C32.1979 34.5112 30.7519 37.2259 28.2828 39.6268C26.4139 41.4411 24.0267 42.7916 21.4348 43.5146C20.2071 43.8556 19.8661 43.8965 17.7653 43.8965C15.76 43.8965 15.2962 43.8556 14.2868 43.5828C9.03483 42.1504 4.57409 37.4169 3.42822 32.0967C3.10082 30.5962 3.10082 27.7997 3.41458 26.3946C3.60556 25.5761 4.19213 23.8846 4.65594 22.7933C4.73779 22.616 4.58773 22.4523 4.00116 22.0703L3.25088 21.5656L3.60556 20.9926C5.46078 18.0597 6.79764 16.491 8.47553 15.3451C10.6854 13.8036 12.9772 12.9988 15.9237 12.6714C16.7149 12.5895 18.9248 12.726 20.0571 12.9442ZM19.9479 20.4333C20.971 20.6925 22.8535 21.6065 23.2628 22.0294L23.5629 22.3568L20.0161 25.467L16.4694 28.5772L16.8377 29.0138C17.0287 29.2457 17.4788 29.764 17.8335 30.146L18.461 30.869L21.9669 27.7997C23.8903 26.1082 25.4863 24.7304 25.5273 24.7304C25.6091 24.7304 26.1138 26.0672 26.3048 26.7766C26.5913 27.827 26.5231 29.8323 26.1684 31.0054C25.3499 33.72 23.1809 35.93 20.4936 36.7757C19.1158 37.2122 16.9195 37.1986 15.5827 36.7621C14.1503 36.2846 13.2364 35.7117 12.0905 34.5658C10.4262 32.9016 9.64869 31.06 9.64869 28.7C9.64869 27.2131 9.89423 26.1354 10.5354 24.8804C11.6403 22.7251 13.7002 21.0608 16.0601 20.447C17.056 20.1878 18.9385 20.1742 19.9479 20.4333Z" fill="black"/>
</svg>
