<svg width="40" height="42" viewBox="0 0 40 42" fill="none" xmlns="http://www.w3.org/2000/svg">
<g clip-path="url(#clip0)">
<path d="M40 41.4408V19.0964H36.7821L36.7605 9.48137H33.5814L33.5598 -0.00854492H0V2.14825H2.89874V22.3359H5.15475V31.8258H7.46684V41.4408H40ZM31.4461 20.1877H5.05554V2.15688H31.4073L31.4461 20.1877ZM33.6029 11.6382H34.6253L34.6641 29.6733H7.31155V22.3402H33.6245L33.6029 11.6382ZM36.8036 21.2532H37.8561V39.2883H9.61932V31.8258H36.795L36.8036 21.2532ZM14.1443 8.48062C13.9421 8.12967 13.6424 7.84496 13.2816 7.66103C12.8693 7.45633 12.4131 7.35563 11.953 7.36771H9.2958V14.9769H10.9479V12.0221H11.9487C12.4086 12.0321 12.8643 11.9315 13.2773 11.7288C13.6383 11.5431 13.9379 11.2569 14.14 10.9049C14.3408 10.5324 14.446 10.1159 14.446 9.69274C14.446 9.26958 14.3408 8.85306 14.14 8.48062H14.1443ZM12.5914 10.3355C12.4113 10.4919 12.1784 10.5736 11.94 10.5641H10.9479V8.83865H11.94C12.1778 8.8279 12.4107 8.9081 12.5914 9.06295C12.7551 9.23863 12.8462 9.46984 12.8462 9.70999C12.8462 9.95014 12.7551 10.1814 12.5914 10.357V10.3355ZM20.1488 8.48062C19.9461 8.13013 19.6465 7.84557 19.2861 7.66103C18.8753 7.45635 18.4206 7.35563 17.9618 7.36771H15.3003V14.9769H16.9524V12.0221H17.9532C18.4118 12.0321 18.866 11.9315 19.2775 11.7288C19.6382 11.5427 19.9377 11.2566 20.1402 10.9049C20.3381 10.5315 20.4416 10.1153 20.4416 9.69274C20.4416 9.27015 20.3381 8.85399 20.1402 8.48062H20.1488ZM18.5916 10.3355C18.5021 10.4191 18.3969 10.4842 18.2822 10.5271C18.1675 10.5701 18.0454 10.5899 17.923 10.5857H16.9524V8.86021H17.923C18.1609 8.84858 18.3941 8.9289 18.5744 9.08452C18.7381 9.26019 18.8291 9.49141 18.8291 9.73156C18.8291 9.97171 18.7381 10.2029 18.5744 10.3786L18.5916 10.3355ZM27.2188 8.93354H25.0879V14.9726H23.4315V8.93354H21.2747V7.36771H27.2016L27.2188 8.93354Z" fill="black"/>
</g>
<defs>
<clipPath id="clip0">
<rect width="40" height="41.4407" fill="white"/>
</clipPath>
</defs>
</svg>
