<svg width="50" height="37" viewBox="0 0 50 37" fill="none" xmlns="http://www.w3.org/2000/svg">
<path d="M9.80114 1.27837V2.55678H4.90057H0V4.04826V5.53974H1.98864H3.97727V20.8806V36.2216H26.9886H50V19.3892V2.55678H47.1591H44.3182V1.27837V-3.43714e-05H42.7557H41.1932V1.27837V2.55678H37.571H33.9489V1.27837V-3.43714e-05H32.3864H30.8239V1.27837V2.55678H27.1307H23.4375V1.27837V-3.43714e-05H21.875H20.3125V1.27837V2.55678H16.6193H12.9261V1.27837V-3.43714e-05H11.3636H9.80114V1.27837ZM9.80114 6.74712V7.95451H11.3636H12.9261V6.74712V5.53974H16.6193H20.3125V6.74712V7.95451H21.875H23.4375V6.74712V5.53974H27.1307H30.8239V6.74712V7.95451H32.3864H33.9489V6.74712V5.53974H37.571H41.1932V6.74712V7.95451H42.7557H44.3182V6.74712V5.53974H45.5966H46.875V19.3181V33.0966H26.9886H7.10227V19.3181V5.53974H8.4517H9.80114V6.74712Z" fill="black"/>
<path d="M13.6364 12.713V14.2045H26.9886H40.3409V12.713V11.2215H26.9886H13.6364V12.713Z" fill="black"/>
<path d="M13.6364 20.4545V23.1533H16.3352H19.0341V20.4545V17.7556H16.3352H13.6364V20.4545Z" fill="black"/>
<path d="M24.2898 20.4545V23.1533H27.0597H29.8296V20.4545V17.7556H27.0597H24.2898V20.4545Z" fill="black"/>
<path d="M34.9432 20.4545V23.1533H37.6421H40.341V20.4545V17.7556H37.6421H34.9432V20.4545Z" fill="black"/>
<path d="M13.6364 27.6988V30.3977H16.3352H19.0341V27.6988V25H16.3352H13.6364V27.6988Z" fill="black"/>
<path d="M24.2898 27.6988V30.3977H27.0597H29.8296V27.6988V25H27.0597H24.2898V27.6988Z" fill="black"/>
<path d="M34.9432 27.6988V30.3977H37.6421H40.341V27.6988V25H37.6421H34.9432V27.6988Z" fill="black"/>
</svg>
