<svg width="51" height="55" viewBox="0 0 51 55" fill="none" xmlns="http://www.w3.org/2000/svg">
<path d="M0.719894 0.284217C0.678894 0.393548 0.678894 1.04954 0.692561 1.76019L0.73356 3.04484L2.61953 3.08583L4.49183 3.12683V24.8428V46.5724H9.95841H15.425V50.7407V54.9089H33.0547H50.6844L50.6571 31.7033L50.6161 8.51141L45.1905 8.47041L39.7512 8.44308V4.27481V0.106553H20.2766C4.23217 0.106553 0.774559 0.133886 0.719894 0.284217ZM36.8813 23.4078V43.7025H22.1899H7.49845V23.4078V3.11317H22.1899H36.8813V23.4078ZM47.7188 13.1853C47.7734 14.1556 47.8144 23.2848 47.8144 33.48V52.039H33.0547H18.2949V49.3057V46.5724H29.0914H39.8879V45.6841V44.7958H42.7579H45.6278V43.3608V41.9258H42.7579H39.8879V40.6958V39.4659H42.7579H45.6278V38.0309V36.5959H42.7579H39.8879V35.4343V34.2726H42.7579H45.6278V32.7693V31.266H42.7579H39.8879V30.1044V28.9427H42.7579H45.6278V27.4394V25.9361H42.7715C39.5052 25.9361 39.7512 26.0454 39.7512 24.5558V23.6128H42.6895H45.6278V22.1095V20.6062H42.6895H39.7512V19.4446V18.2829H42.6895H45.6278V16.7796V15.2763H42.6895H39.7512V13.363V11.4497H43.6872H47.6368L47.7188 13.1853Z" fill="black"/>
<path d="M12.6644 17.9687C12.9241 19.0893 13.7577 22.6016 14.5231 25.7995L15.9034 31.6077H18.2267H20.5363L21.5339 26.6878C22.0669 23.9819 22.5179 21.7542 22.5316 21.7269C22.5316 21.7132 22.5863 21.6996 22.6409 21.6996C22.7093 21.6996 23.2149 23.9409 23.7752 26.6878L24.7866 31.676H27.0689C29.1188 31.676 29.3512 31.6487 29.4195 31.43C29.5562 30.9927 33.0548 16.2194 33.0548 16.0827C33.0548 16.0144 32.2484 15.9597 31.1415 15.9597C30.0891 15.9597 29.2282 16.0007 29.2282 16.069C29.2282 16.1237 28.7908 18.2147 28.2715 20.7293C27.7385 23.2302 27.2739 25.7038 27.2329 26.2231C27.0825 27.7264 26.9049 27.5898 26.6862 25.7995C26.6452 25.3895 26.1805 23.2029 25.6749 20.9479C25.1692 18.693 24.7046 16.643 24.6499 16.397L24.5542 15.9597H22.5999C20.6866 15.9597 20.6456 15.9597 20.5773 16.2604C20.222 17.709 18.5683 25.9088 18.5 26.5101C18.4453 26.9475 18.3633 27.3028 18.3087 27.3028C18.2403 27.3028 18.1583 26.8928 18.1037 26.3735C18.049 25.8678 17.5433 23.3259 16.9694 20.7019L15.917 15.9597H14.0447H12.1861L12.6644 17.9687Z" fill="black"/>
<path d="M20.0716 48.9642V50.3992H32.8497H45.6278V48.9642V47.5292H32.8497H20.0716V48.9642Z" fill="black"/>
</svg>
