<svg width="15" height="19" viewBox="0 0 15 19" fill="none" xmlns="http://www.w3.org/2000/svg">
<g clip-path="url(#clip0)">
<path d="M14.5894 3.74581C13.6885 3.77095 12.6285 3.95531 11.7528 3.72067C11.183 3.56564 11.2039 2.94553 11.1704 2.44693C11.1201 1.73045 11.0866 1.00559 11.1453 0.289108C11.1578 0.15084 11.0154 0.0209518 10.8855 0.0293317C9.31425 0.083801 7.74302 0.079611 6.1676 0.0670412C5.40084 0.0586613 4.62989 0.0502814 3.86313 0.0419015C3.09637 0.0335216 2.28352 -0.0502772 1.52514 0.0460915C0.766762 0.14246 0.238829 0.653633 0.15503 1.4162C0.0335216 2.56844 0.0628512 3.75419 0.0419014 4.91062C-0.00418795 7.44553 1.9913e-06 9.97626 0.00838188 12.5112C0.0125718 13.5042 0.0167618 14.4972 0.0167618 15.4902C0.0167618 16.1103 -0.0796069 16.8059 0.209499 17.3799C0.657823 18.264 1.66341 18.3268 2.5433 18.3017C3.72486 18.2682 4.90643 18.2472 6.08799 18.2304C8.40922 18.2053 10.7221 18.2682 13.0391 18.3603C15.0293 18.4399 14.8869 16.2905 14.8869 14.8408C14.8869 12.8003 14.9288 10.7556 14.9581 8.71509C14.9707 7.68017 14.9874 6.64525 14.9832 5.60615C14.9832 5.1243 15.0503 4.53771 14.8994 4.07263C14.6439 3.26397 13.6969 2.56425 13.102 2.01537C12.4274 1.39525 11.6313 0.821231 11.0615 0.100561C10.852 -0.163406 10.4832 0.209499 10.6927 0.469276C11.6899 1.72626 13.1732 2.54749 14.1578 3.82961C14.4469 4.20671 14.4427 4.44553 14.4511 4.90643C14.4679 5.57263 14.4595 6.23883 14.4553 6.90503C14.4385 8.85754 14.3966 10.8101 14.3757 12.7626C14.3673 13.6173 14.3589 14.4721 14.3631 15.3268C14.3673 16.014 14.514 17.3296 13.7682 17.7277C13.2109 18.0251 12.2849 17.7779 11.6899 17.757C10.5629 17.7109 9.43157 17.6983 8.30028 17.6941C7.10196 17.6899 5.90782 17.7025 4.71369 17.7235C4.19833 17.7318 3.68715 17.7444 3.17179 17.757C2.64805 17.7696 2.09078 17.845 1.57542 17.7402C0.766762 17.581 0.532125 16.9986 0.536315 16.257C0.540505 15.486 0.540505 14.7151 0.540505 13.9441C0.532125 11.7025 0.523745 9.4609 0.540505 7.21509C0.548885 5.88268 0.569834 4.54609 0.611734 3.21369C0.628494 2.63548 0.607544 2.02793 0.682963 1.45391C0.724862 1.09358 0.89665 0.791901 1.25699 0.645253C1.89386 0.389667 2.80307 0.553075 3.48185 0.557265C4.31145 0.565645 5.14106 0.574024 5.97067 0.582404C7.60894 0.599164 9.24302 0.603354 10.8813 0.544695C10.7933 0.456706 10.7053 0.368717 10.6215 0.280728C10.5545 1.11034 10.6047 1.95252 10.676 2.78212C10.7221 3.33939 10.8268 3.86313 11.3673 4.13548C11.8115 4.35754 12.4483 4.30726 12.9302 4.30726C13.4832 4.30726 14.0363 4.27794 14.5936 4.26118C14.9246 4.25699 14.9246 3.73324 14.5894 3.74581Z" fill="black"/>
</g>
<defs>
<clipPath id="clip0">
<rect width="15" height="18.3645" fill="white"/>
</clipPath>
</defs>
</svg>
