<svg width="50" height="52" viewBox="0 0 50 52" fill="none" xmlns="http://www.w3.org/2000/svg">
<path d="M20.6791 0.107627C12.8741 1.09811 6.47553 5.09968 1.93911 11.835C0.433571 14.0933 0.354332 14.3508 1.04767 14.8659C2.51359 15.9158 2.43435 15.6979 1.78063 17.3421C-0.497485 23.1067 -0.596533 29.7628 1.52311 35.5274C4.59361 43.9267 12.0223 50.0677 20.9366 51.5336C23.8486 52.0091 28.2068 51.8308 30.9801 51.1374C40.2709 48.8197 47.4618 41.4505 49.4626 32.1994C50.77 26.1574 49.6409 18.5108 46.6298 13.2217C42.8462 6.56559 36.2495 1.8905 28.5039 0.424582C26.4833 0.0481974 22.5016 -0.13009 20.6791 0.107627ZM27.8502 4.96101C37.973 7.08064 45.1441 15.3215 45.6393 25.365C45.8968 30.4165 44.3319 35.5868 41.3604 39.4497C39.5577 41.7674 36.5071 44.3229 34.0308 45.5709C24.8788 50.2064 14.7758 47.8292 8.55555 39.5488C4.21723 33.7643 3.16731 27.0092 5.64352 20.6107C6.01991 19.6202 6.37648 18.6891 6.4161 18.5108C6.49534 18.2929 6.21801 17.9958 5.52467 17.56C4.35589 16.8072 4.27665 17.0846 6.35667 13.9744C8.63479 10.5672 10.7346 8.60599 13.8844 6.94198C18.1236 4.68367 23.1949 3.97052 27.8502 4.96101Z" fill="black"/>
<path d="M22.462 15.8763C21.6101 16.1734 20.4612 16.9658 19.9065 17.6195C19.4905 18.1148 18.7774 19.4222 18.7774 19.6996C18.7774 19.7986 19.4707 20.2938 20.3225 20.7693L21.8479 21.6805L22.145 21.2447C23.0166 19.9769 23.6505 19.4817 24.542 19.3826C25.6315 19.2637 26.1862 19.5213 26.622 20.3533C27.1371 21.3438 26.8597 22.0965 25.3344 23.7209C23.5713 25.6029 23.3336 26.0981 23.3336 27.8413V29.228H25.2155H27.0974V28.3168C27.0974 27.4452 27.1767 27.3461 28.7615 25.7019C30.683 23.6813 31.0198 23.1068 31.1782 21.5419C31.4556 18.9864 30.1679 16.8668 27.8106 15.9753C26.4635 15.4801 23.6902 15.4207 22.462 15.8763Z" fill="black"/>
<path d="M24.225 31.7041C23.2742 32.2191 22.9374 32.7738 22.9374 33.9227C22.9374 35.2896 23.6109 36.1216 24.8589 36.2999C26.5626 36.5178 27.6917 35.5868 27.6917 33.9624C27.6917 33.1304 27.5927 32.8728 27.0578 32.2983C26.2654 31.4663 25.1363 31.2286 24.225 31.7041Z" fill="black"/>
</svg>
