<svg width="50" height="61" viewBox="0 0 50 61" fill="none" xmlns="http://www.w3.org/2000/svg">
<path d="M0 2.18247V4.36501H2.77778H5.55556V32.3412V60.3174H27.7778H50V30.1587V-7.39098e-05H25H0V2.18247ZM45.6349 30.1587V55.9523H27.7778H9.92064V30.1587V4.36501H27.7778H45.6349V30.1587Z" fill="black"/>
<path d="M13.2937 15.0793V17.2618H27.7778H42.262V15.0793V12.8968H27.7778H13.2937V15.0793Z" fill="black"/>
<path d="M13.2937 22.619V24.8015H27.7778H42.262V22.619V20.4364H27.7778H13.2937V22.619Z" fill="black"/>
<path d="M13.2937 30.0595V32.1428H27.7778H42.262V30.0595V27.9762H27.7778H13.2937V30.0595Z" fill="black"/>
<path d="M13.2937 37.5V39.6825H27.7778H42.262V37.5V35.3174H27.7778H13.2937V37.5Z" fill="black"/>
<path d="M13.2937 45.0396V47.2222H20.5358H27.7778V45.0396V42.8571H20.5358H13.2937V45.0396Z" fill="black"/>
</svg>
