<svg width="50" height="59" viewBox="0 0 50 59" fill="none" xmlns="http://www.w3.org/2000/svg">
<path d="M16.8693 1.59572V3.19146H18.997H21.1246V13.1459V23.1003H24.3921C26.1854 23.1003 27.6596 23.1307 27.6596 23.1611C27.6596 23.1915 27.5228 23.5258 27.3556 23.9058C27.0669 24.544 26.7781 24.7872 24.0122 26.6717C22.3556 27.7963 20.9271 28.7234 20.8511 28.7234C20.7903 28.7234 20.0304 27.7051 19.1945 26.4741C18.3435 25.2279 17.5532 24.1337 17.4316 24.0425C17.2644 23.9058 15.6839 23.8602 11.1702 23.8906L5.12158 23.9361L2.56839 27.6596C1.15502 29.7112 0 31.4285 0 31.4893C0 31.5349 1.17021 33.2675 2.58359 35.3495L5.16717 39.1033V48.5866V58.0547H6.76292H8.35866V49.924V41.7933H11.3222H14.2857V49.924V58.0547H15.8815H17.4772L17.5076 43.9209L17.5532 29.7872L18.7538 31.5349C19.4073 32.4924 19.9696 33.2827 19.9848 33.2827C20.0152 33.2827 21.0182 32.614 22.2188 31.7781C23.4195 30.9574 24.4073 30.3191 24.4225 30.3799C24.4529 30.4255 23.6474 32.31 22.6596 34.5744C21.6565 36.8237 20.8815 38.7234 20.9422 38.7842C21.0638 38.9058 23.5258 39.9696 23.693 39.9696C23.7538 39.9696 25.4711 36.1702 27.5228 31.5349L31.231 23.1003H40.6231H50V11.5501V-2.44491e-05H33.4347H16.8693V1.59572ZM46.8085 11.4741V19.7568H39.7568H32.7052L34.5897 15.5015C35.6231 13.1459 36.4742 11.1854 36.4742 11.1246C36.4742 11.0334 34.0274 9.89359 33.6626 9.8176C33.617 9.8176 32.5988 12.0213 31.3982 14.7416L29.2249 19.6808L26.8389 19.7264L24.4681 19.772V11.4741V3.19146H35.6383H46.8085V11.4741ZM14.2857 32.9027V38.6018H11.3222H8.35866V32.9027V27.2036H11.3222H14.2857V32.9027ZM5.13678 32.386L5.09119 33.3282L4.52888 32.4772C4.20973 32.0061 3.95137 31.5653 3.95137 31.5045C3.95137 31.4285 4.20973 31.003 4.52888 30.5471L5.09119 29.7112L5.13678 30.5775C5.16717 31.0638 5.16717 31.8693 5.13678 32.386Z" fill="black"/>
<path d="M8.55623 11.5501C7.55319 11.8997 7.05167 12.2644 6.17021 13.2371C5.45593 14.0425 5.31915 14.3921 5.68389 14.5289C5.85106 14.5896 5.85106 14.7112 5.66869 15.2431C5.34954 16.1398 5.47112 18.0851 5.89666 19.0273C6.30699 19.9544 7.4772 21.2158 8.35866 21.6565C10.5015 22.7355 12.9331 22.3404 14.6505 20.6383C16.1398 19.1337 16.5957 16.8541 15.8055 14.8176C15.3191 13.5562 13.7994 12.0365 12.5684 11.5805C11.4286 11.155 9.68085 11.1398 8.55623 11.5501ZM11.6413 14.6808C12.7508 15.2127 13.2675 16.9757 12.614 18.0395C12.0061 19.0577 10.4559 19.3313 9.57447 18.6018C8.89058 18.0243 8.61702 17.4012 8.70821 16.6261C8.7538 16.1702 8.70821 15.9118 8.55623 15.7902C8.38906 15.6383 8.38906 15.5623 8.61702 15.3039C9.3769 14.4529 10.6079 14.1945 11.6413 14.6808Z" fill="black"/>
</svg>
