<svg width="50" height="57" viewBox="0 0 50 57" fill="none" xmlns="http://www.w3.org/2000/svg">
<path d="M6.20691 1.91379V3.72414H8.6207H11.0345V12.9483V22.1724H12.8448H14.6552V12.9483V3.72414H30.5173H46.3793V28.4655V53.2069H30.5173H14.6552V43.9828V34.7586H12.8448H11.0345V45.8793V57H30.5173H50V28.5517V0.103448H28.1035H6.20691V1.91379Z" fill="black"/>
<path d="M24.6897 20.8448L23.4483 22.0862L25.6207 24.3793L27.7931 26.6551H13.8966H0V28.5517V30.4482L13.8448 30.4655H27.6724L25.3621 32.6896L23.0517 34.9138L24.3103 36.2069C25 36.931 25.6379 37.5172 25.7241 37.5172C25.9483 37.5172 35.0172 28.862 34.9655 28.7069C34.8448 28.4138 26.3103 19.5862 26.1379 19.5862C26.0345 19.5862 25.3793 20.1551 24.6897 20.8448Z" fill="black"/>
</svg>
