<svg width="50" height="91" viewBox="0 0 50 91" fill="none" xmlns="http://www.w3.org/2000/svg">
<path d="M20.8657 0.421438C15.3996 1.58681 10.7658 6.05407 9.35073 11.5202C8.71255 13.9619 8.7403 42.2638 9.37848 44.7611C10.7381 50.0052 15.2331 54.417 20.5882 55.7766C22.9745 56.387 27.8025 56.2483 30.1609 55.5269C34.9334 54.0563 38.4295 50.8099 40.2886 46.0374L40.9823 44.2339L41.0655 28.8898C41.1487 11.9642 41.1487 11.9087 39.4007 8.30157C38.2353 5.88759 35.2664 2.94641 32.7414 1.6978C29.3563 0.0329806 24.8335 -0.438718 20.8657 0.421438ZM29.495 6.96972C32.5472 8.38481 34.6837 11.3815 34.9612 14.6001L35.0999 16.3482H31.1598H27.2475V19.2616V22.175H31.1321H35.0167V23.5624V24.9497H31.1321H27.2475V28.0019V31.0541H31.1321H35.0167V32.4414V33.8288H31.1321H27.2475V36.8809V39.9331H31.1598H35.0722L34.9612 41.5147C34.6837 45.4825 31.8258 48.7844 27.8025 49.811C21.5039 51.4203 15.5106 47.5913 15.0943 41.6534L14.9834 39.9331H18.8957H22.808V36.8809V33.8288H18.9234H15.0389V32.4414V31.0541H18.9234H22.808V28.0019V24.9497H18.9234H15.0389V23.5624V22.175H18.9234H22.808V19.2616V16.3482H18.9234H15.0389V14.9608C15.0389 11.2427 17.8135 7.77438 21.7814 6.47027C23.6959 5.83209 27.6082 6.08182 29.495 6.96972Z" fill="black"/>
<path d="M0.138735 37.3526C0.249723 45.5379 0.416204 46.4258 2.52497 50.8931C5.9101 58.0518 12.4861 63.1017 20.394 64.6278L21.9756 64.933V70.1495V75.3659L16.6482 80.2494L11.293 85.1328L7.49168 85.1606H3.6626V88.074V90.9874H24.1953C35.4883 90.9874 44.7281 90.9319 44.7281 90.8764C44.7281 90.7932 40.9822 87.2971 36.404 83.0795L28.0799 75.3936V70.1772V64.9608L30.2442 64.4891C35.2941 63.3792 39.4839 60.993 43.1188 57.1639C45.6715 54.4724 47.0866 52.2527 48.3352 49.034C49.6393 45.6767 50 42.8465 50 36.1595V30.2216H46.9478H43.8957V36.104C43.8957 43.1239 43.5905 44.8443 41.8424 48.3959C37.7913 56.609 28.3296 60.7987 19.7558 58.1905C16.5094 57.1916 14.2619 55.8043 11.7092 53.2516C9.79467 51.3648 9.101 50.4214 8.1576 48.5346C6.40954 44.9275 6.15982 43.5401 6.15982 36.3814V30.2216H3.07991H0L0.138735 37.3526ZM27.3862 83.135L29.5782 85.1606H25L20.4495 85.1328L22.6693 83.0795C23.8901 81.9419 24.9723 81.054 25.0555 81.0818C25.1387 81.1095 26.1931 82.0529 27.3862 83.135Z" fill="black"/>
</svg>
