<svg width="50" height="48" viewBox="0 0 50 48" fill="none" xmlns="http://www.w3.org/2000/svg">
<path d="M38.6532 0.865157L37.8046 1.71367L36.8563 1.4142C36.1575 1.19791 35.5752 1.148 34.6435 1.19791C32.4307 1.33101 32.2976 1.44747 25.4595 8.25225L19.3868 14.3083L20.6014 15.5062L21.7993 16.7208L27.7555 10.7812C31.0165 7.52019 33.8615 4.77499 34.0612 4.67517C34.2608 4.57534 34.5603 4.49215 34.7267 4.49215C34.9097 4.49215 29.2196 10.3153 20.2686 19.2497L5.51107 34.0239L2.69932 40.7621C1.13539 44.4723 -0.0791568 47.517 0.00403121 47.5502C0.0705816 47.5669 3.14854 46.3523 6.84208 44.8383L13.5637 42.0765L29.4027 26.2375L45.2583 10.3985L46.4728 11.613L47.6874 12.8109L48.8354 11.6463L50 10.4817L44.7592 5.24084L39.5183 2.19354e-06L38.6532 0.865157ZM37.9045 12.9274L32.9465 17.8854L31.2827 16.2217L29.6189 14.5579L34.5603 9.61653L39.5183 4.65853L41.1821 6.32229L42.8458 7.98605L37.9045 12.9274ZM28.9867 18.5842L30.6172 20.2147L21.5996 29.2489L12.5654 38.2831L10.9516 36.5694L9.33772 34.8558L18.2721 25.9047C23.1802 20.9966 27.2398 16.9703 27.2897 16.9703C27.323 16.9703 28.1049 17.7024 28.9867 18.5842ZM9.60392 40.0467C9.57065 40.0633 8.75541 40.4294 7.77379 40.8287L6.0102 41.5773L6.17658 41.1448C6.25977 40.8952 6.60916 40.08 6.94191 39.3146L7.54086 37.9171L8.58903 38.9486C9.17135 39.5309 9.62056 40.0134 9.60392 40.0467Z" fill="black"/>
</svg>
