<svg width="50" height="52" viewBox="0 0 50 52" fill="none" xmlns="http://www.w3.org/2000/svg">
<path d="M20.6791 0.107627C12.8741 1.09811 6.47553 5.09968 1.93911 11.835C0.433571 14.0933 0.354332 14.3508 1.04767 14.8659C2.51359 15.9158 2.43435 15.6979 1.78063 17.3421C-0.497485 23.1067 -0.596533 29.7628 1.52311 35.5274C4.59361 43.9267 12.0223 50.0677 20.9366 51.5336C23.8486 52.0091 28.2068 51.8308 30.9801 51.1374C40.2709 48.8197 47.4618 41.4505 49.4626 32.1994C50.77 26.1574 49.6409 18.5108 46.6298 13.2217C42.8462 6.56559 36.2495 1.8905 28.5039 0.424582C26.4833 0.0481974 22.5016 -0.13009 20.6791 0.107627ZM27.8502 4.96101C37.973 7.08064 45.1441 15.3215 45.6393 25.365C45.8968 30.4165 44.3319 35.5868 41.3604 39.4497C39.5577 41.7674 36.5071 44.3229 34.0308 45.5709C24.8788 50.2064 14.7758 47.8292 8.55555 39.5488C4.21723 33.7643 3.16731 27.0092 5.64352 20.6107C6.01991 19.6202 6.37648 18.6891 6.4161 18.5108C6.49534 18.2929 6.21801 17.9958 5.52467 17.56C4.35589 16.8072 4.27665 17.0846 6.35667 13.9744C8.63479 10.5672 10.7346 8.60599 13.8844 6.94198C18.1236 4.68367 23.1949 3.97052 27.8502 4.96101Z" fill="black"/>
<path d="M23.71 15.6583C22.9176 16.0743 22.462 16.9261 22.462 17.9364C22.462 19.0062 22.9176 19.7787 23.8288 20.1947C25.6315 21.0664 27.4936 19.8976 27.4936 17.877C27.4936 17.0054 27.4144 16.8271 26.7211 16.1337C26.0673 15.4602 25.8296 15.3612 25.0967 15.3612C24.6212 15.381 23.9873 15.4998 23.71 15.6583Z" fill="black"/>
<path d="M22.7393 29.4261V36.5576H24.9184H27.0975V29.4261V22.2946H24.9184H22.7393V29.4261Z" fill="black"/>
</svg>
