<svg width="50" height="55" viewBox="0 0 50 55" fill="none" xmlns="http://www.w3.org/2000/svg">
<path d="M19.8447 0.499941C17.9612 1.43198 17.2233 2.83004 16.9903 5.82033C16.8155 8.36402 16.233 10.3252 14.8544 13.1019C13.301 16.2281 11.6893 18.4029 9.06796 20.8883C5.98058 23.8203 4.01942 24.83 1.41748 24.8495H0V39.6067V54.364H2.13592H4.25243L4.31068 51.665L4.36893 48.966L5.74757 49.3349C6.50485 49.5291 8.58252 50.2281 10.3689 50.8689C16.1942 52.9854 15.2816 52.8689 27.1456 52.9465C38.3883 53.0436 39.0291 52.9854 40.3689 52.0339C41.5922 51.1407 42.0194 50.131 42.0388 48.1116C42.0388 47.1601 42.1165 46.4028 42.1942 46.4028C42.2913 46.4028 42.7184 46.1504 43.1845 45.8397C44.7573 44.7524 45.3981 42.7718 45.0097 40.1893C44.8738 39.3349 44.8738 39.2961 45.6311 38.7912C47.8058 37.2766 48.7379 34.0728 47.6699 31.8009L47.3204 31.1019L48.0583 30.364C48.466 29.9757 49.068 29.063 49.3981 28.364C49.9417 27.199 50 26.9077 50 25.1407C50 23.4902 49.9417 23.0825 49.5534 22.364C48.8738 21.0825 47.8447 20.0533 46.6408 19.4708L45.534 18.9271L36.3689 18.8689C31.3204 18.8495 27.1845 18.7912 27.1845 18.7524C27.1845 18.7329 27.3592 18.1893 27.5728 17.5485C28.835 13.9174 29.3398 8.65528 28.6602 6.32518C27.8252 3.47081 25.8641 0.96596 24 0.325183C22.5631 -0.160253 21.0485 -0.102001 19.8447 0.499941ZM23.1068 4.84945C23.767 5.54848 24.3883 6.84945 24.6796 8.09217C25.165 10.2669 24.0194 15.4708 21.9417 20.6164C21.3981 21.9174 20.9709 23.0048 20.9709 23.0436C20.9709 23.0825 26.233 23.1019 32.6796 23.1019C43.3786 23.1019 44.4272 23.1213 44.8544 23.432C45.1262 23.6067 45.4369 23.898 45.5728 24.0728C45.9223 24.4999 45.8835 25.7232 45.5146 26.4611C44.8738 27.7232 44.7767 27.7621 42.6796 27.7621H40.7767V29.8592V31.9562L41.7476 32.2087C42.7767 32.4805 43.8835 33.3349 43.8835 33.8786C43.8835 34.3446 43.5146 34.9854 43.0291 35.3737C42.7184 35.6456 42.233 35.7232 40.835 35.7232H39.0291V37.8397V39.9562L39.5922 40.0922C40.3495 40.2475 40.8155 40.8106 40.835 41.5679C40.8932 42.4999 40.3301 42.7135 37.9223 42.7135H35.9223V44.83V46.9271L36.6796 47.063C37.5534 47.199 37.9223 47.5679 37.8252 48.1893L37.767 48.6359H27.5728C15.9417 48.6359 16.9903 48.7524 11.6117 46.7524C9.8835 46.1116 7.53398 45.3737 6.38835 45.0825L4.27184 44.5582V36.6747V28.7912L5.1068 28.5582C8.13592 27.665 12.6019 24.0533 15.5922 20.0728C18.9126 15.6456 20.7767 11.2378 21.1456 6.84945C21.2427 5.74266 21.4369 4.71353 21.5534 4.55819C21.9223 4.11159 22.5243 4.20868 23.1068 4.84945Z" fill="black"/>
</svg>
