<svg width="50" height="51" viewBox="0 0 50 51" fill="none" xmlns="http://www.w3.org/2000/svg">
<path d="M10.7018 0.106184C7.88301 0.525196 5.31181 1.78223 3.23579 3.76301C2.15017 4.77245 0.816953 6.52468 0.226528 7.68648C-0.0972539 8.35309 -0.0972539 8.35309 0.378896 8.75306L0.874091 9.13398L0.474126 10.372C0.131298 11.4005 0.055114 12.0671 0.055114 14.1812C0.055114 16.581 0.093206 16.8666 0.626493 18.3141C1.5407 20.7711 2.32159 21.8567 5.44513 25.0755L8.39725 28.1038L9.8257 26.6753L11.2542 25.2278L8.37821 22.3328C5.94032 19.8759 5.38799 19.2093 4.8547 18.0856C4.24523 16.8095 4.22618 16.6571 4.22618 14.4669C4.22618 12.2956 4.26428 12.1242 4.81661 10.9243L5.42608 9.64822L4.96898 9.30539L4.49283 8.94352L5.15944 7.97217C6.01651 6.69609 7.15927 5.78189 8.81627 5.001C9.93998 4.48676 10.3971 4.37248 11.9208 4.31535C14.073 4.22012 15.4062 4.48676 17.0822 5.32478C18.1298 5.85807 19.1011 6.75323 23.5769 11.2671C28.2051 15.9143 28.9098 16.7143 29.424 17.7999C30.7953 20.752 30.7382 23.6089 29.2526 26.3896C28.167 28.4085 25.5005 30.4845 23.4817 30.8464L22.7579 30.9988L24.3387 32.5796C25.2149 33.4557 26.0529 34.1794 26.2052 34.1794C26.9099 34.1794 29.1002 32.6748 30.6049 31.1511C32.4714 29.2846 33.4237 27.6086 34.0331 25.1516C34.814 22.0852 34.4331 18.9046 32.9666 15.8953C32.0905 14.124 31.9762 13.9907 26.7195 8.67688C21.5771 3.51541 20.0343 2.12506 18.2821 1.24894C16.3585 0.277598 12.9302 -0.236644 10.7018 0.106184Z" fill="black"/>
<path d="M22.3008 17.419C18.8916 19.1332 16.3013 22.5615 15.4443 26.4468C14.7777 29.5513 15.4062 33.2843 17.0441 35.9889C17.825 37.284 27.0433 46.8451 28.7193 48.1212C30.1287 49.1877 32.1095 50.1019 33.7855 50.4829C35.8997 50.959 39.1565 50.7685 41.1563 50.0829C45.0227 48.7306 48.2224 45.3595 49.4985 41.3408C49.6889 40.6932 49.9175 39.3219 49.9746 38.2553C50.108 35.7794 49.727 33.9509 48.5652 31.5321C47.7653 29.837 47.5367 29.5513 44.2608 26.2373L40.8135 22.7329L39.3851 24.1613L37.9566 25.5898L41.1944 28.8847C43.8228 31.5702 44.5465 32.4082 45.0417 33.4367C48.0129 39.5505 43.5561 46.7689 36.8139 46.7498C35.1188 46.7308 34.0712 46.5022 32.5095 45.7595C31.4238 45.2452 30.643 44.5405 26.0719 39.9123C21.5009 35.2842 20.7962 34.5033 20.2058 33.2843C17.5965 28.0848 20.3391 21.952 25.9957 20.2569L26.8147 20.0283L25.2339 18.4285C24.3768 17.5524 23.615 16.8477 23.5388 16.8477C23.4817 16.8477 22.9293 17.0953 22.3008 17.419Z" fill="black"/>
</svg>
