<svg width="50" height="48" viewBox="0 0 50 48" fill="none" xmlns="http://www.w3.org/2000/svg">
<g clip-path="url(#clip0)">
<path d="M5.94302 44.1988H39.9446V47.4217H5.94302V44.1988ZM50 26.8596C50.0023 28.0534 49.6423 29.2198 48.9675 30.2046C48.2928 31.1894 47.3351 31.9463 46.221 32.3752C45.1069 32.8041 43.8888 32.8848 42.7279 32.6066C41.5669 32.3284 40.5177 31.7045 39.719 30.8173C36.857 37.3534 30.9785 41.8461 24.1975 41.8461H21.6965C12.1245 41.8461 4.33157 32.88 4.33157 21.8641V19.1376H-0.0193374V15.9147H41.5496V21.5225C42.4492 21.0927 43.4433 20.8982 44.4386 20.9574C45.4339 21.0165 46.3979 21.3272 47.2404 21.8605C48.0829 22.3938 48.7762 23.1322 49.2555 24.0066C49.7347 24.8809 49.9843 25.8625 49.9807 26.8596H50ZM38.346 21.8641V19.1376H7.55447V21.8641C7.55447 31.1074 13.9036 38.6232 21.6965 38.6232H24.1975C31.9969 38.6232 38.346 31.1267 38.346 21.8641ZM46.7771 26.8596C46.7784 26.3277 46.6218 25.8074 46.3273 25.3645C46.0327 24.9217 45.6133 24.5762 45.1223 24.3717C44.6313 24.1673 44.0906 24.1131 43.5688 24.2161C43.047 24.3191 42.5674 24.5746 42.1909 24.9503C41.8143 25.3259 41.5577 25.8048 41.4534 26.3264C41.3492 26.848 41.4021 27.3888 41.6053 27.8803C41.8086 28.3718 42.1531 28.792 42.5952 29.0876C43.0374 29.3833 43.5573 29.5411 44.0892 29.5411C44.801 29.5411 45.4837 29.2588 45.9876 28.7561C46.4915 28.2534 46.7754 27.5714 46.7771 26.8596ZM12.2277 8.8114C12.2277 9.69447 11.1641 10.5904 10.7903 10.8354L11.6604 12.189L12.5177 13.5555C12.8207 13.3621 15.4506 11.6218 15.4506 8.8114C15.4008 7.52736 14.8446 6.31527 13.9036 5.44025C13.4781 4.96971 13.259 4.73766 13.259 4.52495C13.259 3.95772 14.0969 3.09398 14.6964 2.6879L12.9238 0C12.6273 0.193374 10.0361 1.97886 10.0361 4.51205C10.0909 5.68777 10.6103 6.79363 11.48 7.5867C12.0214 8.17971 12.2277 8.4311 12.2277 8.8114ZM22.0897 8.8114C22.0897 9.69447 21.0197 10.5904 20.6459 10.8354L21.5161 12.189L22.3733 13.5555C22.6763 13.3621 25.3126 11.6218 25.3126 8.8114C25.2601 7.52802 24.7044 6.31694 23.7656 5.44025C23.3338 4.96971 23.1211 4.73766 23.1211 4.52495C23.1211 3.95772 23.959 3.09398 24.5585 2.6879L22.7988 0C22.5023 0.193374 19.911 1.97886 19.911 4.51205C19.9687 5.68708 20.4875 6.79193 21.3549 7.5867C21.8964 8.17971 22.0768 8.4311 22.0768 8.8114H22.0897ZM31.9131 8.8114C31.9131 9.69447 30.8431 10.5904 30.4693 10.8354L31.3394 12.189L32.2096 13.5555C32.5061 13.3621 35.1425 11.6218 35.1425 8.8114C35.09 7.52802 34.5342 6.31694 33.5955 5.44025C33.1636 4.96971 32.9509 4.73766 32.9509 4.52495C32.9509 3.95772 33.7888 3.09398 34.3883 2.6879L32.6157 0C32.3192 0.193374 29.728 1.97886 29.728 4.51205C29.7856 5.68708 30.3045 6.79193 31.1718 7.5867C31.7004 8.17971 31.9002 8.4311 31.9002 8.8114H31.9131Z" fill="black"/>
</g>
<defs>
<clipPath id="clip0">
<rect width="50" height="47.4217" fill="white"/>
</clipPath>
</defs>
</svg>
