<svg width="50" height="35" viewBox="0 0 50 35" fill="none" xmlns="http://www.w3.org/2000/svg">
<path d="M12.6759 0.0877036C10.1355 0.54367 7.98596 2.13304 6.57897 4.5692L6.20117 5.20756L6.53989 5.49417C6.83953 5.75472 6.85255 5.7938 6.69622 6.24977C6.34448 7.26592 6.2142 8.75107 6.38356 9.88447C6.83953 13.0762 8.75459 15.4342 11.8291 16.6067C12.6108 16.9194 12.8843 16.9454 14.5258 16.9454C16.0891 16.9585 16.4539 16.9064 17.1313 16.6588C17.5482 16.5025 17.913 16.3722 17.913 16.3722C17.913 16.3722 18.1736 16.724 18.4862 17.1409C19.4633 18.4827 21.196 19.6422 22.9286 20.0851C24.0099 20.3587 26.0292 20.3587 27.1105 20.0851C28.4654 19.7334 29.6509 19.0299 30.7582 17.9355C31.2924 17.4014 31.8265 16.8152 31.9307 16.6588L32.1131 16.3462L32.9599 16.6328C34.1454 17.0497 36.1126 17.1278 37.4414 16.8412C38.9917 16.4895 40.1511 15.8381 41.3757 14.6265C43.0824 12.9329 43.7728 11.2133 43.7728 8.68593C43.7728 7.03142 43.5644 6.13252 42.8348 4.64737C41.8317 2.60203 39.7212 0.908444 37.3893 0.27009C36.2168 -0.0425726 33.95 -0.0425726 32.8948 0.27009C31.1881 0.778167 29.1819 2.18515 28.27 3.51397L27.9703 3.94388L27.2538 3.69635C25.7556 3.2013 23.3976 3.18828 22.0167 3.6703L21.4435 3.87874L21.1178 3.44883C20.0886 2.08093 18.4732 0.947526 16.7535 0.400366C15.5811 0.0355931 13.7702 -0.107711 12.6759 0.0877036ZM15.9328 3.09708C16.962 3.4358 17.8088 3.98296 18.4992 4.72554L19.0334 5.31178L18.3429 6.06738C17.7176 6.74482 16.949 7.89125 16.7405 8.43841C16.6884 8.56868 16.7796 8.69896 17.0011 8.81621C17.2225 8.93346 17.3137 9.06373 17.2616 9.19401C16.9099 10.0799 16.7796 11.057 16.8317 12.4249L16.8708 13.91L15.9849 14.1836C14.0438 14.7698 11.9724 14.1836 10.5785 12.6594C8.95 10.8876 8.62431 8.86832 9.60138 6.70573C9.79679 6.26279 9.90102 5.88499 9.83588 5.85894C9.34083 5.68958 9.34083 5.58536 9.80982 4.93398C10.5003 3.99599 11.3862 3.38369 12.5717 3.00589C13.4054 2.74534 14.9948 2.78442 15.9328 3.09708ZM36.8812 3.08406C39.9688 4.03507 41.7405 7.25289 40.8546 10.3144C40.4117 11.8516 39.2262 13.2065 37.6759 13.9361C36.8812 14.3139 36.6858 14.3529 35.5654 14.3529C34.7056 14.3529 34.1454 14.2878 33.7416 14.1315L33.1553 13.897V11.9819C33.1553 10.2232 33.1293 9.97567 32.8036 9.10282C32.3867 7.95639 31.8004 6.96629 31.0318 6.08041L30.4716 5.42903L30.7322 5.06425C31.0579 4.59526 32.048 3.68333 32.4518 3.46186C33.6764 2.81048 35.5003 2.65414 36.8812 3.08406ZM26.0683 6.28885C27.8531 6.80995 29.2601 7.99547 30.0157 9.59787C30.7192 11.1091 30.628 13.441 29.7942 14.8089C28.2178 17.3754 25.2606 18.3915 22.7202 17.232C21.7952 16.8021 20.5967 15.6036 20.0495 14.5353C19.6326 13.7406 19.6066 13.6364 19.6066 12.3337C19.6066 11.096 19.6457 10.8876 19.9844 10.132L20.3752 9.29823L20.0886 9.07676L19.815 8.84226L20.1798 8.34721C20.8963 7.34409 22.16 6.48426 23.2804 6.22371C24.0751 6.04133 25.2997 6.06738 26.0683 6.28885Z" fill="black"/>
<path d="M12.5586 18.3785C11.2819 18.626 10.2397 18.9387 9.28869 19.3686C5.4716 21.1013 1.94112 25.2571 0.390829 29.8558C0.169359 30.4942 0 31.0283 0 31.0544C0 31.0804 2.64461 31.0934 5.86243 31.0934H11.7379L11.5425 31.4452C11.334 31.8621 10.5524 34.0507 10.5524 34.2331C10.5524 34.2982 16.2976 34.3503 25.013 34.3503H39.4737L39.3955 33.9856C39.2652 33.4645 38.7311 31.5885 38.6269 31.3149C38.5357 31.1065 38.8614 31.0934 44.2678 31.0934H50L49.6873 29.8688C48.7233 26.0648 46.235 22.3519 43.3559 20.3978C42.2746 19.6552 40.6331 18.8996 39.4085 18.5869C38.0667 18.2221 35.4872 18.1049 33.9891 18.3264C31.8395 18.639 29.4033 19.6422 27.7097 20.9189L26.9802 21.4791H25.3648L23.7493 21.4921L22.9156 20.8146C21.8473 19.9418 19.789 18.9387 18.3689 18.5869C16.9489 18.2221 13.9005 18.1179 12.5586 18.3785ZM17.3658 21.1403C18.2647 21.3488 20.3231 22.1825 20.3231 22.3519C20.3231 22.391 19.8541 22.6515 19.2939 22.9251C17.3528 23.8761 15.2163 25.7391 13.7702 27.7193L13.223 28.4749L8.55915 28.4879H3.88223L4.29911 27.7323C6.14904 24.4233 9.14539 21.9871 12.3372 21.2055C13.6529 20.8798 16.0631 20.8537 17.3658 21.1403ZM39.2783 21.3748C41.1933 22.0262 42.8869 23.2117 44.1767 24.8141C44.9713 25.8042 45.8312 27.1721 46.1829 27.9929L46.3783 28.4879H41.8317H37.285L36.5555 27.4457C35.1094 25.3873 33.481 23.9152 31.4617 22.86L30.4195 22.3128L31.3575 21.8829C33.012 21.1143 34.0542 20.9319 36.2819 20.984C38.0016 21.0101 38.3663 21.0622 39.2783 21.3748ZM28.791 24.6969C30.9015 25.4134 32.5951 26.651 33.963 28.4619C34.6014 29.3087 35.826 31.4191 35.826 31.6667C35.826 31.7057 31.0188 31.7448 25.1433 31.7448C19.2678 31.7448 14.4607 31.7188 14.4607 31.6797C14.4607 31.4843 15.6853 29.6213 16.3757 28.7485C17.8739 26.8725 19.815 25.4655 21.8213 24.775C23.1371 24.3321 24.1271 24.2018 25.8598 24.2409C27.358 24.28 27.6967 24.3321 28.791 24.6969Z" fill="black"/>
</svg>
