<svg width="50" height="68" viewBox="0 0 50 68" fill="none" xmlns="http://www.w3.org/2000/svg">
<path d="M16.3866 3.88647V7.77303H8.19328H0V10.084V12.3949H2.94118H5.88235V40.0209V67.647H27.9412H50V37.71V7.77303H43.3824H36.7647V3.88647V-8.21352e-05H26.5756H16.3866V3.88647ZM32.1429 6.1974V7.77303H26.5756H21.0084V6.1974V4.62177H26.5756H32.1429V6.1974ZM45.3782 37.71V63.0251H27.9412H10.5042V37.71V12.3949H27.9412H45.3782V37.71Z" fill="black"/>
<path d="M17.0168 37.71V57.563H19.3278H21.6387V37.71V17.8571H19.3278H17.0168V37.71Z" fill="black"/>
<path d="M25.8403 37.71V57.563H28.1513H30.4622V37.71V17.8571H28.1513H25.8403V37.71Z" fill="black"/>
<path d="M34.4537 37.71V57.563H36.7647H39.0756V37.71V17.8571H36.7647H34.4537V37.71Z" fill="black"/>
</svg>
