<svg width="50" height="32" viewBox="0 0 50 32" fill="none" xmlns="http://www.w3.org/2000/svg">
<path d="M32.4526 0.851811C29.8332 2.98091 27.5235 4.43902 24.4524 5.93584C22.1426 7.04556 20.7361 7.60041 18.1941 8.36173L16.4521 8.89078H8.23252H0V10.3102V11.7296H1.80651H3.61302V17.1491V22.5557L5.44533 22.5944L7.27765 22.6331L8.42607 27.3043L9.5745 31.9883H12.994C16.1812 31.9883 16.4005 31.9754 16.336 31.756C16.2457 31.4721 14.4521 22.788 14.4521 22.659C14.4521 22.4654 16.4521 22.5686 17.407 22.8396C23.033 24.3622 27.4331 26.5946 31.9365 30.1818C32.8268 30.8915 33.5753 31.4721 33.614 31.4721C33.6527 31.4721 33.6785 29.5237 33.6785 27.1365V22.8138L34.7495 21.7944C36.3366 20.2847 37.1496 18.775 37.4076 16.8265C37.7818 14.1684 36.7237 11.4328 34.5688 9.51015L33.6785 8.71012V4.3487C33.6785 1.94862 33.6398 -0.0127322 33.5882 0.000171427C33.5236 0.000171427 33.0204 0.38728 32.4526 0.851811ZM30.9171 25.7558C30.8913 25.7816 30.3752 25.4848 29.7687 25.0848C27.4331 23.5622 24.0653 21.9751 20.9813 20.9557L19.2909 20.3879V15.7168V11.0586L21.0329 10.4521C24.1943 9.35531 27.1492 7.94881 29.7171 6.33586L30.9042 5.58745L30.9429 15.6523C30.9558 21.175 30.9429 25.73 30.9171 25.7558ZM16.3876 15.7297V19.7298H11.4197H6.45182V15.7297V11.7296H11.4197H16.3876V15.7297ZM34.3366 14.0393C34.8656 15.3942 34.6979 17.0975 33.9108 18.3749C33.6785 18.7621 33.6785 18.7233 33.6785 15.7942C33.6914 13.1619 33.7043 12.8522 33.872 13.0716C33.9753 13.2135 34.1946 13.6522 34.3366 14.0393ZM12.1294 25.5365C12.4649 27.1365 12.7746 28.5946 12.8133 28.7882C12.9036 29.1366 12.8907 29.1495 12.3488 29.1495H11.7939L11.0326 26.0139C10.6197 24.2977 10.2584 22.8138 10.2197 22.7235C10.181 22.5944 10.3229 22.5686 10.852 22.5944L11.5359 22.6331L12.1294 25.5365Z" fill="black"/>
<path d="M42.7239 1.97443L41.769 2.9422L42.5046 3.75513C44.6207 6.07778 46.1305 9.13594 46.8531 12.5038C47.2531 14.4006 47.2531 17.5362 46.866 19.4201C46.1434 22.8396 44.7498 25.6397 42.4787 28.2204L41.769 29.0463L42.7626 30.0269L43.7562 31.0205L44.6724 30.0527C46.3498 28.2591 47.9241 25.5881 48.8144 22.9944C50.479 18.2072 50.3887 12.8522 48.5564 8.19398C48.0015 6.78748 47.7563 6.29714 46.995 5.01968C46.053 3.47125 44.1046 1.01956 43.8078 1.01956C43.7304 1.01956 43.2401 1.44538 42.7239 1.97443Z" fill="black"/>
<path d="M38.8657 7.38102C38.3625 7.89717 37.9366 8.3617 37.9366 8.42621C37.9366 8.47783 38.2205 8.85203 38.5818 9.25205C39.3173 10.0779 40.4141 12.1812 40.7496 13.407C41.0593 14.5683 41.0464 17.4071 40.7367 18.5685C40.4012 19.7556 39.4722 21.6008 38.7496 22.4912C38.4141 22.9041 38.0786 23.3299 38.0012 23.4202C37.9108 23.5622 38.1173 23.8461 38.8786 24.5945L39.8851 25.601L40.4012 25.0203C41.2271 24.0783 42.4013 22.2331 42.84 21.1879C43.4981 19.6137 43.7562 18.4007 43.8336 16.5684C43.9497 13.8457 43.3949 11.5489 42.0916 9.26495C41.5497 8.32299 40.0916 6.43905 39.898 6.43905C39.8464 6.43905 39.3819 6.86487 38.8657 7.38102Z" fill="black"/>
</svg>
