<svg width="50" height="53" viewBox="0 0 50 53" fill="none" xmlns="http://www.w3.org/2000/svg">
<path d="M20.2276 0.142546C12.3894 1.19282 5.65983 5.64678 1.26422 12.6875L0.213945 14.3796L0.875231 14.8853C2.3923 16.0523 2.3145 15.7995 1.65321 17.3554C1.34202 18.1334 0.836332 19.7088 0.544588 20.8563C0.0388992 22.8208 0 23.2681 0 26.9635C0 30.6978 0.0388992 31.0868 0.544588 33.0318C1.80881 37.8942 3.88992 41.5312 7.41029 44.9933C12.0976 49.6028 18.2048 52.0535 25.0122 52.0535C29.1938 52.0535 32.578 51.256 36.254 49.4278C43.1975 45.9463 47.9627 39.7419 49.6353 31.9621C50.1216 29.7448 50.1216 23.696 49.6353 21.2648C47.4959 10.587 39.6188 2.70989 28.8243 0.492639C26.5487 0.025849 22.3281 -0.149197 20.2276 0.142546ZM27.5017 4.88824C36.6819 6.63871 43.6254 13.485 45.4342 22.5874C45.7843 24.2989 45.7843 28.9863 45.4342 30.5617C44.7146 34.0043 43.4893 36.8244 41.7193 39.1973C40.494 40.8505 37.8683 43.3984 36.2929 44.4681C34.4841 45.674 31.6834 46.9382 29.5245 47.5217C27.8518 47.9691 27.2489 48.0274 24.5065 48.0469C21.0833 48.0469 19.8191 47.8135 16.96 46.6076C12.0393 44.5654 7.27414 39.4696 5.36808 34.2182C4.7068 32.4094 4.18166 29.5503 4.18166 27.722C4.18166 24.9602 4.95964 21.5176 6.06827 19.3198C6.32111 18.7947 6.51561 18.3474 6.47671 18.3279C6.43781 18.289 5.99047 17.9778 5.44588 17.6277C4.92074 17.2776 4.45395 16.9664 4.41505 16.9275C4.20111 16.7719 7.87708 11.6372 9.0246 10.4703C11.8448 7.63063 15.4819 5.70513 19.5468 4.88824C21.3362 4.5187 25.5956 4.53815 27.5017 4.88824Z" fill="black"/>
<path d="M22.8532 18.892V24.6296H17.1156H11.378V26.7691V28.9085H17.1156H22.8532V34.6462V40.3838H24.9927H27.1321V34.6462V28.9085H32.8698H38.6074V26.7691V24.6296H32.8698H27.1321V18.892V13.1544H24.9927H22.8532V18.892Z" fill="black"/>
</svg>
