<svg width="30" height="30" viewBox="0 0 50 49" fill="none" xmlns="http://www.w3.org/2000/svg">
<path d="M12.5 12.5001L0 25.0001L1.30952 26.3096L2.63605 27.6361L4.33673 25.9355L6.03742 24.2348V34.4899V44.728H3.57143H1.10544V46.5987V48.4695H11.1395H21.1735V41.1566V33.8436H25H28.8265V41.1566V48.4695H36.3946H43.9626V36.4457V24.4049L45.5442 25.9865C46.4116 26.8368 47.1939 27.5511 47.2789 27.5511C47.381 27.5511 48.0272 26.9729 48.7245 26.2756L50 25.0001L37.5 12.5001L25 9.30056e-05L12.5 12.5001ZM32.602 13.0443L40.2211 20.6634V32.6872V44.728H36.3946H32.568V37.4151V30.1021H25H17.432V37.4151V44.728H13.6054H9.77891V32.6191V20.4933L17.2959 12.9763C21.4456 8.82662 24.8639 5.44227 24.915 5.44227C24.966 5.44227 28.4184 8.86064 32.602 13.0443Z" fill="black"/>
</svg>
