<svg width="25" height="25" viewBox="0 0 50 55" fill="none" xmlns="http://www.w3.org/2000/svg">
<path d="M21.7807 0.134932C20.5658 0.377903 18.8129 0.950621 17.789 1.47127C15.5155 2.59935 12.8601 5.09849 11.4717 7.40671L10.7255 8.69099L11.2808 9.14222L11.8362 9.59345L11.4891 10.6521C10.6734 13.1165 10.5519 16.5355 11.2114 18.9478C12.4263 23.4775 15.932 27.2436 20.3575 28.7708C25.9459 30.6972 32.4193 28.8923 36.0986 24.3626C37.1573 23.0784 38.563 20.2842 38.9795 18.6007C39.4308 16.8132 39.3961 13.3595 38.8928 11.3116C37.6432 6.08773 33.4259 1.81838 28.1673 0.447324C26.6054 0.0308017 23.117 -0.142749 21.7807 0.134932ZM26.6227 4.19602C28.688 4.6299 30.5623 5.6712 32.1937 7.28523C34.3978 9.48932 35.4565 12.0058 35.4565 15.0429C35.4391 18.0107 34.3804 20.5966 32.3846 22.5924C30.4582 24.4841 28.6359 25.4039 26.05 25.8205C24.6269 26.0287 22.9608 25.8378 21.4683 25.2824C17.9105 23.9461 15.0469 20.2321 14.6477 16.414C14.5089 14.9735 14.9254 12.7694 15.6196 11.381L16.1055 10.3744L15.5849 9.97527L15.0469 9.55874L15.7411 8.51744C17.3898 6.12244 19.5939 4.68196 22.6484 4.03983C23.4467 3.88363 25.512 3.95305 26.6227 4.19602Z" fill="white"/>
<path d="M22.4748 32.7625C12.27 33.8212 4.58174 39.9822 1.16279 49.8573C0.676848 51.2457 0 54.0572 0 54.6646C0 54.7341 11.2461 54.7861 25.0087 54.7861H50L49.8959 53.7795C49.6182 51.3325 48.5769 47.9656 47.3447 45.5012C44.7935 40.4161 41.0274 36.7195 36.3242 34.6542C32.454 32.9534 27.3516 32.2592 22.4748 32.7625ZM28.8094 36.5633C32.0896 36.9798 35.5779 38.2641 37.9556 39.9649C41.0101 42.1343 43.7348 45.9003 45.0364 49.7532L45.453 50.968H25.1302H4.82471L4.9462 50.4821C5.17182 49.5275 6.59493 46.7854 7.63624 45.2582C8.20895 44.4078 9.3891 43.0367 10.2395 42.2211C13.6932 38.8889 17.5633 37.1707 23.169 36.5112C24.3318 36.3724 27.4384 36.4071 28.8094 36.5633Z" fill="white"/>
</svg>
