<svg width="40" height="43" viewBox="0 0 50 53" fill="none" xmlns="http://www.w3.org/2000/svg">
<path d="M19.3755 0.710289C13.2271 1.6623 7.31668 5.23233 3.27064 10.4089C2.19962 11.7774 0.394774 14.5144 0.394774 14.7524C0.394774 14.8119 0.831112 15.1689 1.38645 15.5656L2.37813 16.2796L2.06079 17.0134C0.216272 21.1983 -0.458068 26.9302 0.31544 31.5514C1.82279 40.4765 8.30835 48.1323 16.7574 50.9486C19.8316 51.9601 21.5968 52.2378 24.9883 52.2378C28.3799 52.2378 30.1451 51.9601 33.2193 50.9486C41.6683 48.1323 48.1142 40.536 49.6811 31.5911C50.3158 28.0012 49.9786 22.666 48.8877 18.9373C46.1111 9.39737 37.7413 2.21764 27.5667 0.690455C25.266 0.333451 21.7158 0.333451 19.3755 0.710289ZM27.1899 5.25217C31.9103 6.06534 35.9365 8.14786 39.2883 11.4799C44.8814 17.0531 46.9837 24.9469 44.921 32.6621C42.9774 39.9212 37.0471 45.7522 29.5897 47.7356C27.0312 48.4298 22.5488 48.5091 20.2283 47.9141C14.0799 46.3274 9.08186 42.1624 6.22583 36.1726C4.75815 33.1381 4.48048 31.7894 4.48048 27.8624C4.48048 24.7684 4.53998 24.3519 5.03582 22.7057C5.33332 21.714 5.78949 20.4446 6.04733 19.8496C6.325 19.2745 6.5035 18.7191 6.444 18.6398C6.3845 18.5406 5.94816 18.2233 5.45232 17.906C4.95648 17.6085 4.55981 17.2911 4.55981 17.2316C4.55981 16.7754 8.03068 11.9559 9.20086 10.8056C13.8221 6.20418 20.625 4.10182 27.1899 5.25217Z" fill="white"/>
<path d="M27.5072 24.0346L19.197 32.1861L16.6385 29.6276L14.0799 27.0691L12.5528 28.5963L11.0057 30.1433L12.1957 31.373C15.4683 34.824 18.959 38.275 19.1375 38.275C19.2367 38.275 23.7587 33.8918 29.1534 28.5764L38.971 18.8778L37.4835 17.3705C36.6703 16.5375 35.9563 15.8631 35.8968 15.8631C35.8373 15.8631 32.0689 19.5323 27.5072 24.0346Z" fill="white"/>
</svg>
