<svg width="50" height="62" viewBox="0 0 50 62" fill="none" xmlns="http://www.w3.org/2000/svg">
<path d="M24.9793 0.202753C20.8884 1.07052 17.1694 3.61184 14.7934 7.20689C12.9752 9.95482 12.0868 12.5168 11.8388 15.616L11.7149 17.2689H14.0289H16.3223V16.2771C16.3223 13.6325 17.9132 10.0994 20.124 7.86804C22.3347 5.61598 24.938 4.45895 27.7893 4.45895C30.7438 4.45895 33.3471 5.57465 35.5372 7.76474C37.0868 9.33499 38.0372 10.8226 38.8017 12.9713C39.3182 14.397 39.3595 14.7275 39.4215 19.0664L39.5041 23.6738H19.7521H0V25.8433V28.0127H2.89256H5.78512V44.9548V61.897H27.8926H50V42.7854V23.6738H47.0248H44.0496L43.9669 18.9631C43.8843 15.0375 43.781 14.0044 43.4091 12.6201C42.5 9.14904 40.1859 5.53333 37.562 3.44656C36.0331 2.22755 33.4711 0.905233 31.7149 0.430026C29.9793 -0.0245193 26.6529 -0.148486 24.9793 0.202753ZM45.4545 42.7854V57.3515H27.8926H10.3306V42.7854V28.2193H27.8926H45.4545V42.7854Z" fill="black"/>
<path d="M26.2397 36.0292C25.2066 36.5871 24.5248 37.9507 24.6695 39.1697C24.7521 39.6863 24.9794 40.3474 25.2066 40.6573C25.5786 41.1739 25.6199 41.5458 25.6199 44.5623C25.6199 47.2896 25.6819 47.992 25.9711 48.4673C26.6736 49.6656 28.3058 49.8722 29.3802 48.9011L30.062 48.302L30.124 44.7482C30.186 41.6904 30.248 41.1119 30.5992 40.554C30.8678 40.0995 30.9918 39.521 30.9918 38.6945C30.9918 37.5995 30.9298 37.4342 30.186 36.6491C29.4628 35.8639 29.2976 35.7813 28.1819 35.7193C27.2728 35.6573 26.7769 35.7193 26.2397 36.0292Z" fill="black"/>
</svg>
