<svg width="50" height="55" viewBox="0 0 50 55" fill="none" xmlns="http://www.w3.org/2000/svg">
<path d="M0.0355064 0.177742C-0.00549287 0.287073 -0.00549287 0.943062 0.00817357 1.65372L0.0491729 2.93836L1.93514 2.97936L3.80744 3.02036V24.7363V46.466H9.27402H14.7406V50.6342V54.8025H32.3703H50L49.9727 31.5969L49.9317 8.40494L44.5061 8.36394L39.0669 8.3366V4.16834V7.78344e-05H19.5922C3.54778 7.78344e-05 0.0901722 0.0274107 0.0355064 0.177742ZM36.1969 23.3014V43.596H21.5055H6.81406V23.3014V3.00669H21.5055H36.1969V23.3014ZM47.0344 13.0789C47.089 14.0492 47.13 23.1784 47.13 33.3735V51.9325H32.3703H17.6105V49.1993V46.466H28.4344H39.2445L39.1489 28.9046L39.0532 11.3432H43.0028H46.9524L47.0344 13.0789Z" fill="black"/>
<path d="M9.34236 18.0807C9.30136 18.1627 9.28769 20.486 9.30136 23.233L9.34236 28.2212L10.4767 28.2622L11.5973 28.3032V26.3353V24.3673L12.7863 24.2853C14.8089 24.135 15.8339 23.4243 16.2439 21.8663C16.5446 20.732 16.1346 19.3927 15.2873 18.6821C14.5766 18.0807 13.6883 17.9031 11.4333 17.9031C9.93002 17.9031 9.38336 17.9441 9.34236 18.0807ZM13.702 20.24C14.1393 20.5817 14.1939 21.388 13.7976 21.88C13.579 22.1397 13.3876 22.208 12.5676 22.249L11.5973 22.3037V21.1283V19.953H12.472C13.1416 19.953 13.415 20.0214 13.702 20.24Z" fill="black"/>
<path d="M17.4739 23.0826V28.2896H19.4555C20.5352 28.2896 21.7515 28.2212 22.1478 28.1392C24.5121 27.6336 25.8788 26.0209 26.0564 23.5336C26.1931 21.593 25.5371 19.953 24.2388 18.969C23.1181 18.1217 22.6261 18.0124 19.9065 17.9304L17.4739 17.8757V23.0826ZM22.4758 20.486C23.3368 20.9643 23.6785 21.593 23.7468 22.782C23.8561 24.9959 22.7901 26.1029 20.5898 26.1029H19.7972V23.0826V20.0487L20.8632 20.117C21.6285 20.158 22.0795 20.2674 22.4758 20.486Z" fill="black"/>
<path d="M27.382 18.0807C27.341 18.1627 27.3274 20.486 27.341 23.233L27.382 28.2212L28.5164 28.2622L29.637 28.3032V26.2396V24.1896H31.8236H34.0103V23.3013V22.413H31.8236H29.637V21.2513V20.0897H32.0286H34.4203V18.9964V17.9031H30.9353C28.2567 17.9031 27.423 17.9441 27.382 18.0807Z" fill="black"/>
</svg>
