<svg width="50" height="50" viewBox="0 0 50 50" fill="none" xmlns="http://www.w3.org/2000/svg">
<path d="M47.6413 0.32043C42.415 1.3371 39.6668 2.14727 36.3626 3.59285C32.6295 5.24494 28.8646 7.58012 25.8782 10.09L24.2102 11.488L18.0148 12.0916L11.8195 12.6953L5.8624 18.6523C2.58998 21.9247 -0.0470207 24.6253 0.000635921 24.6729C0.064178 24.7365 8.8171 24.1328 11.0887 23.9104L11.7877 23.8469L9.50018 26.1344L7.22855 28.4219L7.99106 29.2003L8.75356 29.9628L7.62569 32.0915L6.49782 34.2043L11.057 38.7793C13.5669 41.3051 15.7114 43.3543 15.8226 43.3543C15.9338 43.3543 16.9187 42.8778 18.0307 42.3059L20.0323 41.2416L20.763 41.9882L21.5096 42.7189L23.7654 40.4632C25.3539 38.8746 26.037 38.2868 26.037 38.5092C26.037 38.684 25.8146 41.2892 25.5763 44.3075C25.3222 47.3257 25.1474 49.8197 25.1792 49.8674C25.2269 49.8992 27.9433 47.2463 31.2157 43.9739L37.1887 38.0009L37.7288 32.2186C38.0306 29.0415 38.3165 26.2933 38.3483 26.1185C38.396 25.9438 38.9837 25.1495 39.6668 24.3393C44.8773 18.2075 47.9273 11.5674 49.4682 3.00508C49.7065 1.73424 49.9289 0.542828 49.9765 0.336316C50.04 0.0344908 49.9924 -0.0131658 49.6111 0.00271972C49.357 0.0186052 48.4674 0.161575 47.6413 0.32043ZM45.7827 4.62541C45.7351 4.91135 45.4491 5.99156 45.1632 7.00824C43.4476 13.0289 40.6517 18.1281 36.4262 22.9414L35.1712 24.3711L34.5834 30.3917L33.9957 36.4124L31.6446 38.7793C29.4683 40.9715 29.2936 41.1145 29.2618 40.7014C29.23 40.4473 29.4206 37.8579 29.6748 34.935C29.9131 32.0121 30.0878 29.5816 30.0561 29.5339C30.0243 29.5021 28.0862 31.3766 25.7511 33.7118L21.5096 37.9532L16.744 33.1876L11.9783 28.4219L16.1562 24.244C18.4437 21.9565 20.3182 20.0503 20.3182 20.0026C20.3182 19.9549 17.6971 20.1138 14.4882 20.3521C11.2794 20.5904 8.64236 20.7651 8.61059 20.7492C8.59471 20.7174 9.65904 19.6213 10.9934 18.287L13.408 15.8882L16.6963 15.5547C18.4914 15.3799 20.0641 15.2369 20.1753 15.2369C20.2865 15.2369 20.1117 15.507 19.794 15.8406C19.4763 16.1742 19.2062 16.5078 19.2062 16.6031C19.2062 16.6825 19.6987 17.2544 20.3182 17.8581L21.4143 18.9542L24.242 16.1742C28.7376 11.7739 31.6446 9.64524 36.1243 7.45303C39.0314 6.02333 41.0171 5.26083 43.5588 4.59364C45.8939 3.98999 45.9098 3.98999 45.7827 4.62541ZM14.4406 35.6498C16.1403 37.3496 17.4906 38.7634 17.4588 38.7952C17.4112 38.8428 17.1729 38.9699 16.9028 39.1129L16.4263 39.3671L13.5351 36.4918L10.6598 33.6165L10.914 33.0764C11.057 32.7904 11.1999 32.5522 11.2476 32.5522C11.3111 32.5522 12.7408 33.9501 14.4406 35.6498Z" fill="black"/>
<path d="M33.0902 10.4871C31.7399 10.8684 30.2308 12.4093 29.8495 13.7754C29.5318 14.9351 29.643 16.3489 30.1514 17.3814C30.7074 18.557 31.3904 19.2242 32.6136 19.7801C33.4238 20.1455 33.678 20.1932 34.8376 20.1296C36.3626 20.0502 37.4905 19.5419 38.3642 18.5093C41.1124 15.2845 38.7931 10.2647 34.5675 10.3283C34.0274 10.3283 33.3602 10.4077 33.0902 10.4871ZM35.5842 14.2679C36.172 14.8556 36.1879 15.5228 35.6319 16.1741C34.7899 17.1908 33.1855 16.6189 33.1855 15.3004C33.1855 13.9502 34.647 13.3306 35.5842 14.2679Z" fill="black"/>
<path d="M4.90923 37.2385L3.0824 39.0653L4.19438 40.1773C4.79803 40.781 5.36991 41.2893 5.46523 41.2893C5.67174 41.2893 9.03947 37.9216 9.03947 37.7151C9.03947 37.5562 6.95847 35.4117 6.8155 35.4117C6.76784 35.4117 5.91002 36.2377 4.90923 37.2385Z" fill="black"/>
<path d="M6.65668 40.8921L3.87671 43.672L4.9887 44.784C5.59235 45.3877 6.16423 45.896 6.25954 45.896C6.46605 45.896 11.74 40.622 11.74 40.4155C11.74 40.2566 9.65904 38.1121 9.51607 38.1121C9.46841 38.1121 8.18169 39.367 6.65668 40.8921Z" fill="black"/>
<path d="M10.3104 42.4805L8.48352 44.3074L9.67494 45.4988L10.8663 46.6902L12.6932 44.8633L14.52 43.0365L13.3286 41.8451L12.1372 40.6537L10.3104 42.4805Z" fill="black"/>
</svg>
