<svg width="50" height="55" viewBox="0 0 50 55" fill="none" xmlns="http://www.w3.org/2000/svg">
<path d="M23.2704 4.16683V8.3335H24.9999H26.7295V4.16683V0.000163294H24.9999H23.2704V4.16683Z" fill="black"/>
<path d="M6.91826 6.83981L5.73901 8.01906L8.69499 10.975L11.6352 13.9153L12.8459 12.6889L14.0723 11.4782L11.1635 8.56937C9.55977 6.9656 8.22329 5.66057 8.17612 5.66057C8.12895 5.66057 7.56291 6.19516 6.91826 6.83981Z" fill="black"/>
<path d="M38.7264 8.5222L35.8647 11.3996L36.9968 12.626C37.6258 13.3021 38.2075 13.8367 38.2861 13.8367C38.3805 13.8367 39.7484 12.5316 41.3522 10.9279L44.261 8.01906L43.0817 6.83981C42.4371 6.19516 41.8396 5.66057 41.7452 5.66057C41.6509 5.66057 40.2987 6.94988 38.7264 8.5222Z" fill="black"/>
<path d="M22.5944 9.59126C20.6918 9.92145 18.0346 11.0064 16.3679 12.1542C15.3931 12.8303 13.6006 14.5441 12.783 15.5976C9.93712 19.3082 8.91511 24.4183 10.1101 29.0881C10.8491 31.9498 11.9497 33.8523 14.4183 36.5095C15.2673 37.4215 16.1164 38.4592 16.3208 38.8208L16.6824 39.4655H14.8742H13.0503V41.195V42.9246H15.2516H17.4528V46.1479C17.4528 50.1259 17.4686 50.1887 19.0252 50.6762C19.1667 50.7076 19.6384 51.3523 20.0944 52.0913C21.0063 53.585 21.8711 54.4183 22.783 54.6856C23.5377 54.9214 26.4466 54.9214 27.2642 54.7013C28.0975 54.4655 28.9623 53.6164 29.9214 52.0598C30.566 50.9906 30.8333 50.7076 31.2264 50.5975C31.478 50.5347 31.8711 50.2988 32.0912 50.063L32.4686 49.6542L32.5472 45.1573L32.6258 40.6447L33.2233 39.5126C33.6006 38.8208 34.4025 37.7674 35.3302 36.7611C38.5063 33.302 39.8113 30.629 40.2673 26.651C40.566 23.9623 40.0786 20.9592 38.9151 18.4435C37.7044 15.8334 35.2201 13.0661 32.7359 11.5724C31.3208 10.7233 28.9308 9.85856 27.3585 9.60699C26.1793 9.41831 23.7107 9.41831 22.5944 9.59126ZM27.3113 13.302C29.6541 13.8208 31.6981 15.0158 33.5377 16.9655C36.7138 20.3617 37.6415 25.173 35.912 29.4969C35.3145 31.0378 34.3868 32.4057 32.8302 34.0724C31.3365 35.6604 30.4403 36.9498 29.7799 38.4592L29.3239 39.4498L24.9843 39.4655H20.6604L20.3145 38.6321C19.7642 37.3114 18.5535 35.5976 16.9654 33.868C16.1478 32.9875 15.2516 31.8711 14.9528 31.3837C13.7893 29.434 13.2076 27.3743 13.2076 25.1101C13.2076 23.2233 13.5535 21.7611 14.4969 19.8271C15.1887 18.3963 15.456 18.0032 16.7138 16.7454C18.3491 15.1101 19.717 14.2296 21.6195 13.6007C23.6321 12.9246 25.2359 12.8303 27.3113 13.302ZM28.9308 45.1259V47.3271H25H21.0692V45.1259V42.9246H25H28.9308V45.1259Z" fill="black"/>
<path d="M0 23.5849V25.3145H4.16667H8.33333V23.5849V21.8553H4.16667H0V23.5849Z" fill="black"/>
<path d="M41.6666 23.5849V25.3145H45.8333H50V23.5849V21.8553H45.8333H41.6666V23.5849Z" fill="black"/>
</svg>
