<svg width="50" height="50" viewBox="0 0 50 50" fill="none" xmlns="http://www.w3.org/2000/svg">
<path d="M2.59378 2.54401C1.21376 3.94066 0.0665071 5.18767 0.0665071 5.32069C0.0831339 5.4537 0.997607 7.21614 2.12823 9.22798L4.18995 12.8859L7.39892 14.7481L10.6245 16.6269L14.2824 20.2848L17.9403 23.9427L9.34425 32.5387C-0.399043 42.2986 0.0166268 41.7832 0 44.3105C0 45.5242 0.0665071 45.9565 0.382416 46.5717C0.947727 47.7522 1.81232 48.6501 2.85981 49.1655C3.69115 49.5812 3.99043 49.6311 5.38708 49.6311C7.91435 49.6311 7.58181 49.8971 16.8596 40.636L24.9235 32.5886L32.7381 40.4032C39.472 47.1537 40.7024 48.3009 41.567 48.7332C46.2557 51.061 51.1274 46.4055 49.0989 41.5504C48.783 40.769 47.7189 39.6384 40.7689 32.6717L32.8213 24.6909L35.282 22.2301L37.7262 19.786L39.3057 19.8857C45.175 20.2515 49.9302 15.9286 49.9967 10.1425C50.03 8.46315 49.8138 7.36578 49.1488 5.75298C48.9326 5.18767 48.6832 4.55585 48.5835 4.33971C48.4338 3.94066 48.2842 4.07368 45.1417 7.21614C43.08 9.27786 41.7831 10.4584 41.6168 10.4085C41.5004 10.3586 41.0681 10.2422 40.6857 10.1425C40.0207 9.97618 39.9874 9.94293 39.7879 9.04508L39.5884 8.13061L42.7973 4.90502C44.5764 3.12595 45.9897 1.62954 45.9398 1.59629C45.7236 1.38014 43.2961 0.465667 42.3817 0.249519C41.0681 -0.0663899 38.8568 -0.0663899 37.5765 0.266146C35.7476 0.731695 34.5172 1.44665 33.054 2.9098C30.9424 5.00478 30.0778 7.11638 30.1111 10.1591L30.1277 11.7552L27.0684 14.8146L24.0091 17.8739L20.4177 14.2991L16.8429 10.7244L14.9308 7.54867L13.0188 4.35633L9.26112 2.17823C7.21602 0.981097 5.43696 0.000117213 5.3372 0.000117213C5.22081 0.000117213 3.99043 1.14736 2.59378 2.54401ZM37.9091 5.13779L35.9471 7.09975L36.6787 9.82654L37.4269 12.5533L40.1204 13.2849L42.814 14.0331L44.8757 11.9714L46.9374 9.9263L46.8376 10.6579C46.6049 12.5201 45.5574 14.3158 44.0942 15.3965C42.7641 16.3775 41.7 16.71 39.9708 16.71C38.358 16.71 37.4601 16.3609 35.8307 15.1139L34.9329 14.4322L33.8854 15.4796C33.3034 16.0616 32.8213 16.5936 32.8213 16.6768C32.8213 16.8264 33.6027 17.5414 34.2512 17.957C34.6336 18.2231 34.6336 18.2231 32.6716 20.185L30.7097 22.1304L29.5458 20.0853L28.3653 18.0402L31.0256 15.3633C33.5196 12.8526 33.6859 12.6365 33.5695 12.2042C32.8711 9.37762 33.4198 7.01662 35.2321 5.22093C36.396 4.04042 38.1252 3.19246 39.3888 3.17583C39.8544 3.15921 39.7546 3.29222 37.9091 5.13779ZM8.14712 5.40382C9.32762 6.08552 10.4084 6.78384 10.558 6.93348C10.7076 7.09975 11.5556 8.46315 12.4535 9.97618L14.0829 12.7196L17.8405 16.4939L21.5982 20.2848L20.9664 20.9L20.3512 21.5318L16.5603 17.7575L12.786 13.9999L9.74329 12.2541L6.68397 10.5082L5.38708 8.19712L4.09019 5.90262L4.93815 5.0214C5.4037 4.55585 5.836 4.15681 5.90251 4.15681C5.96901 4.15681 6.96662 4.72212 8.14712 5.40382ZM27.4176 23.1113L28.6978 25.356L37.3936 34.085C43.2463 39.9376 46.1393 42.9637 46.2058 43.2796C46.5882 44.8259 45.0586 46.3556 43.5123 45.9898C43.1964 45.9067 40.2368 43.0635 34.3177 37.161L25.5886 28.4652L23.6765 27.4177C22.629 26.8524 21.5816 26.2871 21.3654 26.154C20.9664 25.9046 20.983 25.888 23.5269 23.3441C24.9235 21.9475 26.0874 20.8168 26.104 20.8335C26.1207 20.8501 26.7192 21.881 27.4176 23.1113ZM20.3013 29.3796L22.3464 30.5103L14.5817 38.2916C10.292 42.5813 6.58421 46.1893 6.31818 46.3389C5.52009 46.7546 4.42272 46.5385 3.77428 45.8235C3.09258 45.0919 2.95957 44.5599 3.2256 43.6787C3.39186 43.0801 4.50586 41.8996 10.7575 35.6147C14.7978 31.5744 18.1398 28.2656 18.1731 28.2656C18.2063 28.2656 19.1707 28.7644 20.3013 29.3796Z" fill="black"/>
</svg>
