<svg width="50" height="52" viewBox="0 0 50 52" fill="none" xmlns="http://www.w3.org/2000/svg">
<path d="M19.7529 0.133818C13.2397 1.1612 7.40491 4.59227 3.37292 9.74858C2.19046 11.2606 0.387692 14.0132 0.387692 14.304C0.387692 14.3815 0.678461 14.6335 1.02738 14.8467C2.44246 15.7578 2.40369 15.6609 1.88031 16.9403C0.600922 19.9643 0 23.1433 0 26.8846C0 34.0181 2.48123 39.8528 7.57938 44.8153C11.1461 48.2851 15.12 50.3787 20.16 51.4448C22.6994 51.9682 27.5649 51.9295 30.24 51.3285C38.7498 49.4676 45.6507 43.4584 48.5584 35.4138C50.3418 30.4513 50.4775 23.9963 48.9267 18.588C46.3098 9.53535 38.9243 2.73135 29.2707 0.482741C27.3904 0.0562796 21.6138 -0.156951 19.7529 0.133818ZM28.5923 5.0575C37.5673 7.24796 44.003 14.1101 45.4569 23.0076C46.3679 28.6873 44.9335 34.6384 41.5412 39.1938C38.6335 43.0901 34.2332 46.0947 29.7166 47.2578C23.9787 48.7116 18.7643 47.8587 13.8988 44.6796C9.61476 41.8495 6.02861 36.8676 4.80738 32.0021C4.16769 29.4433 4.20646 25.1981 4.88492 22.6199C5.1563 21.6119 5.64092 20.1969 5.97045 19.4796L6.55199 18.2003L5.50522 17.483C4.82676 17.0372 4.49723 16.7076 4.57476 16.5526C5.83476 14.4396 8.10276 11.3769 9.28522 10.2138C14.2477 5.3095 21.5944 3.35166 28.5923 5.0575Z" fill="black"/>
<path d="M11.4369 26.6907V28.823H25.0061H38.5753V26.6907V24.5584H25.0061H11.4369V26.6907Z" fill="black"/>
</svg>
