<svg width="50" height="63" viewBox="0 0 50 63" fill="none" xmlns="http://www.w3.org/2000/svg">
<path d="M24.7925 0.230455C18.9212 1.6205 14.4398 5.89436 12.4274 12.0769C12.0124 13.384 11.9502 14.0271 11.8672 18.6537L11.7842 23.7989H5.89212H0V25.9773V28.1558H2.90456H5.80913V45.1682V62.1807H27.9046H50V42.9898V23.7989H47.0124H44.0249L43.9419 18.6537C43.8589 14.0271 43.7967 13.384 43.3817 12.0769C41.5353 6.41303 37.4481 2.18066 32.2614 0.562405C30.3942 -0.0185079 26.5975 -0.184483 24.7925 0.230455ZM30.7261 4.83626C33.9004 5.76987 36.4938 8.03128 38.0705 11.2056C39.3361 13.7782 39.6266 15.4172 39.6266 20.0852V23.7989H27.9046H16.1826V20.0852C16.1826 15.4172 16.473 13.7782 17.7386 11.2263C19.8133 6.99394 23.527 4.52506 27.8216 4.50431C28.8589 4.50431 30.0622 4.64954 30.7261 4.83626ZM45.6432 42.9898V57.6163H27.9046H10.166V42.9898V28.3632H27.9046H45.6432V42.9898Z" fill="black"/>
<path d="M26.9709 35.8736C24.917 36.4545 24.0249 38.9442 25.2074 40.6869C25.7054 41.4338 25.7261 41.5583 25.7261 44.9193C25.7261 47.8861 25.7883 48.4462 26.0995 48.8197C27.0746 50.023 28.7344 50.023 29.7095 48.8197C30.0207 48.4462 30.0829 47.8861 30.0829 44.9193C30.0829 41.5583 30.1037 41.4338 30.6016 40.6869C31.473 39.4006 31.2448 37.6164 30.0415 36.5168C29.6473 36.1641 28.1742 35.5832 27.8008 35.6454C27.7385 35.6454 27.3651 35.7491 26.9709 35.8736Z" fill="black"/>
</svg>
