<svg width="50" height="59" viewBox="0 0 50 59" fill="none" xmlns="http://www.w3.org/2000/svg">
<path d="M0 1.8356V3.67126H2.62238H5.24476V31.2936V58.916H27.6224H50V34.388V9.87755L45.0524 4.93L40.1224 -6.76326e-05H20.0524H0V1.8356ZM42.4476 7.56986L46.3287 11.451V33.2692V55.0699H27.6224H8.91608V29.3706V3.67126H23.7413H38.549L42.4476 7.56986Z" fill="black"/>
<path d="M25.8217 11.1364C25.7518 11.1888 25.6993 17.8671 25.6993 25.9441L25.6818 40.6468L24.965 39.8601C24.5629 39.4231 23.479 38.2867 22.535 37.3077L20.8566 35.5594L19.493 36.8007L18.1294 38.042L22.7273 42.8846L27.3427 47.7448L28.3916 46.7133C28.986 46.1538 31.1189 44.1259 33.1294 42.2028C35.1573 40.2972 36.8357 38.6538 36.8706 38.5664C36.9406 38.4091 34.6329 36.014 34.4056 36.014C34.3357 36.014 33.2343 37.0105 31.958 38.2168L29.6329 40.4371L29.4755 25.7168L29.3357 11.014H27.6224C26.6958 11.014 25.8741 11.0664 25.8217 11.1364Z" fill="black"/>
</svg>
