<svg width="50" height="53" viewBox="0 0 50 53" fill="none" xmlns="http://www.w3.org/2000/svg">
<path d="M19.7457 0.711395C16.2325 1.26715 12.2231 2.83519 9.26568 4.82004C7.39992 6.07049 4.42264 8.90883 2.95385 10.8738C1.96143 12.1838 0.373547 14.6649 0.373547 14.9031C0.373547 14.9428 0.810214 15.2802 1.34612 15.6573L2.3187 16.352L1.624 18.1979C0.552183 21.0561 0.155213 23.0807 0.0361221 26.4351C-0.043272 28.7772 -0.00357494 29.9086 0.274304 31.4964C1.14764 36.8158 3.52946 41.4207 7.32053 45.1919C18.2968 56.0888 36.4383 54.5207 45.4694 41.8971C47.5336 39.019 49.3001 34.6325 49.7765 31.1987C50.1338 28.7375 50.0544 24.6686 49.5979 22.1081C47.7917 11.5685 40.1301 3.60928 29.3524 1.08852C27.4072 0.632001 21.7107 0.413668 19.7457 0.711395ZM28.9951 5.73307C41.1623 8.94853 48.1489 20.7981 44.9335 32.8064C43.9807 36.4189 42.1944 39.4358 39.4354 42.1551C36.8154 44.7354 34.6718 46.1248 31.4166 47.276C23.9734 49.9357 16.4508 48.2684 10.8139 42.691C7.91598 39.813 5.87159 36.4586 4.89901 32.9255C4.52189 31.6155 4.46234 30.8613 4.46234 28.0031C4.46234 24.9067 4.52189 24.4899 5.0181 22.8425C5.31583 21.8501 5.77234 20.5798 6.05022 19.9843C6.30825 19.4087 6.52659 18.8728 6.52659 18.7934C6.52659 18.7338 6.07007 18.4163 5.53416 18.0788C4.9784 17.7613 4.54174 17.4437 4.54174 17.3643C4.54174 17.0269 7.73735 12.422 8.70992 11.37C11.6475 8.15459 15.6371 6.09034 20.619 5.19716C20.8969 5.15746 22.4649 5.13761 24.0925 5.17731C26.514 5.21701 27.4271 5.31625 28.9951 5.73307Z" fill="black"/>
<path d="M14.466 16.094L12.9773 17.5826L17.4433 22.0486L21.8893 26.4946L17.483 30.8018C15.0614 33.1439 13.0766 35.1883 13.0766 35.3272C13.0766 35.4463 13.7514 36.2204 14.5652 37.0342L16.0539 38.5228L20.5198 34.0569L24.9857 29.591L29.4516 34.0569L33.9175 38.5228L35.4062 37.0342C36.22 36.2204 36.8948 35.4662 36.8948 35.3471C36.8948 35.2478 34.9298 33.1836 32.5281 30.7819L28.1615 26.4152L32.5281 22.0486C34.9298 19.6469 36.8948 17.6025 36.8948 17.4834C36.8948 17.2254 34.2748 14.6054 34.0168 14.6054C33.9175 14.6054 31.8334 16.5902 29.4119 19.0117L24.9857 23.438L20.5595 19.0117C18.138 16.5902 16.1134 14.6054 16.0539 14.6054C15.9943 14.6054 15.2798 15.2802 14.466 16.094Z" fill="black"/>
</svg>
