<svg width="50" height="63" viewBox="0 0 50 63" fill="none" xmlns="http://www.w3.org/2000/svg">
<path d="M5.6871 0.287477C4.38378 0.632473 3.27213 1.3608 2.1988 2.47246C1.10632 3.64161 0.454655 5.0216 0.167158 6.70825C0.0138259 7.5899 -0.024507 15.2565 0.0138259 32.3913L0.0713254 56.8286L0.512154 57.9019C1.35548 60.0294 3.15713 61.4669 5.41877 61.8885C6.2046 62.0419 13.4687 62.0994 28.2844 62.0994H50V59.9911V57.8827H47.3167H44.6334V34.9788V12.0749H43.6751H42.7167V6.03742V-2.03252e-05L24.6619 0.0191462C10.4596 0.0383126 6.39626 0.0958121 5.6871 0.287477ZM38.5001 8.14573V12.0749H37.6376H36.7751V9.00822V5.94159H23.7419H10.7087V8.0499V10.1582H21.6336H32.5585V11.1165V12.094L19.7745 12.0365L6.97126 11.979L6.18543 11.5382C3.61712 10.0624 3.63629 6.11409 6.2046 4.65743L6.97126 4.2166H22.7453H38.5001V8.14573ZM23.2628 16.0998H40.4168V36.9913V57.8827L23.1286 57.8444C4.21128 57.7869 5.38044 57.8636 4.65211 56.6561C4.30712 56.0811 4.28795 55.1803 4.23045 35.7071L4.19212 15.3715L5.15044 15.7357C6.07043 16.0807 6.83709 16.0998 23.2628 16.0998Z" fill="black"/>
<path d="M11.667 28.5581V35.458H22.3044H32.9418V28.5581V21.6581H22.3044H11.667V28.5581ZM28.7252 28.4622V31.2414H22.3044H15.8836V28.4622V25.6831H22.3044H28.7252V28.4622Z" fill="black"/>
<path d="M12.0503 41.7829V43.8912H22.3044H32.5584V41.7829V39.6746H22.3044H12.0503V41.7829Z" fill="black"/>
<path d="M11.8586 50.2162V52.3245H22.1127H32.3668V50.2162V48.1078H22.1127H11.8586V50.2162Z" fill="black"/>
</svg>
