<svg width="50" height="42" viewBox="0 0 50 42" fill="none" xmlns="http://www.w3.org/2000/svg">
<path d="M3.93582 1.66522V3.33038H5.52528C6.40327 3.33038 7.11474 3.34552 7.11474 3.37579C7.11474 3.39093 5.79776 6.7061 4.17802 10.7479L1.2413 18.0897L0.620648 18.1351L0 18.1805V19.4975C0 22.0104 0.74175 23.9026 2.34635 25.5072C5.495 28.6558 10.5207 28.6558 13.7148 25.5072C15.3043 23.9329 16.046 22.0406 16.046 19.5732V18.1654H15.4556H14.8653L12.1859 11.4594C10.7175 7.78088 9.37027 4.45057 9.21889 4.04185L8.93127 3.33038H16.1974H23.4635V18.2259V33.1063L20.5571 35.7706L17.6355 38.4348L15.4859 38.45H13.3212V40.1151V41.7803H24.614C30.8205 41.7803 35.8765 41.7197 35.8462 41.6592C35.8311 41.5835 33.7723 39.661 31.3049 37.3752L26.7938 33.2274V18.2713V3.33038H33.8934H40.993L38.026 10.7479L35.059 18.1654H34.4838H33.9086V19.7397C33.9086 21.6319 34.2265 22.8278 35.0893 24.1599C38.2834 29.0797 45.5192 29.0797 48.6527 24.1751C49.4702 22.9035 49.8335 21.6622 49.9243 19.7851L50 18.1654H49.3339H48.6679L45.8371 11.0052C44.2779 7.08454 42.9609 3.7391 42.9004 3.58772C42.8096 3.34552 42.9458 3.33038 44.4899 3.33038H46.1701V1.66522V7.13468e-05H25.053H3.93582V1.66522ZM43.4908 14.1841L45.0802 18.1654H41.9164C40.1756 18.1654 38.7526 18.12 38.7526 18.0594C38.7526 17.9232 41.8408 10.1575 41.8862 10.1878C41.8862 10.2029 42.6128 12.0043 43.4908 14.1841ZM9.61247 14.0933C10.445 16.1823 11.1565 17.9534 11.1717 18.0291C11.2019 18.1048 9.85468 18.1654 8.02301 18.1654C6.19134 18.1654 4.84408 18.1048 4.87436 18.0291C5.43445 16.5305 7.96246 10.2937 8.02301 10.2937C8.06842 10.2937 8.7799 12.0043 9.61247 14.0933ZM12.413 21.6168C12.413 21.9044 11.3533 23.2062 10.7932 23.615C9.55192 24.5384 7.90191 24.7806 6.44868 24.2659C5.55556 23.948 4.34454 22.8884 3.92068 22.0861L3.63306 21.4957H8.02301C10.4299 21.4957 12.413 21.5562 12.413 21.6168ZM45.9885 22.1163C44.5958 24.5989 41.2807 25.265 38.9949 23.5241C38.4045 23.0851 37.5416 21.9195 37.5416 21.6016C37.5416 21.5411 39.5247 21.4957 41.9467 21.4957H46.3367L45.9885 22.1163ZM27.3993 38.3894C27.3993 38.4197 26.3246 38.45 25.0227 38.45L22.6309 38.4348L23.842 37.3298L25.053 36.2247L26.2186 37.2844C26.8695 37.8596 27.3993 38.3591 27.3993 38.3894Z" fill="black"/>
</svg>
