<svg width="50" height="51" viewBox="0 0 50 51" fill="none" xmlns="http://www.w3.org/2000/svg">
<path d="M20.6473 0.24933C16.0233 0.876019 11.6534 2.58671 7.9441 5.22897C6.40279 6.31297 3.86216 8.80279 2.65959 10.3949L1.64334 11.7499L2.04984 12.0379C2.25309 12.2072 2.64265 12.4274 2.87978 12.529L3.33709 12.7154L2.54103 14.2736C0.322211 18.6604 -0.0842895 23.0134 1.33846 27.2986C2.27003 30.0933 3.86216 32.7355 5.94547 34.9713L7.16498 36.2755L6.63991 37.224C4.77678 40.6792 -0.0504145 49.9949 0.000398088 50.0457C0.0342732 50.0796 3.99766 48.2334 8.79098 45.9637L17.5138 41.814L18.4454 42.0681C25.8132 44.0837 35.2643 42.644 41.5482 38.562C46.9682 35.0221 50 29.1448 50 22.1834C50 12.0379 43.1234 3.45052 32.8762 0.842144C29.5733 0.0122044 24.3058 -0.241859 20.6473 0.24933ZM29.0483 3.90784C38.6688 5.2459 45.4269 11.9701 46.3076 21.0825C46.4431 22.4714 46.1891 24.7918 45.6979 26.6719C44.1057 32.7863 39.1939 37.0038 31.8091 38.579C26.965 39.6291 22.3241 39.4767 18.3268 38.1217L17.2767 37.766L12.856 39.8662C10.4339 41.018 8.45223 41.9495 8.45223 41.9157C8.45223 41.8818 9.23135 40.3744 10.1799 38.579L11.8905 35.327L11.23 34.8188C9.84111 33.7518 7.60535 31.3466 6.69072 29.9578C4.89535 27.18 4.11622 24.5716 4.28559 21.76C4.40416 19.6089 4.70903 18.4572 5.75916 16.3061C6.21647 15.3576 6.5891 14.5446 6.5891 14.4938C6.5891 14.4599 6.25035 14.2059 5.84385 13.9518L5.0986 13.4775L5.62366 12.7154C6.47054 11.462 9.01117 9.07379 10.688 7.95591C13.8892 5.80484 16.4976 4.78859 20.5626 4.06028C22.5443 3.70459 27.0158 3.6199 29.0483 3.90784Z" fill="black"/>
<path d="M15.9048 13.8839V15.7471H23.1879H30.4711V13.8839V12.0208H23.1879H15.9048V13.8839Z" fill="black"/>
<path d="M15.9048 20.9977V22.8608H26.5754H37.2461V20.9977V19.1346H26.5754H15.9048V20.9977Z" fill="black"/>
<path d="M15.9048 28.027V29.8054H26.5754H37.2461V28.027V26.2485H26.5754H15.9048V28.027Z" fill="black"/>
</svg>
