<svg width="50" height="36" viewBox="0 0 50 36" fill="none" xmlns="http://www.w3.org/2000/svg">
<path d="M24 2.84618L21.7692 5.67695L20.2769 5.69233H18.7692V3.46156V1.2308H14.1538H9.53846V3.46156V5.69233H4.76923H0V7.38464V9.07695H2.15385H4.30769V22.2308V35.3846H27.1538H50V20.6154V5.84618H45.9538H41.9077L39.5692 2.9231L37.2308 2.59951e-05H31.7231L26.2308 0.0154106L24 2.84618ZM37.8 6.2308L40.0769 9.07695H43.3538H46.6154V20.5385V32H27.0769H7.53846V20.5385V9.07695L15.5077 9.06157H23.4615L25.6923 6.21541L27.9231 3.38464H31.7231H35.5385L37.8 6.2308Z" fill="black"/>
<path d="M28.8462 9.04617C24.2308 10.2308 20.9385 14.0462 20.477 18.7385C19.877 24.8462 24.2001 30.2308 30.2308 30.9077C33.7231 31.3077 36.8924 30.2 39.4001 27.6923C40.5231 26.5846 40.8462 26.1385 41.4462 24.9077C42.4001 22.9539 42.6616 21.6462 42.5693 19.3846C42.4462 16.3231 41.5078 14.1231 39.3847 12C38.0308 10.6616 36.7231 9.84617 35.0001 9.27694C33.3539 8.73847 30.477 8.63078 28.8462 9.04617ZM33.5539 12.4C34.9077 12.8 36.077 13.5077 37.0462 14.5231C38.5693 16.0923 39.2308 17.7846 39.2308 19.9846C39.2154 23.6616 36.6616 26.6923 32.9231 27.4769C29.2308 28.2462 25.3693 25.9385 24.1693 22.2462C23.5077 20.2 23.6616 18.2769 24.6462 16.3231C25.5539 14.5385 27.5539 12.9231 29.5231 12.3692C30.5385 12.0923 32.5539 12.1077 33.5539 12.4Z" fill="black"/>
<path d="M30.3384 13.4C29.0923 13.6154 27.8769 14.2616 26.8769 15.2462C23.1231 19 25.1846 25.4308 30.4307 26.3385C34.8154 27.0923 38.6615 23.3385 38.0154 18.9385C37.5846 16.0616 35.4 13.8462 32.5231 13.3846C31.5077 13.2154 31.4615 13.2154 30.3384 13.4ZM32.3846 16.7846C33.2307 17.0308 34.3692 18.1846 34.6154 19.0616C35 20.4923 34.2461 22.0616 32.8769 22.6923C31.5231 23.3231 30.3538 23.1385 29.3231 22.1077C28.2615 21.0308 28.0461 19.8154 28.7077 18.4923C29.1231 17.6462 29.6923 17.1539 30.6 16.8308C31.2923 16.5846 31.6154 16.5693 32.3846 16.7846Z" fill="black"/>
<path d="M11.5692 10.4307C7.3692 11.9384 7.55381 17.9384 11.8307 19.1692C14.7538 20.0307 17.6923 17.8154 17.6923 14.7692C17.6923 11.6154 14.5384 9.38458 11.5692 10.4307ZM13.923 13.923C14.1692 14.1538 14.3077 14.4769 14.3077 14.7692C14.3077 15.3692 13.7077 16 13.1538 16C12.6615 16 11.8461 15.2307 11.8461 14.7692C11.8461 14.3077 12.6615 13.5384 13.1538 13.5384C13.3692 13.5384 13.723 13.7077 13.923 13.923Z" fill="black"/>
</svg>
