<svg width="50" height="51" viewBox="0 0 50 51" fill="none" xmlns="http://www.w3.org/2000/svg">
<g clip-path="url(#clip0)">
<path d="M30.4271 12.1765H15.9737V15.7121H30.4271V12.1765Z" fill="black"/>
<path d="M37.0952 19.2335H15.9737V22.7691H37.0952V19.2335Z" fill="black"/>
<path d="M37.0952 26.2834H15.9737V29.819H37.0952V26.2834Z" fill="black"/>
<path d="M25.2723 0C8.64801 0 2.02943 11.3138 1.76073 11.8017L3.43658 12.7563C-3.72648 24.2116 4.1437 33.3404 7.22671 36.282L0.0353699 50.0424L17.5081 41.7338C20.0252 42.5307 22.6464 42.95 25.2864 42.9784C29.2674 42.9784 49.1727 41.953 50.0354 22.5499V22.4721C50 11.3067 41.5076 0 25.2723 0ZM25.2723 39.4428C22.7697 39.4213 20.2877 38.9889 17.9253 38.1629L17.2182 37.9225L8.02576 42.2925L11.6603 35.3698L10.5007 34.4647C10.041 34.1182 -0.63639 25.8167 6.49131 14.5383L4.85788 13.5059C5.27508 12.7988 11.1512 3.53557 25.2723 3.53557C39.167 3.53557 46.4432 13.0392 46.4857 22.4367C45.7573 38.1841 30.0665 39.4287 25.2652 39.4428H25.2723Z" fill="black"/>
</g>
<defs>
<clipPath id="clip0">
<rect width="50" height="50.0424" fill="white"/>
</clipPath>
</defs>
</svg>
