<svg width="50" height="45" viewBox="0 0 50 45" fill="none" xmlns="http://www.w3.org/2000/svg">
<path d="M12.0512 0.0495481C6.27628 0.996561 1.85689 4.93316 0.33424 10.541C-0.111413 12.175 -0.111413 15.9074 0.33424 17.5786C0.779893 19.2126 1.74547 21.1995 2.74819 22.5179C3.21242 23.1307 8.20745 28.2371 13.8524 33.8635L24.121 44.1321H24.9566H25.7922L36.3393 33.585C47.1835 22.7779 47.9634 21.9237 48.9661 19.5097C50.1174 16.7615 50.3402 12.8249 49.4675 10.0582C47.9449 5.19313 44.1197 1.55363 39.2918 0.365219C37.4163 -0.099003 34.1667 -0.0432963 32.3099 0.476632C30.2301 1.05227 28.169 2.18497 26.4235 3.68905L24.938 4.98887L23.8796 3.98615C22.0041 2.20354 19.9801 1.05227 17.6219 0.420926C16.4892 0.105255 13.0725 -0.099003 12.0512 0.0495481ZM17.4362 4.35753C18.6617 4.80318 20.6486 6.08444 21.5213 6.99431L22.0598 7.55138L20.9643 8.66551L19.8687 9.77964L21.2428 11.1723C22.0041 11.9336 22.7097 12.565 22.8026 12.565C22.914 12.565 24.5852 10.9866 26.5164 9.05546C29.3203 6.28869 30.3044 5.43452 31.2143 4.9703C37.0635 2.03642 44.0825 5.06315 45.828 11.2652C46.5522 13.8648 46.3665 16.0188 45.1781 18.507C44.4353 20.0854 44.4168 20.1039 34.7052 29.834L24.9566 39.5827L15.6721 30.2983C9.30301 23.9477 6.09059 20.6053 5.49639 19.714C4.21514 17.82 3.8809 16.6501 3.8809 14.0505C3.8809 11.4323 4.21514 10.281 5.51496 8.33127C6.87049 6.30726 8.98734 4.78461 11.3456 4.09756C12.7197 3.70762 16.0435 3.85617 17.4362 4.35753Z" fill="black"/>
</svg>
