<svg width="50" height="38" viewBox="0 0 50 38" fill="none" xmlns="http://www.w3.org/2000/svg">
<path d="M23.9452 0.171001C18.7187 0.930934 13.3216 4.40491 10.4215 8.87145L9.73908 9.92605H7.59887C5.16398 9.92605 4.23345 10.1277 2.99274 10.9496C2.07772 11.5545 1.36432 12.4075 0.743965 13.6172C0.0615765 14.9664 -0.0469853 15.8039 0.01505 19.2779C0.0615765 22.2866 0.0770853 22.4417 0.464806 23.2636C1.30228 25.0161 2.7291 26.3034 4.43507 26.8307C5.24153 27.0788 5.87739 27.1409 7.59887 27.1409H9.73908L10.468 28.2575C11.383 29.6843 13.6628 31.9796 15.1827 32.9877C18.424 35.1589 21.7274 36.2135 25.8372 36.3996L27.8999 36.4927V18.2543V0.000404078L26.3956 0.0159129C25.5581 0.0314217 24.457 0.093457 23.9452 0.171001ZM24.6431 18.2233V32.8791H24.2709C23.3558 32.8791 20.7348 32.0572 19.1374 31.2507C16.0977 29.7463 13.8799 27.6216 12.5307 24.9386L11.9258 23.7289H8.80856C5.50517 23.7289 5.21051 23.6669 4.35752 22.8914C3.50454 22.1315 3.39597 21.6352 3.39597 18.7351C3.39597 15.7884 3.55106 15.168 4.45057 14.222C5.14847 13.4776 5.58272 13.338 7.1336 13.338H8.5449L8.46736 13.9894C8.40533 14.3616 8.32778 15.044 8.26575 15.5247L8.17269 16.3932L8.90161 16.5018C9.30484 16.5483 10.0803 16.5948 10.6231 16.5948C11.5691 16.5948 11.6157 16.5793 11.6157 16.2226C11.6157 15.3076 12.1274 13.0123 12.5462 12.1438C13.8334 9.35223 16.7181 6.57615 19.8974 5.04077C21.2932 4.35838 23.6195 3.59845 24.3019 3.58294L24.6431 3.56743V18.2233Z" fill="black"/>
<path d="M41.4236 2.37304C40.8188 2.99339 40.307 3.55171 40.307 3.62925C40.307 3.69129 40.7257 4.21859 41.253 4.77691C44.2772 8.0958 46.2158 12.6244 46.6656 17.5097C47.1929 23.2789 45.0682 29.6686 41.222 33.8715C40.7257 34.4143 40.307 34.9261 40.307 35.0036C40.307 35.2517 42.6023 37.423 42.7574 37.3144C42.8349 37.2679 43.3932 36.6475 43.9981 35.9496C46.8517 32.5687 48.6817 28.8621 49.6433 24.4576C49.9535 23.0773 50 22.4259 50 19.3087C50 16.1914 49.9535 15.54 49.6433 14.1597C48.6662 9.67769 46.7742 5.86252 43.874 2.51262C43.2692 1.81472 42.7264 1.24089 42.6643 1.24089C42.6023 1.24089 42.044 1.75269 41.4236 2.37304Z" fill="black"/>
<path d="M34.8789 8.91762C34.0104 9.80162 33.7623 10.1428 33.8708 10.2979C33.9639 10.4065 34.3981 10.9803 34.8479 11.5696C35.7939 12.7793 36.7555 14.6714 37.1277 16.0517C37.5154 17.5095 37.6084 20.177 37.2983 21.6659C36.8485 23.8836 35.9335 25.7757 34.3981 27.6213C34.0569 28.0245 33.7933 28.4122 33.7933 28.4898C33.7933 28.6759 35.8559 30.7075 36.0576 30.7075C36.5849 30.7075 38.4769 28.0865 39.4695 25.9928C40.5861 23.62 40.8343 22.3793 40.8498 19.3085C40.8498 16.9047 40.8033 16.5325 40.4155 15.1367C39.7176 12.6087 38.0427 9.63102 36.4763 8.1887L36.0265 7.75446L34.8789 8.91762Z" fill="black"/>
</svg>
