<svg width="50" height="52" viewBox="0 0 50 52" fill="none" xmlns="http://www.w3.org/2000/svg">
<g clip-path="url(#clip0)">
<path d="M49.9757 25.9059C49.4338 -0.630805 14.0893 -10.5629 0.485276 14.332L2.51537 15.7878C1.50924 17.8906 0.798846 20.1225 0.404398 22.42C-0.217886 25.8376 -0.121077 29.3475 0.688649 32.7256C1.49837 36.1038 3.00324 39.2761 5.10727 42.0403C7.21131 44.8045 9.86832 47.0998 12.9089 48.7799C15.9494 50.46 19.3067 51.488 22.7666 51.7984C26.2266 52.1087 29.7133 51.6946 33.0042 50.5823C36.2952 49.4701 39.3183 47.6843 41.8806 45.3386C44.443 42.993 46.4884 40.1391 47.8863 36.959C49.2843 33.7788 50.0042 30.3422 50 26.8684C50 26.5557 49.9919 26.2348 49.9757 25.9059ZM45.8913 26.375C45.8913 26.6662 45.8913 26.9493 45.8913 27.2323C45.8953 27.2808 45.8953 27.3295 45.8913 27.3779C45.7774 30.0387 45.2056 32.6598 44.2009 35.1262C43.0669 37.7401 41.4162 40.0978 39.3481 42.0576C35.5217 45.7951 30.4349 47.9649 25.089 48.1398C18.1009 48.3744 11.9217 44.7105 8.10417 39.243C6.92655 37.6727 5.99391 35.9329 5.33807 34.0829C5.03458 33.3164 4.79384 32.5266 4.61824 31.7212C4.3128 30.3401 4.15823 28.9299 4.15723 27.5154C4.16711 24.3065 4.94061 21.1459 6.41378 18.2951L4.23002 16.8878L6.49466 13.4019C7.19835 12.3136 8.01137 11.3 8.92106 10.377C11.5084 7.81991 14.7179 5.98186 18.2327 5.0443C21.7474 4.10674 25.446 4.10209 28.9631 5.0308C33.3683 6.07612 37.344 8.45416 40.3487 11.8409C43.3533 15.2277 45.2407 19.4584 45.7538 23.9567V24.167C45.7538 24.2721 45.7538 24.3773 45.7538 24.4824C45.7538 24.7655 45.8023 25.0567 45.8104 25.3559C45.8104 25.4611 45.8104 25.5743 45.8104 25.6875C45.8104 25.8008 45.8104 26.0353 45.8104 26.2133C45.8104 26.3912 45.8913 26.3265 45.8913 26.375V26.375Z" fill="black"/>
<path d="M38.515 24.7168H11.485V28.7608H38.515V24.7168Z" fill="black"/>
</g>
<defs>
<clipPath id="clip0">
<rect width="50" height="51.8683" fill="white"/>
</clipPath>
</defs>
</svg>
