<svg width="50" height="30" viewBox="0 0 50 30" fill="none" xmlns="http://www.w3.org/2000/svg">
<path d="M0 1.49574V2.99146H1.9943H3.9886V16.3106V29.6296H26.9943H50V14.8148V1.01626e-05H25H0V1.49574ZM17.2365 3.84616V4.70086H12.1795H7.12251V3.84616V2.99146H12.1795H17.2365V3.84616ZM33.4758 3.84616V4.70086H26.9231H20.3704V3.84616V2.99146H26.9231H33.4758V3.84616ZM46.7236 3.84616V4.70086H41.6667H36.6097V3.84616V2.99146H41.6667H46.7236V3.84616ZM46.8661 14.7436V21.6524H26.9943H7.12251V14.7436V7.83477H26.9943H46.8661V14.7436ZM17.2365 25.641V26.4957H12.1795H7.12251V25.641V24.7863H12.1795H17.2365V25.641ZM33.4758 25.641V26.4957H26.9231H20.3704V25.641V24.7863H26.9231H33.4758V25.641ZM46.7236 25.641V26.4957H41.6667H36.6097V25.641V24.7863H41.6667H46.7236V25.641Z" fill="black"/>
<path d="M22.3647 15.0285C22.3647 18.2764 22.4075 20.9402 22.4787 20.9402C22.7209 20.9402 33.661 15.1567 33.6468 15.0427C33.6468 14.9145 22.7209 9.13107 22.4787 9.11682C22.4075 9.11682 22.3647 11.7806 22.3647 15.0285Z" fill="black"/>
</svg>
