<svg width="50" height="38" viewBox="0 0 50 38" fill="none" xmlns="http://www.w3.org/2000/svg">
<path d="M10.2762 0.159969C6.52914 0.868173 3.23277 3.05717 1.06953 6.28915C0.155303 7.66693 0.0522911 7.95021 0.374202 8.16911C1.18542 8.69705 1.15966 8.55541 0.70899 9.89456C0.12955 11.6586 -0.0120911 12.5729 0.000785377 14.5172C0.000785377 16.4358 0.181056 17.4144 0.812001 19.1656C2.08677 22.7066 5.11273 25.7326 8.65375 27.0073C10.4822 27.6769 11.3707 27.8186 13.4953 27.8186C15.1564 27.8186 15.607 27.7671 16.7144 27.4838C19.2897 26.8013 22.0581 25.1016 23.5775 23.2603C23.9381 22.8096 24.3501 22.3074 24.466 22.1529L24.6978 21.8825L28.5607 24.3806C30.6853 25.7583 32.4108 26.943 32.385 27.0331C32.3593 27.1104 32.1661 27.4323 31.9601 27.7413C31.7412 28.0503 31.5867 28.3851 31.6253 28.4753C31.6897 28.6298 46.0727 37.9523 46.2401 37.9394C46.356 37.9394 50 32.2352 50 32.0549C50 31.9905 46.8324 29.8788 42.9566 27.3808C39.0679 24.8956 35.7715 22.771 35.617 22.668C35.3595 22.4877 35.3209 22.5263 34.8702 23.2345C34.5998 23.6466 34.368 23.9943 34.3551 24.02C34.3294 24.0458 26.449 19.024 26.2043 18.8308C26.1915 18.8179 26.2945 18.3673 26.449 17.8522C26.8353 16.5259 26.9383 13.2811 26.6421 11.5942C25.6893 6.12176 21.6847 1.84678 16.135 0.391745C14.5512 -0.0203014 11.8214 -0.123313 10.2762 0.159969ZM14.6284 3.10867C17.1522 3.59798 18.8776 4.51221 20.7061 6.34066C22.1869 7.82145 22.8436 8.87732 23.4874 10.783C23.848 11.8389 23.9123 12.2381 23.9638 13.6931C24.0282 15.6503 23.8222 16.9766 23.1913 18.4703C21.8135 21.7924 18.5815 24.4063 15.0405 25.063C13.8301 25.2948 11.9244 25.2433 10.8041 24.9471C7.52063 24.1101 4.45603 21.2129 3.32291 17.8651C2.52457 15.5087 2.65333 12.972 3.72208 10.577C4.08262 9.75292 4.10837 9.79155 3.28428 9.23786L3.001 9.04471L3.77358 7.88583C4.1985 7.24201 4.90671 6.36641 5.34451 5.91574C7.67514 3.55935 11.2934 2.47773 14.6284 3.10867Z" fill="black"/>
<path d="M12.0145 9.88162V12.5857H9.31047H6.60641V14.2596V15.9336H9.31047H12.0145V18.5732V21.2129H13.6885H15.3624V18.5732V15.9336H18.0021H20.6417V14.2596V12.5857H18.0021H15.3624V9.88162V7.17757H13.6885H12.0145V9.88162Z" fill="black"/>
</svg>
