<svg width="20" height="20" viewBox="0 0 50 50" fill="none" xmlns="http://www.w3.org/2000/svg">
<path d="M0 1.58224V3.16452H2.1097H4.21939V26.4465V49.7285H21.323H38.4266V40.0088V30.2892H36.769H35.1114V38.3512V46.4133H21.323H7.53463V24.7889V3.16452H21.323H35.1114V11.2266V19.2886H36.769H38.4266V9.6443V-2.78726e-05H19.2133H0V1.58224Z" fill="#666"/>
<path d="M41.1843 18.0229C40.5815 18.5654 40.0842 19.0777 40.0842 19.1681C40.0842 19.2435 40.898 20.1778 41.9076 21.2176L43.731 23.1314L31.6605 23.1766L19.59 23.2067V24.8643V26.5219H31.6906H43.7762L41.7418 28.4659L39.7075 30.3947L40.7473 31.5099C41.335 32.1277 41.8775 32.6401 41.9528 32.6702C42.1336 32.7154 49.9244 25.3767 49.9998 25.1054C50.045 24.8945 42.7364 17.1187 42.4501 17.0735C42.3446 17.0434 41.772 17.4804 41.1843 18.0229Z" fill="#666"/>
</svg>
