<svg width="50" height="43" viewBox="0 0 50 43" fill="none" xmlns="http://www.w3.org/2000/svg">
<path d="M5.54692 1.71879V3.43754H7.73442H9.92191V5.54691V7.65628H6.90629C3.20317 7.65628 2.75005 7.76566 1.4688 9.04691C-0.0312 10.5469 4.99999e-05 10.3438 4.99999e-05 19.375C4.99999e-05 28.4063 -0.0312 28.2031 1.4688 29.7031C2.75005 30.9844 3.25005 31.125 6.92192 31.2031L9.92191 31.2813V36.6563V42.0312H25.0781H40.2344V36.6563V31.2969L43.25 31.2188C46.0469 31.1563 46.3125 31.125 47.1094 30.75C48.25 30.2344 48.9687 29.5781 49.5469 28.5625L50 27.7344V19.375V11.0157L49.6406 10.3594C49.0937 9.31253 48.4063 8.64066 47.3906 8.12503L46.4375 7.65628H43.3281H40.2344V3.82816V4.25894e-05H22.8907H5.54692V1.71879ZM36.7969 5.54691V7.65628H25.0781H13.3594V5.54691V3.43754H25.0781H36.7969V5.54691ZM46.1563 11.4688L46.6406 11.9375V19.375V26.8125L46.1563 27.2813L45.6875 27.7344L42.9531 27.7813L40.2344 27.8281V24.1563V20.4688H25.0781H9.92191V24.1406V27.8125H7.42192C4.48442 27.8125 3.95317 27.6719 3.5938 26.8125C3.25005 26 3.25005 12.75 3.5938 11.9375C4.0313 10.8907 2.67192 10.9375 25.2656 10.9844L45.6875 11.0157L46.1563 11.4688ZM36.7969 31.3281V38.75H25.0781H13.3594V31.3281V23.9063H25.0781H36.7969V31.3281Z" fill="black"/>
<path d="M41.203 14.5313C40.2343 15.125 40.1093 16.3125 40.9218 17.125C41.3593 17.5625 41.578 17.6562 42.1093 17.6562C42.6405 17.6562 42.8593 17.5625 43.2968 17.125C43.8593 16.5625 43.9686 16.0156 43.6718 15.25C43.4999 14.7656 42.6561 14.2188 42.1093 14.2188C41.8905 14.2188 41.4843 14.3594 41.203 14.5313Z" fill="black"/>
<path d="M15.2344 28.2813V30H25.0781H34.9219V28.2813V26.5625H25.0781H15.2344V28.2813Z" fill="black"/>
<path d="M15.2344 34.1406V35.7812H22.4219H29.6094V34.1406V32.5H22.4219H15.2344V34.1406Z" fill="black"/>
</svg>
