<svg width="50" height="39" viewBox="0 0 50 39" fill="none" xmlns="http://www.w3.org/2000/svg">
<path d="M22.5466 0.170923C17.2172 1.23074 13.0385 5.33376 11.9787 10.5269C11.8424 11.1476 11.7213 11.6624 11.691 11.6775C11.6608 11.6927 11.1309 11.8289 10.4798 11.9652C7.90598 12.4951 5.58951 13.8274 3.6667 15.8411C-1.98062 21.7307 -0.966224 31.3447 5.75606 35.9928C7.04298 36.8861 8.42074 37.5068 10.177 38.0065C11.3277 38.3244 11.5699 38.3244 23.8335 38.385C36.9602 38.4455 38.671 38.385 40.5938 37.7945C43.0314 37.0375 45.4993 35.3872 47.1041 33.419C48.0126 32.2986 49.2843 29.8459 49.6477 28.4984C50.0413 27.0752 50.1171 23.8957 49.8142 22.3514C49.5266 20.9737 48.8301 19.2022 48.0277 17.8699C46.8922 15.9622 44.6968 14.0243 42.5318 12.9796C41.3811 12.4194 39.2161 11.7684 38.5347 11.7684C38.2925 11.7684 38.2168 11.6775 38.2168 11.3293C38.2168 11.0871 38.0503 10.2998 37.8232 9.55789C36.5665 5.19749 33.1448 1.77579 28.7541 0.488869C27.0584 -0.01076 24.212 -0.147022 22.5466 0.170923ZM28.088 3.78945C31.222 4.86441 33.4628 7.07489 34.5226 10.1786C34.8557 11.1476 34.9465 11.7532 35.0071 13.1613L35.0676 14.9478H36.2486C40.4121 14.9478 44.0004 17.0977 45.7112 20.6254C46.4228 22.1092 46.6953 23.3053 46.6953 24.9555C46.6953 27.3931 46.014 29.3765 44.606 31.1176C43.1979 32.8588 41.7293 33.9034 39.6551 34.5999L38.4439 35.0087H25.0448H11.6456L10.4344 34.5999C7.13382 33.4644 4.80222 31.1328 3.75754 27.8928C3.45474 26.9541 3.36389 26.3485 3.34875 25.1675C3.31847 23.3053 3.53044 22.3968 4.40857 20.5649C5.60465 18.0819 7.90598 16.1591 10.7372 15.3112C12.1604 14.8873 14.6585 14.9327 16.0817 15.4323C16.6873 15.6291 17.2021 15.7654 17.2324 15.72C17.3989 15.4475 18.0802 12.6314 18.0045 12.5557C17.9591 12.5102 17.3232 12.3134 16.5965 12.1317C15.037 11.7381 15.0068 11.6927 15.567 10.1029C16.0969 8.55863 16.7933 7.46853 18.0045 6.24217C20.1393 4.12253 22.3044 3.25954 25.3476 3.35038C26.5739 3.38066 27.1947 3.48664 28.088 3.78945Z" fill="black"/>
</svg>
