<svg width="50" height="50" viewBox="0 0 60 60" fill="none" xmlns="http://www.w3.org/2000/svg">
<path d="M51.2133 8.78672C45.5469 3.12059 38.0133 0 30 0C21.9867 0 14.4531 3.12059 8.78672 8.78672C3.12059 14.4531 0 21.9867 0 30C0 38.0133 3.12059 45.5469 8.78672 51.2133C14.4531 56.8794 21.9867 60 30 60C38.0133 60 45.5469 56.8794 51.2133 51.2133C56.8794 45.5469 60 38.0133 60 30C60 21.9867 56.8794 14.4531 51.2133 8.78672ZM7.77844 44.393C6.03645 41.5928 5.11758 38.3831 5.11758 35.0548C5.11758 25.2868 13.0644 17.3401 22.8322 17.3401C27.2916 17.3401 31.3707 18.997 34.4882 21.7267C33.078 21.2505 31.5687 20.9923 30 20.9923C29.8788 20.9923 29.758 20.9938 29.6375 20.9968C19.0498 21.1909 10.4961 29.8628 10.4961 40.4961C10.4961 44.1585 11.5116 47.5879 13.2745 50.5188C11.1414 48.7767 9.28395 46.7094 7.77844 44.393ZM40.5469 35.0546C40.5469 40.8702 35.8155 45.6015 30 45.6015C24.1845 45.6015 19.4531 40.8702 19.4531 35.0546C19.4531 29.2391 24.1845 24.5078 30 24.5078C35.8155 24.5078 40.5469 29.2391 40.5469 35.0546ZM30 56.4844C29.8622 56.4844 29.7251 56.4812 29.5877 56.4791C20.9616 56.2597 14.0116 49.1742 14.0116 40.4961C14.0116 37.5731 14.8008 34.8313 16.1762 32.4711C16.02 33.3089 15.9375 34.1723 15.9375 35.0546C15.9375 42.8087 22.2459 49.1171 30 49.1171C37.7541 49.1171 44.0625 42.8087 44.0625 35.0546C44.0625 34.9335 44.061 34.8127 44.0579 34.6922C43.8636 23.1525 34.4175 13.8244 22.8322 13.8244C14.5877 13.8244 7.42605 18.5484 3.91113 25.4317C6.08203 12.9977 16.954 3.51562 30 3.51562C44.6036 3.51562 56.4844 15.3964 56.4844 30C56.4844 44.6036 44.6036 56.4844 30 56.4844Z" fill="#000"/>
</svg>
