<svg width="150" height="123" viewBox="0 0 150 123" fill="none" xmlns="http://www.w3.org/2000/svg">
<path d="M73.3984 0.828125C69.5312 1.92188 66.3672 4.69531 65.1562 8.01562C64.7266 9.14844 64.375 9.42188 61.7578 10.2812C60.1172 10.8281 57.5781 11.8438 56.0938 12.5859L53.4375 13.875L51.4062 13.1328C48.9062 12.1562 43.9062 12.2734 41.7578 13.3281C39.3359 14.5 37.2266 16.6484 36.0547 18.9531C34.6484 21.8438 34.5312 26.1016 35.7812 28.8359L36.5625 30.5938L34.8828 34.1094C33.9844 36.0234 32.9297 38.8359 32.5391 40.3203C31.8359 42.9766 31.8359 43.0156 29.8047 43.875C27.3438 44.9688 25.0391 47.2344 23.7891 49.7734C22.3828 52.6641 22.4609 57.1172 23.9453 60.1641C25.2344 62.8203 27.4219 64.8125 30.3125 65.9844C32.2656 66.8047 32.4609 67 33.0469 68.8359C33.3984 69.9297 34.3359 72.1562 35.1562 73.7578L36.6016 76.6875L35.8203 78.4453C34.6484 80.9453 34.6875 85.3984 35.8594 88.0156C36.9922 90.4766 39.0625 92.6641 41.6016 93.9922C43.2812 94.8906 44.0234 95.0469 46.875 95.0469C49.4141 95.0469 50.5859 94.8516 51.7578 94.2656L53.3203 93.4844L55.9375 94.7734C57.3828 95.5156 59.7266 96.4922 61.1328 97C64.0234 98.0156 63.8281 98.2109 59.6875 98.6016C51.6406 99.3047 40.1562 96.1016 31.9922 90.8281C27.3828 87.8984 21.7188 82.7812 18.8672 79.1094L18.0078 78.0156L14.4922 80.4375L10.9375 82.8984V98.6406V114.383H5.46875H0V118.484V122.586H75H150V77.2734V31.9219L148.75 32.1172C148.047 32.2344 146.602 32.4297 145.508 32.5469C142.852 32.8984 138.516 34.6172 135.703 36.4531C134.453 37.3125 131.602 39.7344 129.414 41.8438C126.875 44.3438 125.352 45.5156 125.195 45.2031C125.039 44.9688 123.984 44.3828 122.891 43.875C120.977 43.0156 120.859 42.8594 120.352 40.9062C119.727 38.4844 117.891 33.9141 116.797 32.0781C116.055 30.8281 116.055 30.7891 116.875 28.9531C117.969 26.5703 118.008 22 116.992 19.6562C115.859 17.0391 113.867 14.9297 111.25 13.6406C109.219 12.625 108.398 12.4297 106.016 12.4297C104.141 12.4297 102.461 12.7031 101.211 13.1719L99.2969 13.875L96.6406 12.5859C95.1562 11.8438 92.6172 10.8281 90.9766 10.2812C88.0859 9.30469 87.9688 9.22656 87.3438 7.54688C85.4688 2.625 78.6719 -0.617188 73.3984 0.828125ZM78.2812 9.73438C79.8047 10.9453 80.1953 12.1953 79.5312 13.7969C78.9062 15.2422 77.8906 15.9453 76.3672 15.9453C74.8438 15.9453 73.8281 15.2422 73.2031 13.7969C72.8516 12.8594 72.7734 12.1562 73.0078 11.5312C73.4766 10.2812 75.2734 8.91406 76.3672 8.91406C76.8359 8.91406 77.6953 9.30469 78.2812 9.73438ZM67.4609 20.6328C68.1641 21.4141 69.5312 22.5078 70.5078 23.0156L72.2656 23.9531V33.7188V43.4844L65.0781 36.2969C58.5156 29.7344 57.8906 29.0312 58.3203 28.2891C58.5547 27.8203 58.7891 26.0234 58.7891 24.2266C58.8281 22.4688 58.9453 20.9062 59.0625 20.7891C59.1797 20.6719 60.6641 19.9688 62.3438 19.2266C65.1562 18.0156 65.4688 17.9766 65.8203 18.5625C66.0547 18.9141 66.7969 19.8516 67.4609 20.6328ZM92.5 20.2031L93.9062 20.9062L93.9453 23.9922C93.9844 25.7109 94.1406 27.5859 94.2969 28.25C94.5703 29.3828 94.2578 29.7344 87.5391 36.4531L80.4688 43.4844V33.7188L80.5078 23.9531L82.5391 22.7812C83.6719 22.1172 85.1562 20.7891 85.8984 19.7734L87.2656 17.9766L89.1797 18.7188C90.2344 19.1484 91.7188 19.8125 92.5 20.2031ZM48.7109 21.4141C51.6797 23.2109 50.3516 27.6641 46.8359 27.6641C45.7031 27.6641 45.1562 27.3906 44.375 26.4531C42.7734 24.5781 43.125 22.3906 45.2344 21.2578C46.6406 20.4766 47.2266 20.4766 48.7109 21.4141ZM107.227 21.1016C108.359 21.6094 109.375 23.25 109.375 24.5C109.375 24.9297 108.906 25.7891 108.359 26.4531C107.578 27.4297 107.031 27.6641 105.859 27.6641C102.188 27.6641 100.977 22.9766 104.219 21.2578C105.508 20.5156 105.938 20.5156 107.227 21.1016ZM59.1797 42.5078L66.2109 49.5391H55.9766H45.7422L44.5703 47.8594C43.9453 46.9219 42.7344 45.6719 41.875 45.0859L40.3125 43.9922L40.9766 42C41.3672 40.8672 42.0703 39.0703 42.5391 37.9766L43.3984 35.9844L46.2109 36.1406C47.7734 36.2578 49.4531 36.1406 50 35.9453C50.5469 35.7109 51.25 35.5156 51.5625 35.5156C51.875 35.4766 55.3125 38.6406 59.1797 42.5078ZM106.055 36.0625L109.18 36.1016L110.039 37.8594C110.508 38.7969 111.25 40.5938 111.68 41.8047L112.422 44.0312L110.938 45.0078C110.117 45.5547 108.867 46.8047 108.203 47.7812L106.992 49.5391H96.7578H86.5234L93.5547 42.4688C100.312 35.7109 100.625 35.4375 101.758 35.75C102.422 35.9062 104.336 36.0625 106.055 36.0625ZM141.406 78.8359V114.383H132.812H124.219V87.1953V60.0078L129.453 54.3047C132.344 51.1406 135.273 48.0156 135.977 47.3516C137.383 46.0625 140.938 43.2891 141.25 43.2891C141.328 43.2891 141.406 59.2656 141.406 78.8359ZM37.0703 52.3125C39.7656 54.8125 37.1094 59.3047 33.6719 58.0938C33.0078 57.8594 32.1875 57.2734 31.875 56.7656C29.6484 53.4062 34.1406 49.5781 37.0703 52.3125ZM58.8672 65.0859L51.9141 72.0781L49.8828 71.5312C48.6328 71.1797 47.0312 71.0625 45.6641 71.2188L43.4766 71.4531L42.2266 68.6797C41.5625 67.1953 41.0156 65.8281 41.0156 65.7109C41.0156 65.5938 41.9141 64.6562 42.9688 63.6016C44.0625 62.5078 45.3125 60.8672 45.7422 59.8906L46.5234 58.1328H56.1719H65.8203L58.8672 65.0859ZM106.836 59.5781C107.188 60.3594 107.891 61.6094 108.438 62.3125C108.984 63.0547 109.297 63.7969 109.141 64.1094C108.398 65.3594 102.812 71.1797 101.914 71.6094C100.938 72.1172 100.781 72 93.9062 65.125L86.9141 58.1328H96.5625H106.25L106.836 59.5781ZM72.2656 74.0703V84.1875L70.6641 84.8906C69.8047 85.2812 68.3203 86.4922 67.3828 87.5469C65.4297 89.6953 65.5469 89.6953 61.25 87.7422L58.6328 86.5312L58.8281 84.1484C58.9453 82.625 58.8281 81.1406 58.4766 80.0078L57.9297 78.25L65 71.1016C68.8672 67.1953 72.1094 63.9922 72.1484 63.9922C72.2266 63.9922 72.2656 68.5234 72.2656 74.0703ZM94.5312 78.875C94.1016 79.6562 90.0781 83.3281 87.2656 85.5156L85.2734 87.0391L83.2031 85.6719C82.1094 84.9297 81.0156 84.3047 80.8203 84.3047C80.625 84.3047 80.4688 79.8516 80.4688 74.0703V63.7969L87.6562 70.9844C93.5547 76.8828 94.8047 78.3281 94.5312 78.875ZM115.625 92.3125V114.383H106.836H98.0469V101.18V87.9375L102.461 83.8359C104.844 81.5703 108.789 77.5859 111.133 74.9688C113.516 72.3906 115.469 70.2422 115.547 70.2422C115.586 70.2422 115.625 80.1641 115.625 92.3125ZM49.2578 80.75C50.0391 81.5312 50.3906 82.2734 50.3906 83.1328C50.3906 83.9922 50.0391 84.7344 49.2578 85.5156C48.4766 86.2969 47.7344 86.6484 46.875 86.6484C45.1953 86.6484 43.3594 84.8125 43.3594 83.1328C43.3594 82.2734 43.7109 81.5312 44.4922 80.75C45.2734 79.9688 46.0156 79.6172 46.875 79.6172C47.7344 79.6172 48.4766 79.9688 49.2578 80.75ZM27.8125 98.4453C29.6094 99.5781 32.3438 101.102 33.9062 101.844L36.7188 103.211V108.797V114.383H28.125H19.5312V103.406V92.4297L22.0312 94.4219C23.3984 95.5156 26.0156 97.3516 27.8125 98.4453ZM89.4531 104.617V114.383H80.6641H71.875V109.5V104.617L73.5547 103.953C76.6016 102.742 82.2656 99.6562 85.7812 97.2734C87.6953 95.9844 89.2969 94.8906 89.375 94.8906C89.4141 94.8516 89.4531 99.2266 89.4531 104.617ZM49.2188 106.609C50.625 106.844 54.3359 107.078 57.5391 107.117L63.2812 107.156V110.75V114.383H54.2969H45.3125V110.047C45.3125 106.141 45.3906 105.75 46.0156 105.945C46.3672 106.062 47.8125 106.336 49.2188 106.609Z" fill="black"/>
</svg>
