<svg width="50" height="30" viewBox="0 0 50 30" fill="none" xmlns="http://www.w3.org/2000/svg">
<path d="M0 1.56697V3.13392H1.9943H3.9886V16.453V29.7721H26.9943H50V14.8861V1.60802e-05H25H0V1.56697ZM35.0712 8.34759C30.6838 11.2251 27.0655 13.5755 27.037 13.5898C26.9516 13.604 11.1111 3.26212 11.1111 3.1909C11.1111 3.16241 18.3048 3.13392 27.0798 3.13392H43.0627L35.0712 8.34759ZM18.433 11.8091C23.1197 14.8718 26.9801 17.3789 26.9943 17.3789C27.0513 17.3789 46.4387 4.72936 46.6952 4.52993C46.8234 4.41597 46.8661 6.62395 46.8661 15.5128V26.6382H26.9943H7.12251V15.5271V4.43022L8.51852 5.32765C9.2735 5.82623 13.7322 8.73221 18.433 11.8091Z" fill="black"/>
</svg>
