<svg width="30" height="28" viewBox="0 0 30 28" fill="none" xmlns="http://www.w3.org/2000/svg">
<g clip-path="url(#clip0)">
<path d="M14.6183 22.2419C14.6183 21.995 14.6921 21.7537 14.8304 21.5485C14.9686 21.3432 15.1652 21.1832 15.3951 21.0888C15.6251 20.9943 15.8781 20.9696 16.1222 21.0177C16.3663 21.0659 16.5905 21.1848 16.7665 21.3593C16.9425 21.5339 17.0623 21.7563 17.1109 21.9984C17.1594 22.2405 17.1345 22.4915 17.0393 22.7195C16.944 22.9476 16.7827 23.1425 16.5758 23.2797C16.3689 23.4168 16.1256 23.49 15.8767 23.49C15.5429 23.49 15.2229 23.3585 14.9869 23.1245C14.7509 22.8904 14.6183 22.5729 14.6183 22.2419ZM14.7735 16.3507V12.6062H17.0008V16.3507L16.7534 19.6791H15.021L14.7735 16.3507ZM15.8893 0L2.82299 25.9156H0V27.9958H30L15.8893 0ZM15.8893 4.65141L26.6107 25.9156H5.16779L15.8893 4.65141Z" fill="#222222"/>
</g>
<defs>
<clipPath id="clip0">
<rect width="30" height="28" fill="white"/>
</clipPath>
</defs>
</svg>
