<svg width="50" height="63" viewBox="0 0 50 63" fill="none" xmlns="http://www.w3.org/2000/svg">
<path d="M25 0.293213C23.3594 0.7229 21.8555 1.85571 21.1719 3.14478L20.8789 3.69165H18.2617H15.625V5.84009V7.98853H10.5469H5.46875V33.1838V58.3792H2.73438H0V60.5276V62.676H25H50V35.3323V7.98853H45.0195H40.0391V5.84009V3.69165H37.3633L34.668 3.67212L34.1406 2.81274C33.0469 0.996338 30.7227 -0.0192871 27.7539 0.000244141C26.8359 0.000244141 25.5859 0.136963 25 0.293213ZM29.9023 4.72681C30.5469 5.15649 30.5664 5.21509 30.625 6.58228L30.6836 7.98853H33.2031H35.7422V11.4065V14.8245H27.832H19.9219V11.4065V7.98853H22.3633H24.8047V6.93384C24.8047 4.84399 25.4297 4.29712 27.8516 4.27759C28.9844 4.27759 29.3555 4.35571 29.9023 4.72681ZM15.625 13.5549V14.8245H13.8672H12.1094V35.7229V56.6213H27.7344H43.3594V35.7229V14.8245H41.6992H40.0391V13.5549V12.2854H42.8711H45.7031V35.3323V58.3792H27.7344H9.76562V35.3323V12.2854H12.6953H15.625V13.5549ZM39.2578 35.7229V52.3245H27.832H16.4062V35.7229V19.1213H27.832H39.2578V35.7229Z" fill="black"/>
<path d="M19.5312 24.7854V26.9338H27.832H36.1328V24.7854V22.637H27.832H19.5312V24.7854Z" fill="black"/>
<path d="M19.5312 32.2073V34.3557H27.832H36.1328V32.2073V30.0588H27.832H19.5312V32.2073Z" fill="black"/>
<path d="M19.5312 39.6292V41.7776H27.832H36.1328V39.6292V37.4807H27.832H19.5312V39.6292Z" fill="black"/>
<path d="M19.5312 47.051V49.1995H27.832H36.1328V47.051V44.9026H27.832H19.5312V47.051Z" fill="black"/>
</svg>
