<svg width="50" height="47" viewBox="0 0 50 47" fill="none" xmlns="http://www.w3.org/2000/svg">
<path d="M15.5017 21.6553L4.68227 43.3108H2.34114H0V45.1503V46.9897H25H50L38.2609 23.4948C31.7893 10.5683 26.4716 -0.00022335 26.4214 -0.00022335C26.3712 -0.00022335 21.4716 9.74894 15.5017 21.6553ZM35.2508 25.6687C40.0502 35.2841 43.9799 43.177 43.9799 43.2272C43.9799 43.2774 36.087 43.3108 26.4214 43.3108C16.7726 43.3108 8.86288 43.2774 8.86288 43.2272C8.86288 43.06 26.3378 8.19376 26.4214 8.19376C26.4716 8.19376 30.4348 16.0533 35.2508 25.6687Z" fill="black"/>
<path d="M24.4147 23.9461C24.4147 25.5347 24.5318 28.1936 24.6655 29.8491C24.7993 31.5046 24.9164 32.9093 24.9164 32.9762C24.9164 33.0933 27.9264 33.1769 27.9264 33.0598C28.2776 29.0465 28.4114 26.4043 28.4281 24.0297V21.0699H26.4214H24.4147V23.9461Z" fill="black"/>
<path d="M25.5017 35.2671C25.3177 35.3508 24.9833 35.6183 24.7492 35.8692C24.398 36.237 24.3311 36.4879 24.3311 37.3073C24.3311 38.1936 24.3813 38.3441 24.883 38.829C25.3679 39.3307 25.5184 39.3809 26.4214 39.3809C27.3244 39.3809 27.4749 39.3307 27.9599 38.829C28.4616 38.3441 28.5117 38.1936 28.5117 37.2906C28.5117 36.3875 28.4616 36.237 27.9766 35.7688C27.5585 35.3508 27.291 35.2337 26.6388 35.1835C26.204 35.1501 25.6856 35.1835 25.5017 35.2671Z" fill="black"/>
</svg>
