<svg width="50" height="54" viewBox="0 0 50 54" fill="none" xmlns="http://www.w3.org/2000/svg">
<path d="M0 1.48133V2.96261H1.88527H3.77054V24.3739V45.7851H9.42634H15.0821V49.8923V53.9995H32.5478H50L49.9192 45.2869C49.8653 40.5064 49.8249 30.2047 49.8249 22.3943V8.21443H44.1691H38.5133L38.4864 4.13417L38.446 0.0673813L19.2297 0.0269827L0 5.02802e-05V1.48133ZM35.6854 22.9599V42.9572H21.1419H6.59844V22.9599V2.96261H21.1419H35.6854V22.9599ZM39.86 15.4862V19.7954H39.1866H38.5133V15.4862V11.177H39.1866H39.86V15.4862ZM46.997 15.4862V19.7954H44.9098H42.8225V15.4862V11.177H44.9098H46.997V15.4862ZM39.86 26.5285V30.299H39.1866H38.5133V26.5285V22.7579H39.1866H39.86V26.5285ZM46.997 26.5285V30.299H44.9098H42.8225V26.5285V22.7579H44.9098H46.997V26.5285ZM39.86 37.0321V40.8026H39.1866H38.5133V37.0321V33.2616H39.1866H39.86V37.0321ZM46.997 37.0321V40.8026H44.9098H42.8225V37.0321V33.2616H44.9098H46.997V37.0321ZM39.86 47.4011V51.1716H37.234H34.6081V48.4784V45.7851H36.5607H38.5133V44.7078V43.6305H39.1866H39.86V47.4011ZM46.997 47.4011V51.1716H44.9098H42.8225V47.4011V43.6305H44.9098H46.997V47.4011ZM23.5658 48.4784V51.1716H20.7379H17.91V48.4784V45.7851H20.7379H23.5658V48.4784ZM31.7802 48.4784V51.1716H29.087H26.3938V48.4784V45.7851H29.087H31.7802V48.4784Z" fill="black"/>
<path d="M16.3884 19.0816C17.6138 21.1419 18.6238 22.8925 18.6238 22.9598C18.6238 23.0406 17.5599 24.9394 16.2537 27.1882C14.9475 29.4236 13.8702 31.282 13.8702 31.3224C13.8702 31.3493 14.9475 31.3762 16.2806 31.3762H18.6776L19.6876 29.4506C20.2532 28.4002 20.7918 27.3094 20.8861 27.0266C20.9803 26.7573 21.1015 26.5284 21.1419 26.5284C21.1823 26.5284 21.3035 26.7573 21.3978 27.0266C21.4921 27.3094 22.0442 28.4002 22.6097 29.4506L23.6332 31.3762H26.0302C27.3364 31.3762 28.4137 31.3493 28.4137 31.3089C28.4137 31.2685 27.3499 29.4236 26.0571 27.2017C24.7643 24.9932 23.687 23.1214 23.6736 23.0676C23.6332 22.9598 24.1718 22.0172 27.1075 17.0617L28.1309 15.3514H25.7878H23.4447L22.5155 17.0213C21.9903 17.937 21.4921 18.9335 21.3978 19.2432C21.2093 19.8896 21.1285 19.8492 20.7649 18.92C20.6168 18.5429 20.1454 17.6138 19.7011 16.8327L18.8796 15.4188L16.523 15.3784L14.153 15.3514L16.3884 19.0816Z" fill="black"/>
</svg>
