<svg width="50" height="49" viewBox="0 0 50 49" fill="none" xmlns="http://www.w3.org/2000/svg">
<path d="M24.7361 0.707615C24.0285 2.8305 19.0057 17.2328 18.9502 17.2883C18.8809 17.3438 1.60643 18.1763 0.385427 18.1763C-0.0863239 18.1763 -0.0863239 18.1763 0.177302 18.426C0.329927 18.5648 3.74319 21.1455 7.78082 24.1426C11.8046 27.1396 15.093 29.6648 15.093 29.7481C15.093 29.8313 13.7748 33.9522 12.1653 38.8917C10.5697 43.8451 9.26545 47.9383 9.2932 48.0076C9.32095 48.0631 12.873 45.5934 17.202 42.5131L25.0691 36.9076L32.853 42.4715C37.1404 45.524 40.6785 47.9938 40.7202 47.9521C40.7757 47.9105 39.513 43.8174 37.9452 38.8779C36.3634 33.9383 35.073 29.8174 35.073 29.7342C35.073 29.6509 38.403 27.0841 42.4823 24.0316C46.5616 20.9652 49.9332 18.3983 49.9887 18.315C50.0442 18.2318 49.8916 18.1763 49.6141 18.1763C47.8519 18.1624 31.2574 17.3299 31.188 17.2467C31.1325 17.1773 29.745 13.2784 28.1216 8.57476C26.4844 3.85725 25.1107 -1.22609e-05 25.0552 -1.22609e-05C25.0136 -1.22609e-05 24.861 0.319114 24.7361 0.707615ZM27.0255 14.7769C28.0245 17.6768 28.8986 20.1049 28.968 20.1743C29.0651 20.2714 38.7499 20.7987 40.8173 20.8125H41.6359L34.9482 25.8353L28.2465 30.8581L28.5795 31.1078C28.7599 31.2327 29.3426 31.6628 29.8838 32.0375L30.8689 32.7312L31.6181 32.1762C32.1454 31.7877 32.3813 31.6767 32.4506 31.8016C32.5339 31.9542 34.2128 37.2267 34.9343 39.5577L35.1702 40.3486L30.1335 36.7411C27.0116 34.5072 25.0275 33.1752 24.9304 33.2446C24.8332 33.3001 22.5716 34.8957 19.9076 36.7966C17.2436 38.6975 15.0375 40.2376 15.0236 40.2099C14.9958 40.1821 15.8145 37.5875 16.8412 34.424C17.8819 31.2743 18.6866 28.6103 18.645 28.5132C18.6172 28.4161 16.3278 26.6678 13.5806 24.6143L8.5717 20.8819L9.22383 20.8403C9.59845 20.8125 12.4012 20.6877 15.4815 20.5489C18.5617 20.4102 21.1286 20.2437 21.1841 20.1743C21.2396 20.1049 22.1276 17.6352 23.1544 14.6798C24.1672 11.7244 25.0552 9.35176 25.1107 9.40727C25.1662 9.46277 26.0265 11.877 27.0255 14.7769Z" fill="black"/>
</svg>
