<svg width="50" height="46" viewBox="0 0 50 46" fill="none" xmlns="http://www.w3.org/2000/svg">
<path d="M23.848 0.241838C23.0957 0.525742 22.4285 0.965793 21.6336 1.67555C21.2503 2.03043 21.08 2.07302 20.0011 2.1298C18.6242 2.20077 17.5879 2.59824 16.6936 3.37898C15.7142 4.23069 15.7426 4.03196 15.7426 10.292V15.9417H14.5786C13.6701 15.9417 13.2442 16.0127 12.7332 16.254C11.9808 16.5947 10.7175 17.7161 10.4194 18.2981C10.0219 19.0363 9.79477 31.4003 10.1497 32.6353C10.1922 32.8056 8.85789 33.8419 5.11036 36.539C2.29971 38.5689 8.74956e-05 40.2581 8.74956e-05 40.3149C-0.0141077 40.4994 1.70351 42.7706 1.83127 42.7423C1.90224 42.7281 3.94635 41.266 6.38793 39.4916C8.81531 37.7314 10.8878 36.2551 10.973 36.2267C11.0581 36.1983 11.2853 36.4396 11.4698 36.7661C12.5344 38.654 15.8277 42.2028 18.6384 44.5167L20.0437 45.6807H30.392H40.7261V44.1192V42.5577H38.8098H36.8934L37.2341 41.8764C37.8729 40.6272 38.753 38.3843 39.2072 36.8796L39.6615 35.3891L39.7324 25.3531L39.8034 15.3171L44.8427 11.669C47.6108 9.66745 49.9246 7.99242 49.9956 7.93563C50.0949 7.83627 48.4909 5.46567 48.278 5.40889C48.2212 5.39469 46.2906 6.74324 43.991 8.41827L39.8034 11.456L39.7182 10.4766C39.6189 9.19901 39.1221 8.46086 37.958 7.85046C37.2625 7.49558 36.9786 7.42461 36.0275 7.42461H34.9061V5.99089C34.9061 4.13132 34.8351 3.79064 34.2531 3.12346C33.4724 2.20077 32.6774 1.90268 30.9882 1.88848H29.5403L28.9299 1.26389C27.993 0.327009 27.3826 0.0856905 25.8921 0.0147145C24.8701 -0.0278711 24.4584 0.0147145 23.848 0.241838ZM26.1051 3.16605L26.5309 3.39317V12.2226V21.0662L22.7834 23.7775C20.7109 25.268 18.9933 26.4604 18.9507 26.4036C18.9081 26.361 18.8655 21.6198 18.8655 15.8566V5.3805L19.1778 5.16757C19.5753 4.88367 20.1857 4.88367 20.7109 5.15338L21.1367 5.3805V13.6705V21.9747H22.6272H24.1177V14.6925C24.1177 10.7037 24.1603 6.51611 24.2171 5.39469C24.3023 3.39317 24.3165 3.36478 24.6713 3.16605C25.154 2.89634 25.594 2.91053 26.1051 3.16605ZM31.4708 4.88367L31.7831 5.0966V11.1721V17.2619L30.6901 18.0568L29.5829 18.8517L29.5403 12.0806L29.5119 5.29533L29.8668 4.96884C30.3068 4.59976 31.0166 4.55718 31.4708 4.88367ZM36.3398 10.4766C36.5811 10.6185 36.6095 10.7889 36.6095 12.2226L36.5953 13.8124L35.8288 14.3377C35.4171 14.6358 35.0338 14.8771 34.9912 14.8771C34.9487 14.8771 34.9061 13.9402 34.9061 12.8046C34.9061 10.9876 34.9345 10.7037 35.1616 10.5334C35.4597 10.3062 35.9565 10.2778 36.3398 10.4766ZM36.6095 26.1197C36.6095 34.2677 36.5953 34.5516 36.2972 35.6589C35.8997 37.1777 34.8351 39.8039 33.9976 41.3227L33.3304 42.5577H27.2407H21.1509L20.1147 41.6776C17.5879 39.5483 14.6921 36.326 13.9256 34.8213L13.6417 34.2393L16.5233 32.1526C18.1132 31.0028 19.4901 30.0659 19.5895 30.0659C19.8592 30.0659 21.0374 31.0028 21.5058 31.5848C22.0736 32.2804 22.755 33.5296 22.9821 34.2535C23.0815 34.5658 23.1808 34.8639 23.2092 34.9065C23.2376 34.9491 23.8764 34.8213 24.6429 34.6226C26.0199 34.2393 26.0341 34.2393 26.0199 33.8135C25.9631 32.6353 24.7139 30.4066 23.3228 29.0013L22.3007 27.9793L27.0135 24.5724C31.6128 21.2365 31.7122 21.1656 31.7547 21.563L31.7973 21.9747H33.3588H34.9061V20.4132V18.8659L35.6584 18.2981C36.0559 17.9858 36.4392 17.7303 36.5101 17.7303C36.5669 17.7161 36.6095 21.492 36.6095 26.1197ZM15.3735 19.2918L15.7426 19.5757V24.2317V28.8877L14.4366 29.8246L13.1164 30.7473L13.0739 27.8231C13.0597 26.2049 13.0881 23.7065 13.159 22.2728L13.2726 19.6751L13.6559 19.3344C14.1527 18.9085 14.8625 18.8943 15.3735 19.2918Z" fill="black"/>
</svg>
