<svg width="40" height="20" viewBox="0 0 50 30" fill="none" xmlns="http://www.w3.org/2000/svg">
<path d="M22.3739 0.0867995C19.7984 0.402166 16.4477 1.25628 13.859 2.25495C11.7303 3.08278 8.4978 4.7516 6.6713 5.97365C4.38489 7.49792 4.06952 7.76073 4.24034 7.99725C4.31918 8.10237 4.49001 8.3389 4.62141 8.536L4.87108 8.89079L2.90003 10.8881C0.692466 13.1351 -0.0959511 14.0549 0.0091712 14.2914C0.363959 15.2113 5.30471 20.3228 7.65682 22.2019C11.9668 25.6447 16.4082 27.9048 20.8102 28.8772C21.9272 29.1268 22.5185 29.1663 24.9363 29.1663C27.4067 29.1794 27.9323 29.14 29.1412 28.8772C33.5826 27.9048 38.024 25.6578 42.3472 22.2019C44.7256 20.2966 49.64 15.2244 49.9948 14.2914C50.0868 14.0812 48.9436 12.7146 47.3799 11.1115C41.5325 5.14581 35.0543 1.40083 28.6813 0.270763C27.2358 0.00795774 23.8062 -0.0840243 22.3739 0.0867995ZM28.7338 3.21419C34.0557 4.35739 39.4694 7.5242 44.7256 12.5964L46.3944 14.2126L45.2775 15.4084C40.1002 20.9536 34.5944 24.5277 29.0361 25.9337C27.7352 26.2623 27.4329 26.2885 25.002 26.2885C22.571 26.2885 22.2688 26.2623 20.9679 25.9337C20.1927 25.7366 18.9706 25.3556 18.2742 25.0928C13.8722 23.4634 8.78688 19.8235 4.76595 15.4478L3.60961 14.2126L5.27843 12.5832L6.94724 10.967L6.53989 10.4545L6.14568 9.95515L6.69758 9.49524C9.61472 7.11685 15.1731 4.5545 19.7459 3.47699C22.7156 2.78056 26.224 2.67544 28.7338 3.21419Z" fill="black"/>
<path d="M22.5973 5.06689C19.6013 5.85531 17.0784 8.20742 16.0535 11.1771C15.5804 12.5437 15.4622 14.9878 15.7907 16.4332C16.5528 19.7183 19.2466 22.4778 22.5316 23.345C23.8457 23.6998 25.935 23.7261 27.2358 23.4107C30.6392 22.5829 33.3855 19.8234 34.2002 16.407C34.5418 14.9747 34.4236 12.5831 33.9505 11.1771C32.9387 8.20742 30.3764 5.84217 27.3541 5.06689C26.0138 4.72524 23.9245 4.72524 22.5973 5.06689ZM27.3278 8.07601C30.1267 9.16666 31.9138 12.1758 31.5064 15.1061C31.0071 18.6277 27.5249 21.2689 24.0953 20.717C22.6762 20.4936 21.2045 19.7183 20.2715 18.7065C18.0376 16.3018 17.8405 12.9379 19.7459 10.3361C20.5869 9.19294 21.7038 8.39138 23.0967 7.93147C24.1216 7.58982 26.2766 7.66867 27.3278 8.07601Z" fill="black"/>
<path d="M24.9363 10.1652V11.5844L25.5539 11.7552C27.998 12.3991 28.2608 15.5922 25.9612 16.5646C25.0677 16.9325 23.9771 16.7354 23.2412 16.0652C22.8733 15.7236 22.4528 14.8563 22.4397 14.4227C22.4397 14.1467 22.4002 14.1336 20.9811 14.1336H19.5094L19.6014 14.8563C20.0218 18.4173 23.6748 20.5723 27.0782 19.2583C27.9586 18.9298 29.2069 17.8392 29.7194 16.9588C31.5327 13.8708 29.8245 9.86301 26.316 8.94319C24.8837 8.57526 24.9363 8.53584 24.9363 10.1652Z" fill="black"/>
</svg>
