<svg width="50" height="89" viewBox="0 0 50 89" fill="none" xmlns="http://www.w3.org/2000/svg">
<path d="M19.0828 0.376627C11.5059 1.75425 4.61774 6.84088 0.723291 13.9675C0.0874621 15.0802 0.0874621 15.1067 0.617319 15.4511C2.1804 16.5903 2.10092 16.3518 1.35912 18.5242C0.988219 19.6104 0.484855 21.8623 0.246419 23.5314C-0.256945 27.0814 0.00798351 30.552 1.0677 34.0226C1.783 36.2744 24.5404 88.2004 24.8318 88.2004C25.0437 88.2004 47.5097 38.3939 48.5164 35.7181C49.5496 32.9363 50 30.2341 50 26.684C50 22.6571 49.6821 20.7231 48.5694 17.385C47.2712 13.5966 45.5757 10.9208 42.4495 7.79463C39.4294 4.80093 36.8066 3.0789 33.0711 1.67478C28.8057 0.0587123 23.5071 -0.418159 19.0828 0.376627ZM28.7792 6.89387C35.3495 8.56292 40.648 13.3846 42.9529 19.7959C44.4895 24.1142 44.463 28.9889 42.8734 33.3072C40.3831 39.9834 25.1762 73.5764 24.8053 73.1525C24.5404 72.8346 14.9235 51.5078 12.1152 45.0171C10.6316 41.5995 8.8301 37.4666 8.1148 35.8506C6.68418 32.6184 6.02186 29.9427 6.02186 27.5053C6.02186 25.3329 6.71068 22.2067 7.63793 20.1668C8.06181 19.213 8.40622 18.3653 8.40622 18.2593C8.40622 18.1268 7.98233 17.8089 7.47897 17.491L6.55172 16.9612L7.66442 15.1596C9.30698 12.5104 12.0887 9.86107 14.632 8.53643C19.2948 6.12558 23.6926 5.62221 28.7792 6.89387Z" fill="black"/>
<path d="M22.7124 16.4844C19.5598 17.1997 16.725 19.5045 15.3474 22.4452C14.7116 23.7964 14.6321 24.2733 14.6321 26.8696C14.6321 29.4923 14.7116 29.9427 15.3474 31.3204C19.4538 40.063 32.0644 39.3742 35.1375 30.2341C37.7603 22.4452 30.7132 14.6563 22.7124 16.4844ZM26.2095 22.2333C27.5341 22.6042 28.7793 23.6904 29.3621 25.0151C29.9979 26.3927 29.9979 27.5584 29.3356 28.83C27.5341 32.4066 22.9508 32.645 20.9904 29.2539C19.3743 26.5251 20.8049 23.187 23.9841 22.2333C24.9643 21.9419 25.0968 21.9419 26.2095 22.2333Z" fill="black"/>
</svg>
