<svg width="50" height="50" viewBox="0 0 50 50" fill="none" xmlns="http://www.w3.org/2000/svg">
<path d="M3.34416 2.82477L0.633117 5.69815L1.00649 6.08776C1.21753 6.31503 1.80195 6.86698 2.32143 7.30529L3.26299 8.13321L3.91234 7.50009L4.54545 6.88321V24.6917V42.5001H2.27273H0V44.2046V45.9092H21.6234H43.2468L42.5325 46.6397L41.8182 47.3702L43.1006 48.5391C43.7987 49.1884 44.4318 49.7241 44.513 49.7241C44.5779 49.7241 45.8442 48.4417 47.3214 46.8832L50 44.0423L47.9383 42.0455C46.7857 40.9579 45.4708 39.7079 44.9838 39.2858L44.1071 38.5228L42.9058 39.8053L41.7208 41.104L42.4026 41.802L43.0844 42.5001H41.9156H40.7468V26.1852V9.87022H36.1201H31.4935V26.1852V42.5001H30.763H30.0325V31.9481V21.3962H25.3247H20.6169V31.9481V42.5001H19.8864H19.1558V37.7923V33.0845H14.4481H9.74026V37.7923V42.5001H8.92857H8.11688V24.6267V6.75334L8.78247 7.33776C9.13961 7.67867 9.48052 7.92217 9.54545 7.8897C9.78896 7.77607 11.8506 5.53581 11.8506 5.37347C11.8506 5.22737 6.44481 0.0974971 6.18507 9.44529e-05C6.1039 -0.0161393 4.83766 1.25009 3.34416 2.82477ZM37.3377 27.8897V42.5001H36.2013H35.0649V27.8897V13.2793H36.2013H37.3377V27.8897ZM26.461 33.7339V42.5001H25.3247H24.1883V33.7339V24.9676H25.3247H26.461V33.7339ZM15.5844 39.578V42.5001H14.4481H13.3117V39.578V36.6559H14.4481H15.5844V39.578Z" fill="black"/>
</svg>
