<svg width="30" height="53" viewBox="0 0 30 53" fill="none" xmlns="http://www.w3.org/2000/svg">
<g clip-path="url(#clip0)">
<path d="M29.9867 15.5219C29.9502 12.0318 28.7478 8.65406 26.5708 5.92586C24.3938 3.19767 21.3671 1.27566 17.9721 0.46549C10.9054 -1.26132 3.98492 1.91999 0.345338 8.57486L0.12617 8.98664L1.31501 9.85004L1.13569 10.3083C0.726718 11.3135 0.428308 12.3601 0.245718 13.4298C-0.356594 16.6994 0.155572 20.0764 1.70022 23.0203L14.8638 53.0137L28.5123 22.6683L28.6318 22.303C29.5147 20.3569 29.9677 18.2434 29.9601 16.1064C30 15.9138 30 15.7146 29.9867 15.5219ZM26.553 16.2857C26.4985 17.7767 26.1838 19.2467 25.6232 20.6293L21.2065 30.9105L14.9037 44.373L8.7735 30.9105L4.60259 21.3001C4.39984 20.9021 4.22237 20.4918 4.07126 20.0714C3.92033 19.6654 3.80261 19.2479 3.71926 18.8228C3.55225 18.0637 3.46764 17.2888 3.46688 16.5115C3.4703 14.7339 3.89839 12.9829 4.7155 11.4042L4.94131 10.9725L3.71926 10.1888L4.74206 8.60807C5.12433 8.0088 5.56964 7.45216 6.07038 6.94767C7.50463 5.52983 9.28405 4.5108 11.2328 3.9913C13.1815 3.4718 15.232 3.46981 17.1817 3.98553C19.6272 4.57572 21.8315 5.90466 23.4951 7.79167C25.1588 9.67869 26.2009 12.0322 26.4799 14.5324V14.7847C26.4799 14.9441 26.4799 15.1035 26.4799 15.2696V15.8208C26.5663 15.9603 26.5596 16.1197 26.553 16.2857Z" fill="black"/>
<path d="M15.0033 9.78979C13.7515 9.78979 12.5278 10.161 11.4869 10.8565C10.446 11.552 9.63476 12.5405 9.1557 13.6971C8.67664 14.8536 8.5513 16.1262 8.79552 17.354C9.03974 18.5818 9.64256 19.7096 10.5277 20.5948C11.4129 21.48 12.5407 22.0828 13.7685 22.327C14.9963 22.5712 16.2689 22.4459 17.4255 21.9668C18.582 21.4878 19.5706 20.6765 20.266 19.6357C20.9615 18.5948 21.3327 17.3711 21.3327 16.1192C21.331 14.4411 20.6636 12.8322 19.477 11.6456C18.2903 10.459 16.6815 9.79155 15.0033 9.78979V9.78979ZM15.0033 19.088C14.4135 19.088 13.837 18.9131 13.3466 18.5854C12.8562 18.2578 12.474 17.792 12.2482 17.2471C12.0225 16.7022 11.9635 16.1026 12.0786 15.5242C12.1936 14.9457 12.4776 14.4143 12.8947 13.9973C13.3117 13.5802 13.8431 13.2962 14.4215 13.1812C15 13.0661 15.5996 13.1252 16.1445 13.3509C16.6894 13.5766 17.1551 13.9588 17.4828 14.4492C17.8105 14.9396 17.9854 15.5161 17.9854 16.1059C17.9871 16.4987 17.9113 16.8879 17.7622 17.2512C17.6131 17.6145 17.3938 17.9449 17.1167 18.2232C16.8396 18.5015 16.5103 18.7223 16.1476 18.873C15.7849 19.0237 15.3961 19.1013 15.0033 19.1013V19.088Z" fill="black"/>
</g>
<defs>
<clipPath id="clip0">
<rect width="30" height="52.9931" fill="white"/>
</clipPath>
</defs>
</svg>
