<svg width="50" height="50" viewBox="0 0 50 50" fill="none" xmlns="http://www.w3.org/2000/svg">
<path d="M19.1398 3.51254L19.086 7.00717L17.8315 7.5448L16.5771 8.06451L14.1219 5.60932L11.6487 3.1362L7.43728 7.34767L3.22581 11.5591L5.66308 13.9964L8.10036 16.4337L7.59857 17.8136L7.07885 19.1756H3.54839H0V24.1935V29.2115H3.40502C5.98566 29.2115 6.82796 29.2652 6.88172 29.4265C6.91756 29.552 7.2043 30.5376 7.50896 31.6129L8.08244 33.5663L5.60932 36.0573L3.1362 38.5305L7.25806 42.6523C9.51613 44.9283 11.4516 46.7742 11.5591 46.7742C11.6487 46.7742 12.8315 45.681 14.1577 44.3548L16.5771 41.9534L17.8853 42.4194L19.1756 42.8853V46.4337V50H25.0896H31.0036V46.4337V42.8853L32.2939 42.4014L33.5842 41.9355L36.0573 44.3907L38.5305 46.8638L42.6523 42.7419C44.9283 40.4839 46.7742 38.5484 46.7742 38.4409C46.7742 38.3513 45.7168 37.2043 44.4265 35.914L42.0789 33.5484L42.4731 32.509C42.6882 31.9176 42.957 30.9677 43.0824 30.3763L43.2975 29.3011L46.6487 29.2473L50 29.2115V24.1935V19.1756H46.5591H43.1004L42.6165 17.957C42.3298 17.276 42.1147 16.6667 42.1147 16.5591C42.1147 16.4695 43.172 15.3405 44.4444 14.0681C45.7348 12.7957 46.7742 11.6667 46.7742 11.5591C46.7742 11.4516 44.9283 9.51613 42.6523 7.25806L38.5305 3.1362L36.0753 5.5914L33.6022 8.06451L32.3118 7.56272L31.0036 7.07885V3.53046V-2.55182e-06H25.0896H19.1756L19.1398 3.51254ZM27.0609 6.88172V10L28.3154 10.2867C29.8387 10.6272 31.81 11.4337 33.1541 12.2581L34.1398 12.8674L36.3441 10.681L38.5305 8.51254L40 10L41.4875 11.4695L39.3369 13.6201L37.1864 15.7706L37.5269 16.362C38.7455 18.4588 39.3011 19.8208 40.0717 22.7061C40.1255 22.8853 40.8961 22.9391 43.19 22.9391H46.2366V24.1935V25.448H43.1004C39.5161 25.448 39.9104 25.2151 39.6953 27.4194C39.4982 29.534 39.086 30.8961 38.1541 32.509C37.6703 33.3513 37.276 34.1039 37.276 34.1756C37.276 34.2473 38.2258 35.2688 39.3728 36.4158L41.4875 38.5305L40 40L38.5305 41.4875L36.3799 39.3369L34.2294 37.2043L33.0108 37.8674C32.3298 38.2258 30.9857 38.8172 30 39.1756C29.0323 39.5161 27.957 39.9642 27.6523 40.1792L27.0609 40.5376V43.3871V46.2366H25H22.9391V43.3154V40.3943L21.9176 39.9104C21.3441 39.6416 20.1434 39.1577 19.2473 38.8172C18.3333 38.4767 17.276 37.9928 16.8638 37.7419C16.4695 37.491 16.0394 37.276 15.914 37.276C15.7885 37.276 14.7491 38.2079 13.6201 39.3369L11.5591 41.3978L10.0717 39.9104L8.60215 38.4409L10.7348 36.3082L12.8495 34.1935L12.0251 32.5448C11.1649 30.8602 10.5018 28.6021 10.2867 26.5591L10.1613 25.448H7.06093H3.94265V24.1935V22.9391H6.97133H10L10.3047 21.7383C10.681 20.1971 11.4875 18.2616 12.2939 16.9176L12.9211 15.8781L10.7527 13.7097L8.60215 11.5591L10.0896 10.0717L11.5591 8.60215L13.6918 10.7348L15.8244 12.8674L17.4731 11.9892C19.1219 11.1111 21.0215 10.3763 22.276 10.1434L22.9391 10.0179V6.89964V3.76344H25H27.0609V6.88172Z" fill="black"/>
<path d="M21.8637 13.8888C18.9068 14.6056 16.2903 16.577 14.6236 19.3368C13.8709 20.5554 13.853 20.663 14.3548 20.9856C14.7132 21.2364 14.7132 21.2723 14.4265 22.3117C13.6917 25.1074 13.9605 27.8314 15.215 30.3762C16.1111 32.1863 17.2222 33.4408 18.8888 34.5519C20.7706 35.8063 22.0609 36.2185 24.4623 36.3261C28.0465 36.4873 30.448 35.5734 32.8852 33.0823C35.1792 30.7705 36.0214 28.6558 36.0214 25.2687C36.0214 23.0644 35.7347 21.7562 34.8566 19.982C32.939 16.0752 28.853 13.5841 24.3906 13.6379C23.5483 13.6379 22.4014 13.7633 21.8637 13.8888ZM27.4193 17.8852C29.3906 18.6558 31.1648 20.43 31.9175 22.4013C32.4551 23.7813 32.5627 25.9676 32.1684 27.3476C31.1827 30.7884 27.7419 33.2078 24.2473 32.921C21.1827 32.6881 18.2616 29.8386 17.7419 26.5949C17.5447 25.3762 17.8494 23.602 18.4587 22.3834L18.853 21.6307L18.4766 21.3261L18.0824 21.0393L18.6021 20.3404C19.5519 19.0142 20.7526 18.1361 22.3118 17.6164C23.405 17.258 26.2007 17.4192 27.4193 17.8852Z" fill="black"/>
</svg>
