<svg width="300" height="166" viewBox="0 0 300 166" fill="none" xmlns="http://www.w3.org/2000/svg">
<g clip-path="url(#clip0)">
<path d="M300 164.12H106.349V164.759H300V164.12Z" fill="#E6E6E6"/>
<path d="M252.578 112.553C256.811 118.537 257.929 152.596 258.179 163.514C258.185 163.76 258.191 163.993 258.195 164.213H268.911C269.042 163.98 269.163 163.75 269.278 163.514C275.63 150.976 272.106 135.944 271.921 135.183C272.403 137.573 270.221 144.5 267.754 151.21C266.249 130.579 253.383 113.594 252.578 112.553Z" fill="#E6E6E6"/>
<path d="M15.4998 30.9996C11.389 30.9996 7.44657 29.3666 4.53979 26.4598C1.63301 23.5531 0 19.6106 0 15.4998C0 11.389 1.63301 7.44657 4.53979 4.53979C7.44657 1.63301 11.389 0 15.4998 0H156.571C160.681 0 164.624 1.63301 167.531 4.53979C170.437 7.44657 172.07 11.389 172.07 15.4998C172.07 19.6106 170.437 23.5531 167.531 26.4598C164.624 29.3666 160.681 30.9996 156.571 30.9996H15.4998Z" fill="#E6E6E6"/>
<path d="M57.8434 2.0217H30.2509V28.9779H57.8434V2.0217Z" fill="white"/>
<path d="M156.571 2.0217H142.306V28.9779H156.571C160.145 28.9779 163.573 27.5579 166.101 25.0303C168.629 22.5026 170.049 19.0744 170.049 15.4998C170.049 11.9252 168.629 8.49697 166.101 5.96934C163.573 3.44171 160.145 2.0217 156.571 2.0217V2.0217Z" fill="white"/>
<path d="M113.778 2.0217H86.3721V28.9779H113.778V2.0217Z" fill="white"/>
<path d="M85.9228 2.0217H58.2927V28.9779H85.9228V2.0217Z" fill="#6C63FF"/>
<path d="M141.857 2.0217H114.227V28.9779H141.857V2.0217Z" fill="#E6E6E6"/>
<path d="M29.8016 2.0217H15.4998C11.9252 2.0217 8.49701 3.44171 5.96937 5.96934C3.44174 8.49697 2.02173 11.9252 2.02173 15.4998C2.02173 19.0744 3.44174 22.5026 5.96937 25.0303C8.49701 27.5579 11.9252 28.9779 15.4998 28.9779H29.8016L29.8016 2.0217Z" fill="#6C63FF"/>
<path d="M14.5081 20.6832L10.7555 15.859L12.9377 14.1615L14.7142 16.446L20.7164 10.1105L22.7232 12.0119L14.5081 20.6832Z" fill="white"/>
<path d="M69.7684 20.6832L66.0157 15.859L68.198 14.1615L69.9744 16.446L75.9767 10.1105L77.9835 12.0119L69.7684 20.6832Z" fill="white"/>
<path d="M124.263 10.6965L123.019 11.9412L131.381 20.3031L132.625 19.0585L124.263 10.6965Z" fill="white"/>
<path d="M131.821 10.6965L123.459 19.0585L124.703 20.3031L133.065 11.9412L131.821 10.6965Z" fill="white"/>
<path d="M43.9931 23.5814C42.3937 23.5814 40.8302 23.1071 39.5003 22.2185C38.1704 21.3299 37.1339 20.0669 36.5218 18.5892C35.9098 17.1115 35.7496 15.4855 36.0616 13.9168C36.3737 12.3481 37.1439 10.9072 38.2748 9.77621C39.4058 8.64525 40.8468 7.87505 42.4154 7.56301C43.9841 7.25098 45.6101 7.41113 47.0878 8.0232C48.5655 8.63528 49.8285 9.67179 50.7171 11.0017C51.6057 12.3315 52.08 13.8951 52.08 15.4945C52.0776 17.6385 51.2248 19.694 49.7087 21.2101C48.1927 22.7262 46.1371 23.5789 43.9931 23.5814ZM43.9931 9.20471C42.7491 9.20471 41.533 9.57359 40.4987 10.2647C39.4643 10.9559 38.6582 11.9382 38.1821 13.0875C37.706 14.2368 37.5815 15.5015 37.8242 16.7216C38.0669 17.9417 38.6659 19.0624 39.5455 19.9421C40.4252 20.8217 41.5459 21.4208 42.766 21.6634C43.9861 21.9061 45.2508 21.7816 46.4001 21.3055C47.5494 20.8295 48.5317 20.0233 49.2229 18.9889C49.914 17.9546 50.2829 16.7385 50.2829 15.4945C50.281 13.8269 49.6178 12.2282 48.4386 11.049C47.2594 9.86986 45.6607 9.20658 43.9931 9.20471V9.20471Z" fill="#E6E6E6"/>
<path d="M100.152 23.5814C98.5524 23.5814 96.9889 23.1071 95.659 22.2185C94.3291 21.3299 93.2926 20.0669 92.6805 18.5892C92.0685 17.1115 91.9083 15.4855 92.2203 13.9168C92.5324 12.3481 93.3026 10.9072 94.4335 9.77621C95.5645 8.64525 97.0054 7.87505 98.5741 7.56301C100.143 7.25098 101.769 7.41113 103.247 8.0232C104.724 8.63528 105.987 9.67179 106.876 11.0017C107.764 12.3315 108.239 13.8951 108.239 15.4945C108.236 17.6385 107.383 19.694 105.867 21.2101C104.351 22.7262 102.296 23.5789 100.152 23.5814ZM100.152 9.20471C98.9078 9.20471 97.6917 9.57359 96.6574 10.2647C95.623 10.9559 94.8168 11.9382 94.3408 13.0875C93.8647 14.2368 93.7402 15.5015 93.9828 16.7216C94.2255 17.9417 94.8246 19.0624 95.7042 19.9421C96.5839 20.8217 97.7046 21.4208 98.9247 21.6634C100.145 21.9061 101.409 21.7816 102.559 21.3055C103.708 20.8295 104.69 20.0233 105.382 18.9889C106.073 17.9546 106.442 16.7385 106.442 15.4945C106.44 13.8269 105.776 12.2282 104.597 11.049C103.418 9.86986 101.819 9.20658 100.152 9.20471V9.20471Z" fill="#E6E6E6"/>
<path d="M156.086 23.5814C154.486 23.5814 152.923 23.1071 151.593 22.2185C150.263 21.3299 149.227 20.0669 148.615 18.5892C148.003 17.1115 147.842 15.4855 148.154 13.9168C148.466 12.3481 149.237 10.9072 150.368 9.77621C151.499 8.64525 152.94 7.87505 154.508 7.56301C156.077 7.25098 157.703 7.41113 159.181 8.0232C160.658 8.63528 161.921 9.67179 162.81 11.0017C163.698 12.3315 164.173 13.8951 164.173 15.4945C164.17 17.6385 163.318 19.694 161.802 21.2101C160.285 22.7262 158.23 23.5789 156.086 23.5814ZM156.086 9.20471C154.842 9.20471 153.626 9.5736 152.591 10.2647C151.557 10.9559 150.751 11.9382 150.275 13.0875C149.799 14.2368 149.674 15.5015 149.917 16.7216C150.16 17.9417 150.759 19.0624 151.638 19.9421C152.518 20.8217 153.639 21.4208 154.859 21.6634C156.079 21.9061 157.344 21.7816 158.493 21.3055C159.642 20.8295 160.625 20.0233 161.316 18.9889C162.007 17.9546 162.376 16.7385 162.376 15.4945C162.374 13.8269 161.711 12.2282 160.531 11.049C159.352 9.86985 157.753 9.20658 156.086 9.20471V9.20471Z" fill="#E6E6E6"/>
<path d="M230.319 87.3665L226.924 96.8369C226.666 97.5546 226.665 98.3392 226.92 99.0577C227.175 99.7763 227.67 100.385 228.322 100.78V100.78C228.797 101.068 229.336 101.231 229.891 101.255C230.445 101.28 230.997 101.164 231.495 100.919C231.993 100.674 232.421 100.308 232.74 99.854C233.059 99.4 233.259 98.873 233.321 98.3215L234.399 88.7265L242.558 61.7534L235.532 58.3534L230.319 87.3665Z" fill="#A0616A"/>
<path d="M227.485 158.879H232.472V110.373L221.139 110.146L227.485 158.879Z" fill="#A0616A"/>
<path d="M205.272 158.879H210.259V110.373L198.925 110.146L205.272 158.879Z" fill="#A0616A"/>
<path d="M233.265 115.473L220.345 114.113L217.625 99.8331L212.639 114.34L197.225 112.753L203.572 88.7265C215.173 80.8433 226.192 81.0157 236.665 88.7265L233.265 115.473Z" fill="#2F2E41"/>
<path d="M211.36 160.945C211.437 161.561 211.371 162.185 211.169 162.772C210.966 163.358 210.631 163.889 210.19 164.326C209.749 164.762 209.214 165.091 208.626 165.288C208.038 165.485 207.412 165.543 206.797 165.46L197.611 164.214C196.789 164.086 196.052 163.637 195.561 162.966C195.07 162.295 194.866 161.457 194.992 160.635V160.635C195.106 159.894 195.482 159.218 196.051 158.729C196.62 158.241 197.345 157.973 198.095 157.973H199.61L204.593 153.432C204.642 156.525 206.92 155.838 210.684 155.536L211.36 160.945Z" fill="#2F2E41"/>
<path d="M233.573 160.945C233.65 161.561 233.584 162.185 233.382 162.772C233.179 163.358 232.844 163.889 232.403 164.326C231.962 164.762 231.427 165.091 230.839 165.288C230.251 165.485 229.625 165.543 229.011 165.46L219.824 164.214C219.003 164.086 218.265 163.637 217.774 162.966C217.284 162.295 217.079 161.457 217.205 160.635V160.635C217.319 159.894 217.695 159.218 218.264 158.729C218.833 158.241 219.558 157.973 220.308 157.973H221.823L226.806 153.432C226.855 156.525 229.133 155.838 232.897 155.536L233.573 160.945Z" fill="#2F2E41"/>
<path d="M215.869 32.967C220.281 32.967 223.859 29.3898 223.859 24.977C223.859 20.5643 220.281 16.9871 215.869 16.9871C211.456 16.9871 207.879 20.5643 207.879 24.977C207.879 29.3898 211.456 32.967 215.869 32.967Z" fill="#A0616A"/>
<path d="M226.012 38.4068L216.039 39.3136V30.4735L221.252 27.3002L226.012 38.4068Z" fill="#A0616A"/>
<path d="M237.798 92.1265C227.765 84.7795 215.717 85.526 202.439 91.2198C208.455 74.1884 211.018 58.3155 206.292 44.8878C206.292 42.5153 207.082 40.2103 208.537 38.3363C209.992 36.4624 212.029 35.126 214.327 34.538L216.039 34.1003L224.425 34.5536L232.3 39.1702C233.907 40.1116 235.24 41.4551 236.169 43.0683C237.098 44.6815 237.591 46.5088 237.6 48.3704L237.798 92.1265Z" fill="#6C63FF"/>
<path d="M199.039 85.5532L195.644 95.0235C195.386 95.7412 195.385 96.5258 195.64 97.2444C195.895 97.963 196.39 98.5714 197.042 98.9666V98.9666C197.517 99.2542 198.056 99.4177 198.611 99.4421C199.165 99.4664 199.717 99.3508 200.215 99.1059C200.713 98.861 201.141 98.4947 201.46 98.0407C201.78 97.5867 201.979 97.0596 202.041 96.5081L203.119 86.9132L211.279 59.9401L204.252 56.5401L199.039 85.5532Z" fill="#A0616A"/>
<path d="M244.372 66.9667H233.265V39.7669C235.186 40.8341 236.855 42.3019 238.159 44.0708C239.462 45.8397 240.37 47.8683 240.821 50.019L244.372 66.9667Z" fill="#6C63FF"/>
<path d="M209.777 20.6509C209.289 20.8815 208.751 20.987 208.212 20.9578C207.673 20.9286 207.149 20.7658 206.689 20.4838C206.238 20.1862 205.898 19.7488 205.721 19.2389C205.543 18.7289 205.538 18.1748 205.707 17.6618C206.044 16.7956 206.896 16.2532 207.723 15.8294C209.548 14.8952 211.503 14.242 213.523 13.892C214.486 13.7253 215.506 13.6337 216.416 13.9897C216.867 14.1658 217.27 14.4448 217.717 14.6292C218.539 14.9683 219.456 14.9698 220.326 15.1537C221.217 15.3482 222.055 15.7317 222.785 16.2783C223.515 16.825 224.118 17.5219 224.555 18.322C224.841 18.8664 225.061 19.4433 225.21 20.0402C225.629 21.6732 225.623 23.3861 225.194 25.0164C224.51 27.599 222.768 29.9719 222.925 32.639C221.637 31.8893 221.034 30.3629 219.959 29.3315C219.16 28.5695 218.126 28.1012 217.026 28.003C216.726 28.0148 216.428 27.9391 216.17 27.7849C215.982 27.6018 215.853 27.3676 215.797 27.1114L214.586 23.3179C214.34 22.5458 214.042 21.707 213.345 21.2929C212.916 21.0753 212.441 20.9601 211.96 20.9562C210.808 20.8723 209.651 20.8832 208.501 20.9887" fill="#2F2E41"/>
<path d="M212.412 61.98L199.492 56.9934L205.36 41.1841C206.043 39.3431 207.243 37.7383 208.815 36.5622C210.388 35.3861 212.266 34.6887 214.225 34.5536V34.5536L212.412 61.98Z" fill="#6C63FF"/>
</g>
<defs>
<clipPath id="clip0">
<rect width="300" height="165.498" fill="white"/>
</clipPath>
</defs>
</svg>
