<svg width="100" height="57" viewBox="0 0 150 86" fill="none" xmlns="http://www.w3.org/2000/svg">
<g clip-path="url(#clip0)">
<path opacity="0.1" d="M90.1731 61.6665C93.0709 61.5013 96.6661 59.5359 99.4616 58.6665C102.77 57.6403 106.092 56.653 109.427 55.7046C121.036 52.4012 132.77 49.5866 144.628 47.2605C145.735 47.0429 146.843 46.8304 147.953 46.6233C146.224 42.8866 143.545 39.669 140.183 37.2915C140.269 36.4735 140.313 35.6516 140.314 34.8291C140.314 21.83 129.926 11.292 117.106 11.292C113.159 11.2878 109.279 12.3065 105.843 14.2487C96.7697 8.28017 84.9271 4.66785 71.9699 4.66785C53.5582 4.66785 37.3952 11.962 28.2365 22.9458L71.2802 30.2177L97.6797 34.6757C67.584 35.5739 37.3952 36.4668 7.38599 34.3584C3.42463 38.1914 0.917364 43.2811 0.29269 48.7578C-0.331984 54.2344 0.96471 59.7581 3.96116 64.3846V64.3846C3.96116 64.8554 3.98083 65.3221 4.01623 65.785C4.78066 66.004 5.51886 66.2164 6.18101 66.3554C16.8113 68.601 27.5097 70.4803 38.2763 71.9935C30.3423 76.8855 20.6801 77.5778 11.528 79.6495C15.9599 83.3077 21.9782 85.5498 28.6102 85.5498H127.358C138.051 85.5498 146.718 78.1062 146.718 68.9227C148.323 66.2767 149.392 63.3413 149.865 60.2832C130.079 62.1936 110.047 60.535 90.1731 61.6665Z" fill="#6C63FF"/>
<path opacity="0.1" d="M150 56.3719C150.011 52.5871 149.111 48.8552 147.376 45.491C145.642 42.1269 143.124 39.2292 140.035 37.0424C140.12 36.2248 140.164 35.4034 140.166 34.5813C140.166 21.5822 129.772 11.0481 116.958 11.0481C113.011 11.0438 109.13 12.0621 105.694 14.0035C96.6202 8.03234 84.7762 4.4187 71.819 4.4187C50.743 4.4187 32.6014 13.9838 24.5559 27.7002C24.1088 27.6739 23.6591 27.6595 23.2054 27.6595C10.3898 27.6595 -0.00264023 38.1976 -0.00264023 51.1967C-0.0116229 55.7882 1.31498 60.2833 3.81554 64.1342V64.1342C3.81554 75.83 14.8544 85.3112 28.4659 85.3112H127.217C137.908 85.3112 146.575 77.8663 146.575 68.6827C148.824 64.9707 150.009 60.7119 150 56.3719V56.3719Z" fill="#6C63FF"/>
<path d="M122.502 41.9515C122.314 41.8075 122.095 41.7113 121.862 41.6709C121.617 41.6145 121.366 41.5791 121.117 41.5397L117.889 41.0743C117.563 41.0138 117.231 40.9962 116.9 41.0218C116.735 41.0354 116.573 41.0818 116.426 41.1584C116.278 41.2349 116.147 41.34 116.04 41.4676C115.944 41.5864 115.891 41.7344 115.891 41.8872C115.909 42.041 115.959 42.1893 116.038 42.3225C116.069 42.3848 116.096 42.4492 116.118 42.5153C116.148 42.6636 116.187 42.8102 116.233 42.9545C116.247 42.9858 116.266 43.0149 116.288 43.0411C116.289 43.0485 116.289 43.0559 116.288 43.0634C116.253 43.2443 116.367 43.4331 116.316 43.6075C116.271 43.757 116.125 43.8474 116.034 43.972C115.972 44.0604 115.939 44.1648 115.936 44.2723C115.934 44.3797 115.963 44.4855 116.021 44.5765C116.119 44.7286 116.297 44.8321 116.348 45.0065C116.415 45.236 116.234 45.4576 116.073 45.6346C115.776 45.9605 115.502 46.3061 115.252 46.6691C115.182 46.7584 115.137 46.8647 115.121 46.9772C115.107 47.2054 115.326 47.406 115.288 47.6328C115.257 47.8112 115.083 47.92 114.932 48.0262C114.375 48.3933 113.928 48.9834 113.883 49.6508C113.74 48.5889 113.3 47.589 112.614 46.7661C112.427 46.5406 112.221 46.3138 112.143 46.0279C112.115 45.9139 112.109 45.7919 112.07 45.6818C111.939 45.3343 111.522 45.1849 111.34 44.8649C111.208 44.6394 111.208 44.3496 111.046 44.1516C110.883 43.9536 110.628 43.9091 110.487 43.7176C110.417 43.588 110.358 43.4529 110.309 43.3138C110.25 43.2003 110.167 43.101 110.066 43.0227C110.047 43.0072 110.027 42.9928 110.006 42.9794C110.028 42.96 110.045 42.9361 110.057 42.9095C110.069 42.8828 110.076 42.8539 110.076 42.8247C110.076 42.6713 109.924 42.5703 109.791 42.4943C109.621 42.3973 109.454 42.2924 109.292 42.1835C109.469 42.101 109.623 41.9752 109.739 41.8177C109.884 41.5829 109.944 41.305 109.909 41.031C109.9 40.8098 109.818 40.598 109.674 40.4292C109.592 40.3413 109.488 40.2784 109.402 40.1958C109.177 39.9768 109.101 39.6529 109.008 39.354C108.885 38.9606 108.692 38.5476 108.333 38.3391C108.16 38.2382 107.958 38.191 107.789 38.0848C107.62 37.9786 107.478 37.778 107.537 37.5852C107.576 37.4541 107.698 37.3636 107.781 37.2522C107.88 37.108 107.917 36.9309 107.886 36.759C107.855 36.5872 107.757 36.4346 107.615 36.3343C107.517 36.2727 107.398 36.2189 107.378 36.1062C107.303 36.0865 107.234 36.0457 107.18 35.9887C107.126 35.9316 107.09 35.8606 107.074 35.7836C107.045 35.6294 107.045 35.471 107.074 35.3168C107.108 35.073 107.142 34.83 107.175 34.5878C107.233 34.6118 107.295 34.6242 107.358 34.6242C107.42 34.6242 107.482 34.6118 107.54 34.5878C107.653 34.772 107.785 34.9442 107.933 35.1018C108.332 35.5733 108.643 36.113 108.851 36.6949C108.926 36.9047 109.002 37.1394 109.196 37.2509C109.263 37.2889 109.339 37.3085 109.404 37.3492C109.485 37.4055 109.555 37.4767 109.609 37.559C109.766 37.7675 109.924 37.9746 110.08 38.1831L110.087 38.2146C110.092 38.233 110.099 38.2507 110.108 38.267C110.137 38.2997 110.178 38.3203 110.221 38.3247C110.704 38.4362 111.245 38.5384 111.663 38.2749C112.041 38.0389 112.206 37.5721 112.526 37.26C112.753 37.0384 113.074 36.8667 113.139 36.5546C113.062 36.531 112.987 36.5034 112.913 36.472C112.979 36.4064 113.044 36.3304 113.133 36.2439C113.263 36.117 113.38 35.9778 113.482 35.8282C113.593 35.6437 113.681 35.4464 113.744 35.2408C113.997 34.5205 114.25 33.7998 114.505 33.0786C114.625 32.7377 114.746 32.3942 114.898 32.0625C115.056 31.7032 115.242 31.3584 115.413 31.0057C115.857 30.0884 116.199 29.1255 116.434 28.1342C116.475 27.9989 116.489 27.8566 116.474 27.7159C116.438 27.4891 116.266 27.3107 116.102 27.1495C115.937 26.971 115.749 26.8154 115.543 26.6866C115.44 26.6223 115.325 26.5792 115.205 26.5599C115.084 26.5405 114.961 26.5453 114.843 26.5738C114.507 26.6722 114.296 27.0157 114.219 27.3606C114.142 27.7054 114.17 28.0607 114.138 28.4095C114.09 28.9143 113.917 29.4021 113.875 29.9082C113.853 30.2006 113.875 30.4969 113.84 30.7893C113.776 31.172 113.642 31.5398 113.447 31.875C113.021 32.6744 112.446 33.384 111.751 33.965C111.671 34.0319 111.589 34.0961 111.51 34.1682C111.51 34.1119 111.519 34.0542 111.527 33.9978C111.47 34.0126 111.414 34.0324 111.361 34.0568C111.367 33.9906 111.36 33.9237 111.341 33.8601C111.236 33.5467 110.769 33.4668 110.685 33.1481C110.671 33.0693 110.664 32.9895 110.663 32.9095C110.635 32.6302 110.445 32.3942 110.38 32.1228C110.319 31.8724 110.365 31.5983 110.249 31.3662C110.149 31.2211 110.032 31.089 109.9 30.9729C109.742 30.7929 109.629 30.5788 109.568 30.3474C109.551 30.2832 109.535 30.2163 109.517 30.1521C109.537 30.0066 109.521 29.8584 109.47 29.7207C109.351 29.4244 109.042 29.2342 108.931 28.934C108.844 28.7006 108.882 28.4095 108.719 28.2286C108.631 28.1421 108.525 28.0778 108.408 28.0411C107.808 27.8074 107.178 27.6586 106.537 27.5992C106.177 27.5664 105.781 27.5481 105.524 27.295C105.224 27.0013 105.21 26.4729 104.858 26.246C104.549 26.0454 104.111 26.1936 103.871 26.4755C103.835 26.517 103.802 26.5608 103.771 26.6066C103.728 26.4309 103.718 26.2483 103.744 26.069C103.744 26.0245 103.753 25.9786 103.757 25.9379C104.349 25.7445 104.853 25.3466 105.178 24.8155C105.178 24.8155 105.178 24.8155 105.178 24.8234L105.194 24.8641C105.232 24.9598 105.292 25.0516 105.382 25.062C105.441 25.0613 105.498 25.0405 105.544 25.003C105.623 24.9481 105.696 24.8848 105.762 24.8142C105.795 24.7775 105.826 24.7395 105.856 24.7002C105.917 24.6183 105.968 24.5304 106.011 24.4379C106.076 24.2988 106.12 24.1507 106.142 23.9987C106.166 23.8466 106.168 23.6905 106.194 23.5384C106.219 23.4207 106.251 23.3046 106.29 23.191C106.303 23.1529 106.316 23.1149 106.328 23.0769C106.34 23.0389 106.357 22.9877 106.37 22.9458C106.452 22.6761 106.496 22.3963 106.501 22.1145C106.501 22.0673 106.501 22.0201 106.501 21.9729C106.497 21.7889 106.455 21.6078 106.379 21.4401C106.304 21.2723 106.195 21.1214 106.061 20.996C105.835 20.8112 105.536 20.7338 105.371 20.4834C105.264 20.3155 105.24 20.0992 105.177 19.9025C105.109 19.6671 104.976 19.4555 104.794 19.2917C104.612 19.1278 104.388 19.0183 104.146 18.9755C103.856 18.9436 103.564 19.0238 103.331 19.1997V19.1997L103.312 19.2141C103.182 19.3134 103.072 19.4362 102.987 19.576C102.814 19.5283 102.655 19.4382 102.526 19.3138C102.395 19.1919 102.294 19.0384 102.161 18.9204C102.038 18.8071 101.886 18.7291 101.721 18.6945C101.557 18.6599 101.387 18.67 101.228 18.7238C101.064 18.7893 100.918 18.8928 100.802 19.0257C100.686 19.1586 100.603 19.3171 100.56 19.4882C100.488 19.7583 100.501 20.069 100.351 20.2946C100.234 20.4703 100.042 20.5568 99.9086 20.7168C99.8256 20.8181 99.7688 20.9383 99.7434 21.0668V21.0668C99.7275 21.1387 99.7201 21.2122 99.7211 21.2858V21.2858C99.7211 21.3186 99.7211 21.3514 99.729 21.3828C99.729 21.3828 99.729 21.3933 99.729 21.3986C99.7337 21.4345 99.7411 21.47 99.7513 21.5048V21.5048C99.7886 21.6377 99.8554 21.7605 99.9467 21.8641C100.033 21.9632 100.141 22.0413 100.263 22.0922C100.312 22.1115 100.363 22.1277 100.415 22.1407L100.571 22.1761L100.626 22.1892C100.438 22.5428 100.333 22.9348 100.32 23.3352C100.308 23.7355 100.387 24.1334 100.552 24.4982C100.552 24.5349 100.543 24.5717 100.539 24.6084C100.518 25.1247 100.541 25.6418 100.608 26.1543C100.626 26.3575 100.636 26.5817 100.512 26.743C100.455 26.8064 100.391 26.8632 100.322 26.9121C100.392 26.8203 100.465 26.7299 100.538 26.6394C100.353 26.4532 100.061 26.4296 99.7985 26.448C99.291 26.4859 98.7983 26.6364 98.3562 26.8885C98.0625 27.0577 97.7609 27.2819 97.4253 27.2425C97.2273 27.2203 97.0319 27.1114 96.8392 27.1639C96.7308 27.2082 96.6297 27.2683 96.5389 27.3422C96.4672 27.3936 96.3806 27.4203 96.2924 27.4182C96.0865 27.1652 95.7679 26.9934 95.5214 26.7876C95.2409 26.5378 94.9841 26.2626 94.7544 25.9654C94.3295 25.4528 93.906 24.9388 93.4891 24.4209C93.1377 23.9856 92.7771 23.5148 92.7155 22.9576C92.7092 22.9023 92.7061 22.8467 92.7063 22.7911C92.7148 22.5263 92.7482 22.2629 92.8059 22.0043C92.8215 21.9419 92.8215 21.8766 92.8059 21.8142C92.7666 21.6831 92.6158 21.6346 92.486 21.6057C92.5031 21.5048 92.5149 21.4012 92.5214 21.3029C92.5948 20.1752 92.5149 19.0293 92.7535 17.9252C92.844 17.5004 92.9921 17.0703 93.2976 16.7622C93.7762 16.2784 94.5774 16.1617 94.9445 15.5887C95.2513 15.1114 95.1294 14.4362 94.7439 14.0153C94.3584 13.5944 93.7644 13.4226 93.1993 13.4436C93.0407 13.4382 92.8841 13.4802 92.7496 13.5642C92.6238 13.6759 92.5297 13.8189 92.4768 13.9786L91.9143 15.3461C91.7513 15.7022 91.6137 16.0694 91.5026 16.4449C91.3453 17.0192 91.3099 17.625 91.1853 18.2045C91.1853 18.6503 90.8982 19.2063 90.7408 19.6167C90.5651 20.0782 90.375 20.5345 90.2163 21.0052C90.177 21.1232 90.0393 21.4733 89.9541 21.7919C89.9219 21.8107 89.892 21.8331 89.8649 21.8588C89.7965 21.9465 89.7343 22.039 89.6788 22.1355C89.5594 22.2928 89.3654 22.3767 89.2343 22.5288C89.1031 22.6809 89.0756 22.9602 89.2579 23.0363C89.2949 23.0487 89.3331 23.057 89.3719 23.0612C89.3958 23.0632 89.4195 23.0671 89.4427 23.073C89.6394 23.128 89.7168 23.3759 89.6879 23.5804C89.6591 23.7849 89.5568 23.9738 89.5398 24.1783C89.5044 24.5402 89.7168 24.8772 89.9213 25.1814C90.1331 25.5111 90.367 25.8261 90.6215 26.1241C90.8064 26.3313 91.0149 26.5175 91.201 26.7168C91.9104 27.4458 92.4742 28.2981 93.1114 29.09C93.3407 29.3889 93.6014 29.6623 93.889 29.9056C94.0768 30.0525 94.2734 30.1878 94.4777 30.3107L95.5739 31.0057C95.6982 31.0968 95.8388 31.1631 95.9882 31.201C96.0369 31.2076 96.0863 31.2076 96.135 31.201C96.1416 31.2338 96.1469 31.2653 96.1547 31.2981C96.2399 31.6416 96.4274 31.9536 96.4484 32.3037C96.4694 32.6538 96.4379 33.0118 96.4628 33.3658C96.4864 33.6923 96.5586 34.0214 96.5769 34.3426C96.6136 34.9615 96.4615 35.5725 96.3147 36.1783C96.0931 37.0647 95.9593 37.9694 95.528 38.7731C95.4073 38.9947 95.2657 39.2203 95.2657 39.4733C95.2657 39.5035 95.2657 39.5349 95.2736 39.5651L95.0769 39.6766C95.0192 39.7093 94.9615 39.7421 94.9091 39.7762C94.66 39.9388 94.3938 40.1184 94.2915 40.399C94.2089 40.6259 94.2469 40.8855 94.1473 41.1057C94.1426 41.1156 94.1373 41.1253 94.1315 41.1346C94.0267 41.3391 93.8182 41.4912 93.771 41.7155C93.7356 41.8872 93.8038 42.0695 93.771 42.2399C93.771 42.2399 93.771 42.2399 93.771 42.2465C93.7411 42.3321 93.7175 42.4197 93.7002 42.5087C93.6988 42.5378 93.7014 42.5669 93.708 42.5953C93.733 42.6946 93.788 42.7839 93.8654 42.8509C93.9126 42.8963 93.964 42.9371 94.0188 42.9729C94.0747 43.0096 94.1324 43.0437 94.1919 43.0752L94.226 43.0935C94.2758 43.1197 94.3256 43.1446 94.3767 43.1682L94.4108 43.1827C94.4698 43.2089 94.5301 43.2325 94.5905 43.2535L94.6324 43.2666C94.6796 43.2823 94.7281 43.2967 94.7767 43.3085L94.8094 43.319L94.8396 43.3256L94.9707 43.3531L95.0192 43.3623C95.0769 43.3719 95.1359 43.3798 95.1962 43.3859H95.2487C95.2933 43.3859 95.3365 43.3925 95.3798 43.3938H95.4414C95.4873 43.3938 95.5319 43.3938 95.5726 43.3938H95.6198C95.6814 43.3938 95.743 43.3846 95.8046 43.3767H95.8243C95.8794 43.3689 95.9344 43.3597 95.9895 43.3479L96.0315 43.3387C96.0826 43.3269 96.1337 43.3151 96.1849 43.2994L96.2124 43.2915C96.274 43.2731 96.3357 43.2535 96.396 43.2299C96.6047 43.1441 96.8071 43.0438 97.0017 42.9296C97.1329 42.8575 97.264 42.7841 97.3951 42.7172C97.4923 42.6682 97.5921 42.6244 97.6941 42.5861C97.942 42.4801 98.2118 42.4352 98.4808 42.455C98.6135 42.473 98.7449 42.4998 98.8741 42.5349C98.8741 42.5494 98.8741 42.5638 98.8741 42.5782C98.9808 43.2076 99.0861 43.837 99.1901 44.4663C99.3618 44.3427 99.5433 44.2335 99.733 44.1398C99.6975 44.2349 99.6741 44.334 99.6635 44.4349C99.6556 44.5129 99.6556 44.5915 99.6635 44.6696C99.6753 44.7941 99.7015 44.9318 99.6267 45.0301C99.5809 45.0905 99.4956 45.1245 99.4707 45.1927C99.4525 45.2624 99.4481 45.335 99.4576 45.4064C99.4522 45.4879 99.4178 45.5648 99.3605 45.623C99.3032 45.6813 99.2269 45.717 99.1455 45.7238C99.1831 45.8293 99.184 45.9444 99.148 46.0505C99.1121 46.1566 99.0415 46.2475 98.9476 46.3085C98.8927 46.3349 98.8415 46.3684 98.7954 46.4082C98.7506 46.4661 98.7205 46.5341 98.7076 46.6062C98.5343 47.2555 98.1779 47.8413 97.6809 48.2937C97.4945 48.4402 97.3244 48.6064 97.1735 48.7893C97.0803 48.931 97.0033 49.0827 96.9441 49.2417C96.5944 50.0966 96.2395 50.9519 95.8794 51.8077C95.6801 52.2863 95.486 52.7727 95.4231 53.288C95.2657 54.7015 94.007 55.8999 94.243 57.3029C94.2907 57.6533 94.432 57.9844 94.6521 58.2613C94.9143 58.5773 95.3077 58.7583 95.701 58.9051C96.712 59.2985 97.778 59.5135 98.84 59.7299L100.508 60.0721C100.835 60.1474 101.167 60.1999 101.502 60.2294C101.904 60.257 102.317 60.2189 102.709 60.3212C102.952 60.3842 103.184 60.5009 103.434 60.514C103.649 60.5258 103.914 60.4799 104.042 60.6556C104.169 60.8313 104.07 61.0634 104.191 61.2194C104.385 61.4672 104.858 61.2194 105.069 61.4528C105.127 61.5424 105.171 61.64 105.201 61.7425C105.233 61.8059 105.277 61.8621 105.332 61.9078C105.345 61.9818 105.35 62.0569 105.347 62.132C105.32 62.4365 105.257 62.7366 105.159 63.0262C105.001 63.5585 104.844 64.0913 104.688 64.6245C104.628 64.8129 104.584 65.0058 104.557 65.2015C104.547 65.2965 104.547 65.3923 104.557 65.4873C104.584 65.7771 104.751 66.076 105.028 66.1704C105.242 66.2272 105.47 66.199 105.665 66.0918C105.852 65.9938 106.028 65.8751 106.189 65.7377C106.48 65.5181 106.735 65.2555 106.946 64.9589C107.601 63.9781 107.389 62.6512 107.849 61.5668C108.155 60.8431 108.75 60.2557 108.948 59.4925C108.994 59.3473 109 59.1922 108.964 59.0441C108.881 58.7819 108.602 58.6324 108.341 58.538H108.329C108.115 58.4617 107.896 58.3991 107.674 58.3505C107.618 58.3387 107.562 58.3295 107.506 58.3203C107.381 58.2188 107.282 58.0895 107.216 57.9427C107.206 57.8647 107.185 57.7884 107.154 57.7159C107.133 57.6846 107.105 57.6588 107.073 57.6406C107.04 57.6223 107.003 57.6122 106.965 57.611C106.834 57.5979 106.659 57.6451 106.516 57.6346C106.223 57.6136 106.029 57.3265 105.767 57.194C105.505 57.0616 105.22 57.0944 104.941 57.1141C104.841 57.1277 104.74 57.1215 104.642 57.0957C104.526 57.0421 104.419 56.9689 104.327 56.8793C104.166 56.7538 103.978 56.6674 103.777 56.6272C103.577 56.5869 103.37 56.5938 103.172 56.6473C103.047 56.6979 102.914 56.728 102.779 56.7364C102.523 56.722 102.342 56.4939 102.153 56.3208C101.637 55.8474 100.901 55.7229 100.274 55.4121C100.179 55.3764 100.099 55.3076 100.049 55.2181C99.9768 55.0397 100.139 54.8614 100.286 54.7395L101.364 53.8439C102.544 52.8632 104.019 52.125 104.567 50.6866C104.624 50.4938 104.713 50.3117 104.83 50.1477C104.872 50.0977 104.921 50.0536 104.975 50.0166C105.214 49.8621 105.502 49.8057 105.781 49.8592C106.121 49.9354 106.444 50.076 106.731 50.2736C107.2 50.5577 107.657 50.8636 108.101 51.1914C108.541 51.5058 108.959 51.8492 109.353 52.2194C110.042 52.875 110.615 53.6525 111.256 54.3592C111.897 55.066 112.63 55.7255 113.52 56.0638C114.41 56.4021 115.487 56.3877 116.251 55.8199C117.134 55.1643 117.417 53.9921 117.64 52.9169C118.132 52.4423 118.28 51.7198 118.52 51.0813C118.67 50.6761 118.863 50.2946 119.026 49.8907C119.22 49.4161 119.372 48.9257 119.524 48.4366C119.696 47.9455 119.813 47.4366 119.873 46.9196C119.936 46.1027 119.717 45.2334 119.946 44.4663C120.249 44.3995 120.524 44.229 120.822 44.1293C121.265 43.9838 121.74 44.0074 122.209 44.01H122.24C122.401 44.0272 122.564 43.9889 122.701 43.9012C122.858 43.7701 122.883 43.5459 122.891 43.3426C122.91 42.8404 122.878 42.2766 122.502 41.9515ZM103.504 19.5852C103.396 19.612 103.283 19.62 103.172 19.6088L103.504 19.5852Z" fill="url(#paint0_linear)"/>
<path d="M104.021 27.8798C103.862 28.0146 103.676 28.1135 103.475 28.1696L102.545 28.5026C102.041 28.6835 101.514 28.8658 100.981 28.8002C100.684 28.7635 99.4078 28.576 99.215 28.344C98.9213 27.9847 99.9506 27.4563 100.302 27.1534C100.382 27.0961 100.455 27.0311 100.522 26.9593C100.653 26.7994 100.636 26.5752 100.618 26.3732C100.551 25.8617 100.528 25.3454 100.55 24.83C100.56 24.7071 100.578 24.5849 100.602 24.4641C100.733 23.861 101.295 24.0813 101.738 24.2412C102.271 24.4145 102.787 24.638 103.278 24.9086C103.428 24.9858 103.558 25.0961 103.659 25.2312C103.853 25.5249 103.775 25.9104 103.744 26.2801C103.716 26.5673 103.718 26.8426 103.897 27.0511C103.988 27.1308 104.071 27.2186 104.145 27.3134C104.187 27.4088 104.198 27.5151 104.175 27.6169C104.153 27.7187 104.099 27.8108 104.021 27.8798Z" fill="#BE6F72"/>
<path d="M91.1789 18.4301C91.31 17.8492 91.3388 17.25 91.4962 16.6744C91.6072 16.3001 91.7448 15.9343 91.9079 15.5795L92.4861 14.2303C92.539 14.071 92.6331 13.9285 92.7588 13.8173C92.8937 13.7338 93.0501 13.6919 93.2086 13.6967C93.7737 13.6757 94.3677 13.8514 94.7532 14.267C95.1386 14.6827 95.2606 15.3553 94.9538 15.8313C94.5866 16.4043 93.7855 16.5197 93.3069 17.0022C93.0014 17.3103 92.8532 17.7391 92.7628 18.1626C92.5241 19.264 92.6041 20.406 92.5307 21.531C92.5071 21.8811 92.4389 22.281 92.1373 22.462C91.9551 22.5513 91.7524 22.5907 91.5499 22.5761L90.6898 22.5905C90.5455 22.5905 90.0224 22.6809 89.9267 22.5721C89.7588 22.382 90.1417 21.4353 90.2112 21.2242C90.3659 20.7561 90.556 20.2998 90.7357 19.8396C90.8917 19.4292 91.1789 18.8746 91.1789 18.4301Z" fill="#BE6F72"/>
<path d="M108.939 59.6224C108.741 60.3803 108.146 60.9703 107.84 61.6928C107.38 62.7745 107.587 64.0975 106.937 65.0756C106.726 65.3727 106.471 65.6358 106.18 65.8558C106.019 65.9927 105.843 66.111 105.656 66.2085C105.461 66.3157 105.233 66.3439 105.018 66.2872C104.742 66.1928 104.575 65.8938 104.548 65.6054C104.538 65.5108 104.538 65.4154 104.548 65.3208C104.575 65.1256 104.619 64.9331 104.679 64.7452C104.836 64.2146 104.993 63.6832 105.149 63.1508C105.247 62.8621 105.311 62.5628 105.338 62.2592C105.355 61.9288 105.146 61.4987 105.235 61.1906C105.275 61.0516 105.427 60.9284 105.497 60.8117C105.596 60.6437 105.671 60.4634 105.722 60.2754C105.83 59.9096 105.903 59.5188 106.129 59.2107C106.276 59.0279 106.448 58.8668 106.64 58.7321C106.782 58.6078 106.948 58.5145 107.128 58.4581C107.303 58.4274 107.482 58.4359 107.653 58.483C107.875 58.5305 108.094 58.5927 108.308 58.6692H108.32C108.582 58.7636 108.86 58.9091 108.943 59.174C108.983 59.3209 108.982 59.4762 108.939 59.6224V59.6224Z" fill="#3F3D56"/>
<path d="M122.89 43.5026C122.882 43.7059 122.857 43.9327 122.7 44.0599C122.563 44.1475 122.4 44.1859 122.238 44.1687H122.203C121.735 44.1687 121.259 44.1425 120.816 44.288C120.479 44.3995 120.169 44.604 119.818 44.6447C119.334 44.6998 118.879 44.4349 118.45 44.2041C118.047 43.9866 117.632 43.7897 117.209 43.6141C116.931 43.5 116.363 43.4266 116.229 43.1224C116.183 42.9784 116.145 42.8323 116.114 42.6844C116.092 42.6184 116.065 42.554 116.034 42.4917C115.955 42.3588 115.905 42.211 115.887 42.0577C115.887 41.9049 115.94 41.7568 116.036 41.6381C116.143 41.5115 116.274 41.4073 116.422 41.3314C116.569 41.2556 116.73 41.2097 116.895 41.1962C117.226 41.1706 117.558 41.1882 117.884 41.2487L121.112 41.7129C121.361 41.7483 121.611 41.7837 121.857 41.844C122.09 41.8844 122.309 41.9807 122.497 42.1246C122.878 42.4445 122.91 43.007 122.89 43.5026Z" fill="#3F3D56"/>
<path d="M120.052 44.3418C119.659 45.1718 119.942 46.1538 119.871 47.0717C119.812 47.5875 119.695 48.095 119.523 48.5848C119.371 49.0725 119.219 49.5616 119.024 50.035C118.862 50.4283 118.669 50.8217 118.518 51.2229C118.278 51.8628 118.125 52.5826 117.639 53.0586C117.416 54.1311 117.132 55.3033 116.25 55.9537C115.483 56.5201 114.414 56.5398 113.519 56.1976C112.623 55.8553 111.896 55.1997 111.254 54.493C110.613 53.7863 110.04 53.0166 109.352 52.3584C108.957 51.9881 108.538 51.6451 108.097 51.3317C107.653 51.0092 107.196 50.7059 106.727 50.4218C106.439 50.2251 106.117 50.0849 105.778 50.0087C105.498 49.9552 105.21 50.0116 104.971 50.1661C104.917 50.2031 104.868 50.2472 104.826 50.2972C104.709 50.4606 104.62 50.6422 104.563 50.8348C104.013 52.2692 102.535 53.0061 101.355 53.9843L100.277 54.8772C100.13 54.9991 99.9676 55.1774 100.04 55.3545C100.089 55.444 100.169 55.5128 100.265 55.5485C100.892 55.858 101.628 55.9825 102.144 56.4545C102.333 56.6276 102.514 56.8558 102.77 56.8689C102.905 56.861 103.037 56.8313 103.163 56.781C103.36 56.7277 103.567 56.7207 103.768 56.7608C103.968 56.8008 104.157 56.8867 104.318 57.0118C104.41 57.1013 104.516 57.1745 104.633 57.2281C104.73 57.2539 104.832 57.2602 104.932 57.2465C105.211 57.2268 105.507 57.2019 105.758 57.3265C106.008 57.451 106.214 57.7448 106.507 57.7657C106.649 57.7762 106.82 57.729 106.956 57.7421C106.994 57.7433 107.031 57.7535 107.063 57.7717C107.096 57.79 107.124 57.8158 107.145 57.847C107.176 57.9191 107.196 57.9949 107.207 58.0726C107.26 58.2574 107.441 58.3702 107.559 58.5223C107.74 58.7557 107.767 59.073 107.748 59.368C107.689 60.2905 107.278 61.155 106.6 61.7832C106.407 61.98 106.162 62.1167 105.893 62.1766C105.758 62.2047 105.618 62.1899 105.493 62.1341C105.367 62.0783 105.262 61.9845 105.193 61.8658C105.163 61.7637 105.119 61.6665 105.062 61.5774C104.851 61.3453 104.377 61.5918 104.183 61.344C104.062 61.1893 104.149 60.9414 104.034 60.7815C103.918 60.6215 103.64 60.6503 103.427 60.6412C103.176 60.6281 102.944 60.5101 102.701 60.4484C102.308 60.3462 101.896 60.3842 101.494 60.3566C101.159 60.3271 100.827 60.2746 100.5 60.1993L98.8322 59.8584C97.7701 59.642 96.7041 59.4231 95.6932 59.0363C95.3064 58.8894 94.9169 58.7085 94.6442 58.3938C94.4244 58.1173 94.2831 57.7866 94.2351 57.4366C93.9978 56.0376 95.2565 54.8418 95.4152 53.4323C95.4716 52.9183 95.6774 52.4331 95.8715 51.9559C96.2273 51.1027 96.5822 50.2491 96.9362 49.3951C96.9934 49.2361 97.0682 49.0839 97.1591 48.9414C97.31 48.7589 97.4801 48.5932 97.6665 48.4471C98.1634 47.9962 98.5198 47.4117 98.6932 46.7635C98.706 46.6914 98.7362 46.6235 98.781 46.5656C98.8275 46.5266 98.8786 46.4936 98.9331 46.4672C99.0268 46.4063 99.0972 46.3156 99.1331 46.2097C99.169 46.1039 99.1683 45.9891 99.1311 45.8837C99.2125 45.877 99.2888 45.8413 99.3461 45.783C99.4033 45.7248 99.4378 45.6479 99.4432 45.5664C99.4336 45.4955 99.4381 45.4233 99.4563 45.354C99.4878 45.2858 99.5664 45.2517 99.6123 45.1914C99.6871 45.0931 99.6608 44.9554 99.649 44.8322C99.6412 44.7541 99.6412 44.6755 99.649 44.5975C99.6777 44.3198 99.8019 44.0608 100 43.8645C100.314 43.5564 100.76 43.6364 101.192 43.5629C101.624 43.4698 102.045 43.335 102.451 43.1604C103.589 42.7121 104.787 42.4351 106.006 42.3383C107.231 42.2419 108.461 42.4379 109.596 42.91C109.761 42.9768 109.916 43.065 110.059 43.1722C110.16 43.25 110.242 43.3489 110.301 43.462C110.35 43.6008 110.409 43.7354 110.479 43.8645C110.62 44.0559 110.885 44.1176 111.038 44.2985C111.191 44.4795 111.205 44.785 111.332 45.0092C111.514 45.3291 111.936 45.4773 112.062 45.8247C112.101 45.9349 112.107 46.0555 112.135 46.1696C112.206 46.4554 112.419 46.6809 112.606 46.9065C113.294 47.7286 113.734 48.7289 113.875 49.7911C113.917 49.1263 114.364 48.5376 114.924 48.1705C115.075 48.0721 115.25 47.9633 115.28 47.785C115.318 47.5594 115.099 47.3588 115.113 47.1294C115.129 47.0173 115.174 46.9115 115.244 46.8225C115.494 46.4604 115.768 46.1156 116.065 45.7906C116.226 45.6136 116.407 45.3973 116.34 45.1639C116.289 44.9895 116.111 44.8872 116.013 44.7351C115.955 44.6445 115.926 44.5389 115.928 44.4316C115.931 44.3243 115.964 44.2201 116.026 44.132C116.118 44.0074 116.263 43.917 116.308 43.7688C116.359 43.5944 116.245 43.4056 116.28 43.226C116.328 43.0821 116.423 42.9587 116.55 42.8759C116.724 42.7175 116.922 42.5874 117.136 42.4904C117.482 42.3593 117.868 42.4078 118.235 42.4589C118.849 42.5441 119.537 42.6753 119.883 43.1892C120.105 43.5105 120.218 43.9982 120.052 44.3418Z" fill="#65617D"/>
<path opacity="0.1" d="M122.89 43.5026C122.882 43.7059 122.857 43.9327 122.7 44.0599C122.563 44.1475 122.4 44.1859 122.238 44.1687H122.203C122.257 43.896 122.588 43.7399 122.646 43.4633C122.656 43.3783 122.648 43.2922 122.623 43.2103C122.598 43.1284 122.557 43.0525 122.502 42.9873C122.221 42.6084 121.77 42.3986 121.322 42.2452C120.055 41.8109 118.698 41.7093 117.38 41.9502C117.022 42.0085 116.673 42.1157 116.344 42.2688C116.235 42.337 116.13 42.4115 116.03 42.4917C115.951 42.3588 115.901 42.211 115.883 42.0577C115.883 41.9049 115.936 41.7568 116.032 41.6381C116.139 41.5115 116.27 41.4073 116.418 41.3314C116.565 41.2556 116.726 41.2097 116.891 41.1962C117.222 41.1706 117.554 41.1882 117.88 41.2487L121.108 41.7129C121.357 41.7483 121.607 41.7837 121.853 41.844C122.086 41.8844 122.305 41.9807 122.493 42.1246C122.878 42.4445 122.909 43.007 122.89 43.5026Z" fill="black"/>
<path opacity="0.1" d="M108.939 59.6223C108.741 60.3802 108.146 60.9702 107.84 61.6927C107.38 62.7744 107.587 64.0974 106.937 65.0756C106.726 65.3727 106.471 65.6358 106.18 65.8557C106.019 65.9927 105.843 66.111 105.656 66.2084C105.461 66.3157 105.233 66.3439 105.018 66.2871C104.742 66.1927 104.575 65.8938 104.548 65.6053C104.538 65.5107 104.538 65.4154 104.548 65.3208L104.556 65.3418C104.67 65.6171 104.856 65.9056 105.149 65.9541C105.26 65.962 105.37 65.9471 105.475 65.9104C105.579 65.8736 105.674 65.8157 105.755 65.7404C106.188 65.3929 106.44 64.875 106.68 64.3754C106.867 64.0152 107.016 63.6358 107.123 63.2439C107.175 63.0209 107.2 62.7928 107.254 62.5699C107.503 61.4869 108.351 60.6031 108.539 59.5056C108.554 59.4302 108.558 59.3528 108.549 59.2762C108.525 59.1763 108.487 59.0802 108.437 58.9903C108.391 58.8889 108.358 58.7824 108.337 58.673C108.599 58.7674 108.877 58.913 108.96 59.1778C108.994 59.3251 108.986 59.4789 108.939 59.6223Z" fill="black"/>
<path opacity="0.1" d="M106.959 57.7421C106.838 58.0594 106.633 58.3383 106.368 58.5498C105.994 58.8342 105.557 59.0233 105.094 59.1005C104.879 59.1555 104.653 59.1528 104.439 59.0927C104.148 58.9917 103.938 58.719 103.64 58.6403C103.428 58.5826 103.2 58.6338 102.985 58.6023C102.598 58.5485 102.298 58.2535 101.986 58.0175C101.03 57.299 99.7749 57.0669 98.8191 56.3484C98.7765 56.3222 98.7413 56.2857 98.7168 56.2421C98.6985 56.195 98.6917 56.1442 98.6971 56.094C98.7007 55.6581 98.7986 55.2283 98.9843 54.8339C99.1363 54.5588 99.3174 54.3008 99.5245 54.0643C100.381 53.0153 101.241 51.9585 102.266 51.0734C102.696 50.7024 103.166 50.3562 103.708 50.1884C104.01 50.0953 104.605 50.0074 104.972 50.1648C104.918 50.2018 104.869 50.2459 104.827 50.2959C104.71 50.4593 104.622 50.641 104.565 50.8335C104.013 52.2692 102.535 53.0061 101.355 53.9843L100.277 54.8772C100.13 54.9991 99.9677 55.1775 100.04 55.3545C100.089 55.444 100.169 55.5128 100.265 55.5485C100.892 55.858 101.628 55.9825 102.144 56.4546C102.333 56.6276 102.514 56.8558 102.77 56.8689C102.905 56.861 103.037 56.8313 103.163 56.781C103.36 56.7277 103.567 56.7207 103.768 56.7608C103.968 56.8008 104.157 56.8867 104.318 57.0118C104.41 57.1014 104.516 57.1745 104.633 57.2282C104.73 57.2539 104.832 57.2602 104.932 57.2465C105.211 57.2269 105.507 57.2019 105.758 57.3265C106.008 57.4511 106.214 57.7448 106.507 57.7657C106.652 57.7762 106.823 57.7264 106.959 57.7421Z" fill="black"/>
<path d="M94.8999 39.9467C94.6508 40.1067 94.3859 40.2876 94.2836 40.5656C94.1997 40.7924 94.239 41.052 94.1381 41.2723C94.0371 41.4926 93.8103 41.646 93.7605 41.882C93.7251 42.0538 93.7945 42.2347 93.7605 42.4065C93.7308 42.4958 93.7067 42.5869 93.6883 42.6792C93.6752 42.8746 93.8431 43.0332 94.007 43.1421C94.3559 43.369 94.7532 43.511 95.167 43.5565C95.5807 43.6021 95.9994 43.5499 96.3894 43.4043C96.7395 43.2732 97.0555 43.0595 97.3911 42.8916C97.7185 42.7031 98.0929 42.6121 98.4702 42.6294C98.6866 42.653 98.8938 42.7317 99.1101 42.7605C99.217 42.7816 99.3273 42.7764 99.4317 42.7454C99.5361 42.7143 99.6314 42.6583 99.7093 42.5822C99.7761 42.4899 99.821 42.3837 99.8404 42.2714C100.023 41.5516 99.9401 40.7885 99.767 40.0647C99.5939 39.3409 99.3317 38.6447 99.1468 37.9249C99.0157 37.3912 98.9147 36.8444 98.6958 36.3396C98.4768 35.8348 98.1084 35.3654 97.5931 35.1727C97.5524 35.1527 97.5063 35.1467 97.4619 35.1556C97.4289 35.1694 97.3996 35.191 97.3767 35.2186C96.9691 35.6505 96.662 36.1672 96.4772 36.7317C96.2714 37.3597 96.215 38.0258 96.0262 38.6565C95.9449 38.9187 95.84 39.2701 95.6328 39.4707C95.4257 39.6714 95.1346 39.7959 94.8999 39.9467Z" fill="#3F3D56"/>
<path opacity="0.1" d="M99.8444 42.2675C99.8224 42.3801 99.7754 42.4863 99.7068 42.5782C99.629 42.6546 99.5337 42.7107 99.4292 42.7415C99.3248 42.7724 99.2143 42.7771 99.1075 42.7553C98.8925 42.729 98.6853 42.6491 98.469 42.6241C98.0916 42.6067 97.7172 42.6977 97.3899 42.8864C97.0542 43.0542 96.7343 43.2627 96.3868 43.3977C95.8785 43.5905 95.3232 43.6221 94.7964 43.4882C94.5165 43.4179 94.2506 43.3009 94.0097 43.1421C93.8444 43.0345 93.6779 42.8798 93.691 42.6792C93.7094 42.5873 93.7335 42.4967 93.7631 42.4078C93.7972 42.236 93.7291 42.0551 93.7631 41.8833C93.813 41.6473 94.0411 41.49 94.1408 41.2723C94.2404 41.0546 94.2024 40.7937 94.285 40.5669C94.3873 40.2876 94.6534 40.108 94.9026 39.9467C95.1517 39.7854 95.448 39.6622 95.6473 39.4668C95.6731 39.4364 95.6963 39.4039 95.7168 39.3698C95.8605 39.1481 95.966 38.9039 96.0289 38.6473C96.2216 38.0153 96.2741 37.3505 96.4786 36.7212C96.6641 36.1572 96.9717 35.641 97.3794 35.2094C97.4012 35.1812 97.4302 35.1595 97.4633 35.1464C97.5076 35.1374 97.5536 35.1429 97.5944 35.1622C98.1084 35.3562 98.4769 35.8256 98.6971 36.3304C98.9174 36.8352 99.0105 37.3794 99.1482 37.9143C99.3318 38.6342 99.5953 39.3331 99.7684 40.0555C99.9415 40.778 100.027 41.5463 99.8444 42.2675Z" fill="black"/>
<path opacity="0.1" d="M103.744 26.2762C103.127 26.4721 102.46 26.4332 101.871 26.167C101.281 25.9008 100.811 25.426 100.55 24.8339C100.56 24.7111 100.578 24.5889 100.602 24.4681C100.733 23.865 101.295 24.0852 101.738 24.2452C102.271 24.4185 102.787 24.642 103.278 24.9126C103.428 24.9898 103.558 25.1001 103.659 25.2352C103.853 25.5249 103.775 25.9104 103.744 26.2762Z" fill="black"/>
<path d="M102.952 26.2684C104.4 26.2684 105.574 25.0943 105.574 23.646C105.574 22.1977 104.4 21.0236 102.952 21.0236C101.504 21.0236 100.33 22.1977 100.33 23.646C100.33 25.0943 101.504 26.2684 102.952 26.2684Z" fill="#BE6F72"/>
<path opacity="0.1" d="M110.068 43.243C110.068 43.4606 109.773 43.5301 109.554 43.5183C108.767 43.4724 107.997 43.2561 107.219 43.3216C106.234 43.4108 105.329 43.9549 104.342 44.0048C103.962 44.0244 103.575 43.9681 103.2 44.0376C102.715 44.128 102.282 44.423 101.788 44.465C101.359 44.5017 100.935 44.3404 100.507 44.3575C100.207 44.3754 99.9146 44.4586 99.6504 44.6014C99.6791 44.3237 99.8033 44.0647 100.002 43.8684C100.315 43.5603 100.761 43.6403 101.194 43.5668C101.625 43.4737 102.047 43.3389 102.452 43.1643C103.59 42.716 104.788 42.439 106.007 42.3422C107.231 42.2448 108.461 42.4394 109.596 42.9099C109.761 42.9768 109.916 43.0649 110.059 43.1722C110.066 43.1951 110.069 43.219 110.068 43.243V43.243Z" fill="black"/>
<path d="M101.739 28.4344L100.677 28.0411L100.229 27.8758C100.046 27.7993 99.8535 27.7481 99.6569 27.7237C99.1429 27.6844 98.6591 28.0266 98.3851 28.4633C98.111 28.8999 98.0074 29.4204 97.9196 29.9279C97.799 30.6219 97.6967 31.3186 97.6128 32.0179C97.5224 32.6494 97.4764 33.2864 97.4751 33.9244C97.5053 35.5476 97.8488 37.1486 98.2264 38.7286C98.4114 39.4291 98.5511 40.1408 98.6447 40.8592C98.6762 41.1556 98.6906 41.4532 98.722 41.7508C98.7561 42.0852 98.8112 42.4156 98.8663 42.7473L99.1823 44.6315C99.5756 44.3522 100.023 44.107 100.507 44.0926C100.935 44.0769 101.36 44.2369 101.788 44.2001C102.279 44.1595 102.715 43.8645 103.2 43.774C103.575 43.7045 103.962 43.7596 104.343 43.7412C105.329 43.6914 106.235 43.1459 107.219 43.0581C107.999 42.9873 108.774 43.2076 109.555 43.2535C109.773 43.2666 110.068 43.1971 110.068 42.9781C110.068 42.826 109.916 42.7251 109.783 42.649C109.159 42.2731 108.565 41.8492 108.007 41.3811C107.49 40.972 106.965 40.5524 106.61 39.9991C105.754 38.6682 106.048 36.868 105.317 35.4637C104.723 34.323 105.317 32.8282 105.317 31.5419C105.317 30.9008 105.317 30.2517 105.167 29.6289C105.072 29.2806 104.955 28.9389 104.815 28.6062L104.305 27.3147C104.294 27.2769 104.274 27.2429 104.245 27.2163C104.21 27.1927 104.17 27.1803 104.128 27.1809C103.822 27.1626 103.52 27.2594 103.281 27.4523C103.041 27.6477 102.888 27.9283 102.652 28.1315C102.393 28.3557 102.06 28.5524 101.739 28.4344Z" fill="#E3E8F4"/>
<path d="M103.453 27.6897C103.537 27.3304 103.627 26.9567 103.867 26.6761C104.107 26.3956 104.545 26.2474 104.854 26.448C105.206 26.6761 105.22 27.2032 105.52 27.497C105.783 27.7487 106.176 27.7684 106.533 27.8011C107.174 27.8595 107.804 28.0078 108.404 28.2417C108.521 28.278 108.627 28.3418 108.715 28.4279C108.878 28.6141 108.846 28.8999 108.927 29.132C109.038 29.431 109.347 29.6211 109.466 29.9187C109.597 30.2491 109.466 30.6189 109.356 30.9585C109.158 31.5682 109.033 32.2015 108.84 32.8138C108.648 33.4261 108.374 34.0293 107.923 34.4908C107.723 34.6954 107.427 34.8842 107.165 34.7622L107.064 35.49C107.034 35.6437 107.034 35.8017 107.064 35.9554C107.079 36.0324 107.116 36.1034 107.169 36.1605C107.223 36.2175 107.292 36.2583 107.368 36.278C107.388 36.3907 107.507 36.4445 107.604 36.5061C107.676 36.5551 107.737 36.6178 107.784 36.6906C107.831 36.7634 107.863 36.8449 107.879 36.9303C107.894 37.0156 107.893 37.1032 107.874 37.188C107.856 37.2727 107.82 37.3529 107.77 37.424C107.688 37.5354 107.566 37.6233 107.527 37.7557C107.468 37.9471 107.608 38.149 107.778 38.2539C107.949 38.3588 108.149 38.4074 108.322 38.5083C108.682 38.7155 108.875 39.1233 108.998 39.5192C109.09 39.8182 109.166 40.1421 109.391 40.3597C109.478 40.4423 109.581 40.5053 109.664 40.5918C109.807 40.7607 109.889 40.9725 109.899 41.1936C109.934 41.4677 109.874 41.7457 109.728 41.9803C109.466 42.3553 108.977 42.4668 108.548 42.6359C107.852 42.9218 107.279 43.4331 106.665 43.8685C106.415 44.0697 106.121 44.2082 105.806 44.2723C105.382 44.3287 104.963 44.1412 104.536 44.1241C104.28 44.1265 104.026 44.16 103.778 44.2238L102.991 44.3942C103.033 43.7845 102.698 43.1735 102.51 42.5927C102.156 41.4991 102.09 40.3296 102.174 39.1836C102.258 38.0376 102.492 36.9074 102.722 35.7824C102.884 34.9956 102.868 34.1735 103.116 33.4091C103.348 32.6735 103.68 31.9668 103.802 31.2011C104.001 29.962 103.172 28.9117 103.453 27.6897Z" fill="#3F3D56"/>
<path d="M109.417 30.1141C109.49 30.2473 109.541 30.3911 109.568 30.5402C109.629 30.7712 109.742 30.9849 109.9 31.1644C110.032 31.2807 110.149 31.4128 110.249 31.5577C110.369 31.7859 110.323 32.0638 110.38 32.313C110.445 32.5844 110.635 32.8204 110.663 33.0997C110.664 33.1797 110.671 33.2595 110.685 33.3383C110.771 33.6556 111.237 33.7317 111.341 34.049C111.41 34.2548 111.291 34.479 111.313 34.6954C111.33 34.7623 111.334 34.8316 111.325 34.8999C111.296 34.9772 111.243 35.0439 111.176 35.0914C110.742 35.5059 110.441 36.0405 110.313 36.6268C110.187 37.2098 110.12 37.8042 110.115 38.4008L109.602 37.7229C109.548 37.6407 109.479 37.5695 109.398 37.5131C109.332 37.4738 109.256 37.4541 109.189 37.4148C108.995 37.3046 108.919 37.0713 108.844 36.8615C108.637 36.2807 108.326 35.7423 107.927 35.2723C107.718 35.0271 107.476 34.7806 107.43 34.462C107.416 34.3156 107.424 34.1681 107.453 34.0241C107.584 33.1652 107.725 32.2854 108.143 31.5236C108.338 31.167 108.591 30.8444 108.779 30.4825C108.905 30.2426 109.082 29.6185 109.417 30.1141Z" fill="#3F3D56"/>
<path d="M96.4825 30.9388C96.4849 31.0491 96.4567 31.158 96.4012 31.2534C96.351 31.3115 96.2857 31.3545 96.2126 31.3777C96.1394 31.4008 96.0613 31.4032 95.9868 31.3846C95.8376 31.3471 95.6969 31.2812 95.5725 31.1905C95.2071 30.9597 94.8417 30.7285 94.4764 30.4969C94.2724 30.3739 94.0758 30.2391 93.8876 30.093C93.6 29.8503 93.3394 29.5773 93.1101 29.2788C92.4729 28.4921 91.9091 27.6385 91.1997 26.9187C91.007 26.722 90.8063 26.5332 90.6202 26.3273C90.3657 26.0297 90.1317 25.7152 89.92 25.3859C89.7154 25.083 89.503 24.7473 89.5384 24.3854C89.5594 24.1809 89.6577 23.9921 89.6866 23.7888C89.7154 23.5856 89.6381 23.3378 89.4414 23.2827C89.4182 23.2769 89.3945 23.2729 89.3706 23.2709C89.3318 23.2668 89.2935 23.2585 89.2565 23.246C89.0743 23.17 89.1018 22.8881 89.2329 22.7399C89.364 22.5917 89.5581 22.5091 89.6774 22.3465C89.7329 22.2501 89.7951 22.1576 89.8636 22.0699C89.9514 21.9946 90.0563 21.9419 90.1691 21.9165C90.9254 21.6936 91.7255 21.6634 92.4965 21.8286C92.6276 21.8575 92.7771 21.9099 92.8164 22.0371C92.8321 22.0991 92.8321 22.1639 92.8164 22.2259C92.7586 22.4844 92.7252 22.7478 92.7167 23.0126C92.7165 23.0678 92.7196 23.123 92.7259 23.1778C92.7875 23.7338 93.1481 24.2045 93.4995 24.6385C93.9165 25.1551 94.34 25.6678 94.7648 26.1791C94.9946 26.4755 95.2514 26.7498 95.5319 26.9986C95.7941 27.2163 96.1337 27.392 96.3382 27.6713C96.5048 27.8968 96.451 28.2049 96.4694 28.4763C96.5303 29.2959 96.5347 30.1186 96.4825 30.9388V30.9388Z" fill="#3F3D56"/>
<path d="M113.135 36.4091C113.264 36.2832 113.381 36.1449 113.483 35.9961C113.594 35.8117 113.682 35.615 113.746 35.41L114.506 33.2531C114.627 32.9122 114.747 32.57 114.9 32.2382C115.057 31.8803 115.243 31.5354 115.415 31.1893C115.857 30.2783 116.198 29.3221 116.434 28.3374C116.475 28.2021 116.489 28.0599 116.474 27.9192C116.438 27.6923 116.266 27.5153 116.102 27.354C115.937 27.176 115.749 27.0208 115.543 26.8925C115.44 26.8282 115.325 26.7851 115.205 26.7658C115.084 26.7464 114.961 26.7512 114.843 26.7797C114.507 26.8781 114.296 27.2216 114.219 27.5665C114.142 27.9113 114.17 28.264 114.138 28.6154C114.091 29.1189 113.917 29.6054 113.875 30.1102C113.853 30.4026 113.875 30.6976 113.84 30.9887C113.776 31.3709 113.642 31.7383 113.447 32.073C113.021 32.8704 112.445 33.5782 111.751 34.1578C111.561 34.2981 111.39 34.4625 111.243 34.6469C111.119 34.8313 111.036 35.0394 110.997 35.2579C110.91 35.5906 110.948 35.9437 111.104 36.2505C111.317 36.615 111.728 36.7749 112.12 36.8562C112.65 36.9664 112.771 36.7854 113.135 36.4091Z" fill="#BE6F72"/>
<path d="M102.968 19.8461C103.08 19.634 103.253 19.4598 103.465 19.3453C103.676 19.2308 103.916 19.1811 104.155 19.2023C104.397 19.245 104.621 19.3544 104.803 19.518C104.985 19.6816 105.118 19.8929 105.186 20.128C105.248 20.3234 105.273 20.5397 105.38 20.7076C105.543 20.9606 105.844 21.0341 106.07 21.2176C106.205 21.3427 106.313 21.4934 106.388 21.661C106.464 21.8285 106.506 22.0094 106.51 22.1932C106.523 22.5685 106.464 22.9427 106.336 23.2959C106.282 23.4465 106.238 23.6007 106.205 23.7574C106.179 23.9095 106.176 24.0642 106.152 24.2163C106.123 24.4135 106.055 24.6029 105.952 24.7734C105.848 24.9439 105.712 25.0919 105.551 25.2089C105.505 25.2464 105.447 25.2672 105.388 25.2679C105.286 25.2561 105.223 25.1368 105.185 25.0293C104.976 24.4274 105.026 23.6918 104.642 23.2119C104.467 23.0184 104.256 22.8611 104.02 22.7491C103.924 22.6871 103.816 22.6465 103.703 22.6298C103.537 22.6387 103.377 22.6972 103.244 22.7976C102.967 22.9832 102.66 23.119 102.337 23.1988C102.175 23.2371 102.007 23.2388 101.845 23.2039C101.683 23.1689 101.531 23.0982 101.399 22.9969C101.218 22.8474 101.086 22.6232 100.885 22.5065C100.685 22.3898 100.475 22.3964 100.277 22.3164C100.151 22.2627 100.039 22.181 99.9488 22.0773C99.859 21.9737 99.794 21.851 99.7589 21.7184C99.7237 21.5859 99.7193 21.4471 99.7459 21.3126C99.7725 21.1781 99.8295 21.0514 99.9125 20.9423C100.044 20.7849 100.238 20.6958 100.354 20.5214C100.505 20.2959 100.492 19.9864 100.564 19.7163C100.607 19.5454 100.69 19.3872 100.806 19.2547C100.922 19.1222 101.068 19.0193 101.232 18.9545C101.39 18.9006 101.561 18.8902 101.725 18.9246C101.889 18.959 102.041 19.0368 102.165 19.1499C102.296 19.2679 102.401 19.42 102.53 19.5432C102.656 19.6647 102.812 19.7523 102.981 19.7981C103.151 19.844 103.329 19.8465 103.5 19.8055" fill="#3F3D56"/>
<path opacity="0.1" d="M105.123 39.1455C105.047 39.2135 104.993 39.3029 104.968 39.402C104.943 39.5012 104.949 39.6055 104.984 39.7014C105.013 39.7631 106.366 39.5021 106.509 39.4825C106.866 39.4313 107.491 39.4562 107.731 39.1298C108.159 38.5515 106.834 38.68 106.592 38.701C106.13 38.7403 105.475 38.8033 105.123 39.1455Z" fill="black"/>
<path d="M92.8139 22.2312C92.7561 22.4897 92.7227 22.7531 92.7142 23.0179C92.3209 23.0978 91.9118 22.9667 91.5342 22.8356L90.4498 22.4659C90.3838 22.4237 90.3043 22.4082 90.2273 22.4226C90.1504 22.437 90.0818 22.4801 90.0355 22.5432C89.8611 22.7242 89.6211 23.0677 89.3799 23.2709C89.341 23.2668 89.3028 23.2585 89.2658 23.246C89.0835 23.17 89.1111 22.8881 89.2422 22.7399C89.3733 22.5917 89.5674 22.5091 89.6867 22.3465C89.7422 22.2501 89.8044 22.1576 89.8729 22.0699C89.9607 21.9946 90.0656 21.9419 90.1784 21.9165C90.9347 21.6936 91.7348 21.6634 92.5058 21.8286C92.6369 21.8575 92.7863 21.9099 92.8257 22.0371C92.8385 22.1017 92.8344 22.1685 92.8139 22.2312Z" fill="#3F3D56"/>
<path opacity="0.1" d="M92.8139 22.2312C92.7561 22.4897 92.7227 22.7531 92.7142 23.0179C92.3209 23.0978 91.9118 22.9667 91.5342 22.8356L90.4498 22.4659C90.3838 22.4237 90.3043 22.4082 90.2273 22.4226C90.1504 22.437 90.0818 22.4801 90.0355 22.5432C89.8611 22.7242 89.6211 23.0677 89.3799 23.2709C89.341 23.2668 89.3028 23.2585 89.2658 23.246C89.0835 23.17 89.1111 22.8881 89.2422 22.7399C89.3733 22.5917 89.5674 22.5091 89.6867 22.3465C89.7422 22.2501 89.8044 22.1576 89.8729 22.0699C89.9607 21.9946 90.0656 21.9419 90.1784 21.9165C90.9347 21.6936 91.7348 21.6634 92.5058 21.8286C92.6369 21.8575 92.7863 21.9099 92.8257 22.0371C92.8385 22.1017 92.8344 22.1685 92.8139 22.2312Z" fill="black"/>
<path opacity="0.1" d="M102.733 47.1241C102.922 47.187 103.126 47.2788 103.191 47.4676L101.672 47.0822L100.885 46.8815C100.746 46.8461 100.248 46.8055 100.156 46.6967C100.025 46.5367 100.491 46.6468 100.575 46.6586C100.829 46.6967 101.083 46.736 101.337 46.7819C101.814 46.8671 102.273 47.0074 102.733 47.1241Z" fill="black"/>
<path opacity="0.1" d="M103.322 48.4681C103.191 48.3802 102.814 48.3907 102.653 48.3527C102.417 48.2963 102.185 48.2216 101.953 48.1495C101.482 47.996 101.015 47.8217 100.532 47.7089C100.442 47.6892 100.138 47.684 100.153 47.5712C100.167 47.4585 100.457 47.4191 100.529 47.4139C100.958 47.3824 101.493 47.583 101.891 47.7259C102.399 47.9079 102.88 48.1575 103.322 48.4681V48.4681Z" fill="black"/>
<path opacity="0.1" d="M102.359 45.9257C101.878 45.7946 101.441 45.4956 100.946 45.4379C100.817 45.4428 100.69 45.404 100.585 45.3278C100.527 45.2705 100.486 45.1977 100.469 45.118C100.8 45.1009 101.186 45.2412 101.487 45.3737C101.653 45.4449 101.813 45.53 101.965 45.628C102.075 45.6949 102.24 45.8877 102.359 45.9257Z" fill="black"/>
<path d="M111.532 34.1853C111.451 34.7304 111.569 35.2866 111.864 35.7521C112.159 36.2175 112.612 36.5611 113.14 36.7198C113.076 37.0306 112.754 37.2024 112.528 37.4239C112.208 37.7347 112.042 38.2002 111.665 38.4362C111.244 38.6984 110.702 38.5961 110.222 38.486C110.179 38.4811 110.139 38.4601 110.11 38.427C110.1 38.4113 110.093 38.394 110.089 38.3759C109.93 37.795 109.826 37.1748 109.989 36.5926C110.12 36.097 110.435 35.6748 110.687 35.2369C110.938 34.7989 110.962 34.3295 111.532 34.1853Z" fill="#3F3D56"/>
<path d="M99.809 26.667C99.3014 26.7039 98.8086 26.854 98.3667 27.1062C98.073 27.274 97.7714 27.4996 97.4357 27.4589C97.2377 27.4366 97.0424 27.3278 96.8496 27.3803C96.741 27.4241 96.6398 27.4842 96.5493 27.5586C96.5035 27.5951 96.449 27.6191 96.391 27.6283C96.3331 27.6375 96.2738 27.6315 96.2189 27.611L96.0878 29.4257C96.038 30.1154 95.9895 30.8195 96.1547 31.4921C96.2399 31.8357 96.4274 32.1477 96.4484 32.4965C96.4694 32.8453 96.4379 33.2032 96.4628 33.5559C96.4864 33.8824 96.5585 34.2037 96.5769 34.5302C96.6136 35.1464 96.4615 35.7574 96.3146 36.3566C96.0931 37.2404 95.9593 38.1438 95.5279 38.9436C95.4073 39.1652 95.2657 39.3907 95.2657 39.6425C95.2657 39.674 95.2657 39.7041 95.2736 39.7343C95.1424 39.8064 95.0205 39.8746 94.9091 39.9454C94.6599 40.1066 94.3938 40.2863 94.2915 40.5656C94.2089 40.7924 94.2469 41.052 94.1472 41.271C94.0476 41.49 93.8195 41.646 93.7696 41.882C93.7342 42.0538 93.8024 42.2347 93.7696 42.4065C93.7399 42.4953 93.7158 42.586 93.6975 42.6779C93.6844 42.8746 93.8509 43.0332 94.0161 43.1407C94.257 43.2995 94.523 43.4166 94.8028 43.4869L95.5856 40.3794C96.2993 39.0598 96.893 37.6788 97.3597 36.2531C97.4932 35.787 97.6646 35.3327 97.8723 34.8947C98.0208 34.6469 98.1522 34.3893 98.2657 34.1237C98.385 33.7933 98.3968 33.4353 98.4545 33.0865C98.523 32.6795 98.6261 32.279 98.7626 31.8894C98.9042 31.4685 99.0682 31.049 99.097 30.6071C99.1403 29.9751 98.9108 29.3077 99.1547 28.7229C99.2582 28.504 99.3929 28.3013 99.5546 28.1211C99.8929 27.7067 100.201 27.2727 100.539 26.8584C100.364 26.6709 100.071 26.6512 99.809 26.667Z" fill="#3F3D56"/>
<g opacity="0.1">
<path opacity="0.1" d="M103.504 19.4148L103.34 19.4266L103.322 19.4397C103.383 19.4372 103.444 19.4289 103.504 19.4148V19.4148Z" fill="black"/>
<path opacity="0.1" d="M106.504 22.1369C106.477 22.3975 106.42 22.6544 106.336 22.9026C106.282 23.0533 106.238 23.2075 106.205 23.3641C106.179 23.5162 106.176 23.6709 106.153 23.823C106.124 24.0203 106.055 24.2097 105.952 24.3801C105.849 24.5506 105.712 24.6987 105.551 24.8156C105.505 24.8531 105.448 24.8739 105.388 24.8746C105.286 24.8628 105.223 24.7435 105.185 24.636C104.976 24.0341 105.026 23.2986 104.642 22.8187C104.467 22.6251 104.256 22.4678 104.021 22.3558C103.925 22.2939 103.816 22.2532 103.703 22.2365C103.537 22.2454 103.377 22.3039 103.244 22.4043C102.968 22.59 102.661 22.7258 102.337 22.8056C102.176 22.8438 102.008 22.8455 101.845 22.8106C101.683 22.7757 101.531 22.7049 101.4 22.6036C101.219 22.4542 101.086 22.2299 100.886 22.1133C100.685 21.9966 100.475 22.0031 100.277 21.9231C100.154 21.8703 100.043 21.7903 99.9548 21.6891C99.8663 21.5878 99.8017 21.468 99.7658 21.3383C99.7612 21.322 99.7577 21.3053 99.7553 21.2885C99.7226 21.4349 99.7262 21.587 99.7658 21.7317C99.8017 21.8613 99.8663 21.9812 99.9548 22.0824C100.043 22.1837 100.154 22.2637 100.277 22.3165C100.475 22.3965 100.698 22.3978 100.886 22.5066C101.073 22.6154 101.219 22.8475 101.4 22.997C101.531 23.0983 101.683 23.169 101.845 23.2039C102.008 23.2389 102.176 23.2372 102.337 23.1989C102.661 23.1191 102.968 22.9833 103.244 22.7977C103.377 22.6972 103.537 22.6388 103.703 22.6299C103.816 22.6465 103.925 22.6872 104.021 22.7492C104.253 22.8633 104.461 23.0219 104.633 23.216C105.017 23.6959 104.967 24.4314 105.176 25.0333C105.214 25.1421 105.277 25.2601 105.379 25.2719C105.442 25.2722 105.503 25.2499 105.551 25.209C105.713 25.0917 105.85 24.9431 105.953 24.7719C106.057 24.6007 106.125 24.4105 106.154 24.2125C106.178 24.0604 106.18 23.9056 106.206 23.7535C106.239 23.5969 106.283 23.4427 106.337 23.292C106.465 22.9389 106.524 22.5646 106.512 22.1893C106.509 22.1736 106.507 22.1552 106.504 22.1369Z" fill="black"/>
</g>
<path d="M98.2081 32.6578L98.119 33.8549C98.1059 34.0175 97.7951 37.8881 95.5032 42.4117C93.5364 46.2915 89.709 51.3448 82.483 54.1849C81.9192 54.4078 81.334 54.6158 80.7274 54.809L80.0508 52.6849C81.7493 52.1503 83.3855 51.4347 84.931 50.5503C88.6142 48.4235 91.4778 45.3881 93.4747 41.4821C94.5342 39.4024 95.2893 37.1813 95.7169 34.8868H87.4957V32.6578H98.2081Z" fill="#6C63FF"/>
<path opacity="0.1" d="M81.5979 54.1862C88.8225 51.3462 92.6512 46.2941 94.6167 42.4143C96.9086 37.8907 97.2207 34.0227 97.2325 33.8575L97.3216 32.6604H98.2395L98.1503 33.8575C98.1385 34.0201 97.8264 37.8907 95.5345 42.4143C93.5677 46.2941 89.7404 51.3462 82.5157 54.1862C81.9519 54.4091 81.3662 54.6176 80.7587 54.8116L80.6696 54.5323C80.986 54.4196 81.2954 54.3042 81.5979 54.1862Z" fill="white"/>
<path d="M67.1328 52.6849L66.4562 54.809C65.8487 54.6149 65.2631 54.4065 64.6992 54.1836C57.4746 51.3435 53.6459 46.2915 51.6804 42.4117C49.3885 37.8881 49.0764 34.0201 49.0646 33.8549L48.9755 32.6578H59.6826V34.8868H51.4602C51.89 37.1816 52.6473 39.4027 53.7089 41.4821C55.7058 45.3881 58.5681 48.4235 62.2513 50.5489C63.7969 51.4343 65.4336 52.1504 67.1328 52.6849V52.6849Z" fill="#6C63FF"/>
<path opacity="0.1" d="M65.583 54.1862C58.3584 51.3462 54.5297 46.2941 52.5642 42.4143C50.2723 37.8907 49.9602 34.0227 49.9484 33.8575L49.8592 32.6604H48.9414L49.0306 33.8575C49.0424 34.0201 49.3544 37.8907 51.6464 42.4143C53.6132 46.2941 57.4405 51.3462 64.6652 54.1862C65.229 54.4091 65.8147 54.6176 66.4222 54.8116L66.5113 54.5323C66.1958 54.4196 65.8863 54.3042 65.583 54.1862Z" fill="white"/>
<path d="M85.9602 73.2181V85.2378H61.222V73.2181L62.0088 72.1692C70.0254 69.3239 71.6499 61.9039 71.9738 58.9681C72.022 58.5624 72.0496 58.1546 72.0564 57.7461H75.1154C75.1222 58.1546 75.1498 58.5624 75.198 58.9681C75.5271 61.9039 77.1517 69.3265 85.163 72.1692L85.9602 73.2181Z" fill="#6C63FF"/>
<path opacity="0.1" d="M85.9602 73.2181H61.222V74.726H85.9602V73.2181Z" fill="black"/>
<path opacity="0.1" d="M63.32 72.1692C71.3366 69.3239 72.9611 61.9039 73.285 58.9681C73.3332 58.5624 73.3608 58.1546 73.3676 57.7461H72.0564C72.0496 58.1546 72.022 58.5624 71.9738 58.9681C71.6447 61.9039 70.0201 69.3265 62.0088 72.1692L61.222 73.2181V85.2378H62.5332V73.2181L63.32 72.1692Z" fill="white"/>
<path opacity="0.1" d="M57.4641 32.6578H59.6826V34.8868H57.6608C57.5812 34.1525 57.5157 33.4095 57.4641 32.6578Z" fill="black"/>
<path opacity="0.1" d="M67.1329 52.6849L66.4563 54.809C65.8488 54.6149 65.2631 54.4065 64.6993 54.1836C63.7719 53.0509 62.9523 51.8341 62.2513 50.549C63.797 51.4343 65.4337 52.1504 67.1329 52.6849Z" fill="black"/>
<path opacity="0.1" d="M80.0494 52.6849C81.748 52.1503 83.3841 51.4347 84.9297 50.5502C84.2283 51.8356 83.4088 53.0528 82.4817 54.1862C81.9179 54.4091 81.3326 54.6171 80.726 54.8103L80.0494 52.6849Z" fill="black"/>
<path opacity="0.1" d="M89.7167 32.6578C89.6652 33.4095 89.5996 34.1525 89.52 34.8868H87.4995V32.6578H89.7167Z" fill="black"/>
<path opacity="0.1" d="M75.2032 58.9681C74.1384 59.1744 73.0438 59.1744 71.979 58.9681C72.0272 58.5624 72.0548 58.1546 72.0616 57.7461H75.1206C75.1274 58.1546 75.155 58.5624 75.2032 58.9681V58.9681Z" fill="black"/>
<path d="M57.7264 28.9655C57.7828 45.4943 64.8632 58.8606 73.5918 58.8606C82.3204 58.8606 89.3995 45.4943 89.4572 28.9655H57.7264Z" fill="#6C63FF"/>
<path opacity="0.1" d="M60.5455 28.9655H57.7264C57.7828 45.4943 64.8632 58.8606 73.5918 58.8606C74.0642 58.8597 74.5356 58.8198 75.0014 58.7413C66.9323 57.3934 60.5993 44.5948 60.5455 28.9655Z" fill="white"/>
<path d="M82.0045 77.8191H65.178V82.146H82.0045V77.8191Z" fill="#3F3D56"/>
<path opacity="0.1" d="M65.9647 78.4091H82.0045V77.8191H65.178V82.146H65.9647V78.4091Z" fill="white"/>
<path d="M48.7527 44.924C48.4498 44.823 46.6666 43.4122 46.5315 42.7736C46.3965 42.1351 47.4743 36.1862 47.4743 36.1862C47.4743 36.1862 47.3746 36.1862 47.212 36.1666V36.0709L47.4336 28.2562C47.4336 28.2562 48.3423 23.0114 46.6259 23.3169C44.9096 23.6224 45.9861 28.2562 45.9861 28.2562C45.9861 28.2562 45.7907 30.6084 45.653 31.3139C45.5219 31.9944 44.9214 34.7662 45.3305 35.6277C45.3454 35.6583 45.3621 35.688 45.3803 35.7168V35.7168C45.3803 35.7168 45.4485 38.6736 44.7077 39.0774C44.0009 39.4616 43.7072 41.3956 43.6823 41.5687L43.6443 41.5529C43.4333 41.4209 43.248 41.2516 43.0975 41.0534C43.0818 41.0337 43.07 41.0127 43.0556 40.9917C43.538 40.449 43.798 39.7443 43.7836 39.0183C43.7693 38.2923 43.4817 37.5985 42.9782 37.0752C42.7441 36.8321 42.4695 36.6315 42.1666 36.4826C42.1578 36.232 42.0984 35.9858 41.9922 35.7588C41.6513 35.0298 39.7632 34.0765 38.4218 34.0542C37.8029 34.0359 37.2955 34.2116 37.1106 34.6954C37.0162 34.9406 37.0451 35.2199 37.0057 35.4743C36.9271 35.9987 36.5901 36.4091 36.1574 36.7356C35.9827 36.5406 35.7938 36.3587 35.5923 36.1915C35.1543 35.8558 34.2811 34.7492 34.2811 34.7492C34.2811 34.7492 31.5551 31.9262 31.3532 31.1526C31.1513 30.379 28.4279 25.7334 27.8222 26.5424C27.2164 27.3515 29.9083 30.8772 29.9083 30.8772C29.9083 30.8772 30.4196 32.1583 30.813 32.591C31.2063 33.0236 34.2221 37.403 34.2221 37.403L34.3663 37.702C33.7291 38.0376 33.1469 38.4651 32.941 39.1312C32.6395 40.1119 33.299 41.0979 33.7553 42.0158C34.6443 43.8069 34.7715 46.091 33.6242 47.7273C32.5962 49.1722 30.813 49.8593 29.1438 50.4598C29.9499 51.0928 30.9514 51.4253 31.976 51.4C31.5905 52.5171 30.2243 52.8868 29.0599 53.094C29.6709 53.6814 30.5455 53.8952 31.3847 54.025C31.7957 54.0949 32.2121 54.1278 32.629 54.1233H32.7313L32.8335 54.1154C32.9756 54.106 33.1171 54.088 33.257 54.0617C33.8628 53.9384 34.4515 53.608 34.761 53.073C35.0232 52.6154 35.115 51.9913 35.591 51.7618C35.7149 51.7059 35.8484 51.6743 35.9843 51.6687H35.9699C36.0591 51.6687 36.1508 51.6687 36.24 51.6687L38.2238 51.6884C38.3064 51.6884 38.3917 51.6884 38.4769 51.6884C39.0368 51.6753 39.6347 51.5783 39.9192 51.1154C40.0362 50.8907 40.0978 50.6411 40.0988 50.3877C40.1408 49.7597 40.0988 49.1132 40.1159 48.4799C40.285 49.6325 40.462 51.4288 40.0411 52.0923C39.6992 52.595 39.2847 53.0444 38.8112 53.4257C38.6921 53.5258 38.5832 53.6373 38.4861 53.7588C38.4218 53.8047 38.3838 53.8296 38.3838 53.8296L38.3431 53.9515C38.1937 54.1782 38.0854 54.4294 38.0232 54.6937C38.0003 54.7615 37.9918 54.8334 37.9983 54.9048C38.0442 54.9979 37.6705 55.382 37.7793 55.5433C36.8458 56.6382 36.6688 58.2968 36.6688 58.2968L34.9642 60.8851C34.0883 63.1862 32.7771 63.4222 32.7771 63.4222C32.7771 63.4222 29.6972 61.3558 29.6132 61.2548C29.5293 61.1539 28.3519 60.6491 28.3519 60.6491C28.2131 60.4056 28.0011 60.212 27.7461 60.0958C27.3423 59.9279 27.3082 59.309 27.3082 59.309C27.2584 57.8471 26.3995 57.7356 26.3995 57.7356C25.7072 57.6766 25.1788 57.7999 24.7723 58.0254L24.6491 58.0346C24.0538 58.0831 23.3379 58.1369 22.5512 58.1893C20.3628 58.3335 19.8423 59.7509 19.8423 59.7509C19.8423 59.7509 19.5735 60.0538 19.9262 60.3816C20.2789 60.7094 22.5368 60.3816 22.6325 60.3737C22.4604 60.3924 22.2864 60.3804 22.1185 60.3383C22.4738 60.3252 22.9629 60.3121 23.3799 60.3121H23.4808C23.4546 60.5331 23.4419 60.7556 23.4428 60.9782C23.4428 61.3978 24.6032 61.6666 24.6032 61.6666L28.1368 64.8134C28.1368 64.8134 30.358 65.806 31.7715 67.2339C33.1849 68.6618 34.4345 67.4292 34.4345 67.4292C35.9306 67.0595 40.2352 61.8554 40.2391 61.8501C40.2391 62.0022 40.3296 67.0634 40.5014 68.0796C40.5082 68.1312 40.5209 68.1817 40.5394 68.2304C40.7413 68.667 40.4712 69.8602 40.3545 70.3637C40.2801 70.7851 40.2515 71.2132 40.2693 71.6408C40.2693 71.6408 38.6552 77.8034 38.7889 78.3449C38.9227 78.8864 37.9144 81.4026 37.9144 81.4026V83.5005L38.0901 83.4913C38.0672 83.5251 38.0462 83.5601 38.0271 83.5962L38.0153 83.6185C38.0153 83.6185 39.0918 83.8532 39.8156 83.7863C40.5394 83.7194 41.7824 84.3436 41.7824 84.3436C41.7824 84.3436 42.2033 84.5429 43.4987 84.6268C44.7942 84.7107 44.7942 84.0551 44.7942 84.0551C44.646 83.1622 42.5993 82.8632 42.5363 82.8541C42.3711 82.7505 42.2164 82.6377 42.0892 82.5407L42.063 82.5197C42.0716 82.5 42.079 82.4799 42.0853 82.4594C42.3042 81.5678 41.0927 81.181 41.0927 81.181V80.9633C41.8794 80.5595 42.0355 77.7876 42.0355 77.7876C42.0355 77.7876 43.2155 74.3602 43.3807 73.7885C43.5459 73.2168 43.3807 72.3606 43.3807 72.3606L43.4987 71.6211C43.4987 71.6211 43.7518 71.1176 43.7518 71.0166C43.7846 70.7608 43.883 70.5177 44.0376 70.3112C44.2225 70.0923 43.8357 69.5717 43.8357 69.5717L44.1727 68.6985V67.74L44.9594 64.2627C44.9594 64.2627 45.7841 60.2125 45.4983 58.8868C45.2125 57.5612 45.8353 56.8873 45.8353 56.8873C45.7791 56.9168 45.7214 56.9431 45.6622 56.966C45.7409 56.784 45.8088 56.5974 45.8654 56.4074L47.6355 56.6264V56.6526H48.2741C48.2741 56.6526 48.0722 54.1613 48.0722 53.157C48.0722 52.1526 48.7527 48.5481 48.7527 48.5481C48.7527 48.5481 49.0556 45.025 48.7527 44.924ZM40.8947 42.0158C40.8947 42.1141 40.8855 42.2164 40.879 42.3213L40.8436 42.375L40.778 42.32L40.698 42.4445L40.6744 42.4563C40.5014 42.3672 40.4122 41.8571 40.2876 41.9673L40.2706 41.9817C40.2431 41.9502 40.2155 41.941 40.1867 41.9673L40.1605 41.9896C40.1605 41.9515 40.1605 41.9122 40.1605 41.8729C40.4003 41.9346 40.647 41.9659 40.8947 41.966C40.896 41.983 40.8947 42 40.8947 42.0158ZM46.782 53.6172H46.82L46.757 53.7824C46.7649 53.7273 46.7728 53.6736 46.782 53.6172V53.6172ZM40.3191 83.351L40.0778 83.2907L40.209 83.2684L40.3309 83.3484L40.3453 83.3589L40.3191 83.351ZM42.7841 82.9983C42.7042 82.9563 42.6229 82.9078 42.5442 82.858C42.5704 82.8724 42.674 82.9262 42.7841 82.9983V82.9983Z" fill="url(#paint1_linear)"/>
<path d="M47.6526 51.1403L46.0647 55.2784H46.4502L44.9568 56.469L47.6526 56.8047V51.1403Z" fill="#F86D70"/>
<path opacity="0.1" d="M47.6526 51.1403L46.0647 55.2784L45.6648 55.1709L44.9568 56.469L47.6526 56.8047V51.1403Z" fill="black"/>
<path d="M45.1626 53.7876H47.6525L48.5664 46.2679H45.1626V53.7876Z" fill="#F86D70"/>
<path opacity="0.1" d="M45.1626 53.7876H47.6525L48.5664 46.2679H45.1626V53.7876Z" fill="black"/>
<path d="M40.2994 48.0485L40.837 47.958L42.0721 47.7482C42.0721 47.7482 45.7815 46.9117 46.5472 46.8435C47.0111 46.7823 47.4635 46.6533 47.8899 46.4606C48.0905 46.3741 48.2177 46.3085 48.2177 46.3085L46.8816 43.8684L44.8086 42.3317C44.8086 42.3317 43.4974 42.0524 42.9428 41.2893C42.819 41.1251 42.7384 40.9325 42.7084 40.729C42.6784 40.5256 42.6999 40.3179 42.771 40.125C43.1093 39.076 40.7504 41.128 40.7504 41.128C40.7504 41.128 40.7727 41.6197 40.7504 42.2465C40.7504 42.3697 40.7386 42.4982 40.7295 42.6293C40.7295 42.7159 40.7177 42.8024 40.7085 42.8916C40.6508 43.5144 40.5328 44.1556 40.2994 44.5384C39.729 45.4746 40.2994 48.0485 40.2994 48.0485Z" fill="#FBBEBE"/>
<path opacity="0.1" d="M40.7505 42.2989H40.8029C40.8973 42.2989 40.9734 42.0983 41.0652 42.0891C41.8034 42.0183 42.4773 41.8636 42.9454 41.3404C42.822 41.1763 42.7416 40.9839 42.7116 40.7808C42.6816 40.5776 42.7029 40.3702 42.7737 40.1774C43.1119 39.1285 40.7531 41.1792 40.7531 41.1792C40.7531 41.1792 40.778 41.6722 40.7505 42.2989Z" fill="black"/>
<path d="M37.8789 39.3252C37.8787 39.7027 37.953 40.0765 38.0973 40.4253C38.2417 40.774 38.4534 41.0909 38.7203 41.3579C38.9873 41.6248 39.3042 41.8365 39.6529 41.9809C40.0017 42.1252 40.3756 42.1995 40.753 42.1993C40.8474 42.1993 40.9405 42.1993 41.0336 42.1862C41.5874 42.1319 42.1136 41.9179 42.5481 41.5704C42.9827 41.2228 43.3071 40.7566 43.4818 40.2283C43.6565 39.7 43.6741 39.1323 43.5325 38.5942C43.3908 38.056 43.096 37.5706 42.6838 37.1968C42.2716 36.823 41.7598 36.5768 41.2104 36.4883C40.661 36.3997 40.0978 36.4726 39.589 36.6979C39.0802 36.9233 38.6478 37.2915 38.3442 37.7579C38.0407 38.2243 37.879 38.7687 37.8789 39.3252Z" fill="#FBBEBE"/>
<path d="M36.9965 34.9629C36.9021 35.2067 36.9309 35.4795 36.8929 35.7378C36.7526 36.67 35.8046 37.2286 34.9471 37.6193C34.0896 38.0101 33.1219 38.4729 32.8492 39.3737C32.5502 40.3479 33.2032 41.3247 33.6569 42.2386C34.5406 44.0192 34.6665 46.2902 33.5258 47.9187C32.5122 49.361 30.746 50.0455 29.0835 50.646C29.8836 51.2755 30.8781 51.6065 31.896 51.5822C31.5144 52.6928 30.1573 53.0612 29.0009 53.2657C29.6079 53.8505 30.4773 54.0629 31.3099 54.1914C31.9169 54.2858 32.5398 54.3475 33.1455 54.2255C33.7513 54.1036 34.3256 53.7745 34.6377 53.2421C34.8999 52.7872 34.9891 52.167 35.4624 51.9375C35.6761 51.8534 35.9062 51.8198 36.135 51.8392L38.1018 51.8601C38.7141 51.8601 39.4392 51.8129 39.7552 51.2898C39.8718 51.0663 39.9329 50.8181 39.9335 50.566C40.0188 49.2758 39.771 47.9122 40.302 46.7347C40.462 46.3794 39.4353 45.8169 39.5428 45.4406C39.9126 44.1464 40.0057 43.1276 40.0017 41.781C40.0017 40.7386 40.6796 39.8405 41.2395 38.9607C41.7994 38.0809 42.2675 36.9703 41.8256 36.0262C41.3273 34.9734 37.5852 33.4432 36.9965 34.9629Z" fill="#3F3D56"/>
<path d="M39.615 82.9733L40.1159 83.3051L40.1932 83.3562L40.2076 83.3654L40.8016 83.7587L42.1889 83.9921L43.4083 83.9082C43.4083 83.9082 43.7597 83.174 43.2076 83.191C43.0308 83.1819 42.8585 83.1321 42.7042 83.0455L42.6281 83.0074C42.5481 82.9655 42.4681 82.9183 42.3895 82.8684C42.2256 82.7649 42.0708 82.6521 41.9463 82.5564C41.7627 82.4148 41.6408 82.3073 41.6408 82.3073L39.615 82.9733Z" fill="#FBBEBE"/>
<path opacity="0.1" d="M40.1224 83.3051L40.1998 83.3562L40.2142 83.3654L40.8082 83.7588L42.1954 83.9922L43.4148 83.9082C43.4148 83.9082 43.7662 83.174 43.2142 83.191C43.0374 83.182 42.8651 83.1321 42.7107 83.0455C42.8077 83.1215 42.889 83.2041 42.8969 83.2736C42.9192 83.4611 41.9948 83.7981 41.9948 83.7981L40.6915 83.4533C40.6915 83.4533 40.4699 83.3903 40.167 83.3116L40.1382 83.3038L40.1224 83.3051Z" fill="black"/>
<path d="M37.8933 83.625C37.8933 83.625 38.9619 83.8584 39.6805 83.7916C40.399 83.7247 41.6368 84.3436 41.6368 84.3436C41.6368 84.3436 42.055 84.5403 43.3413 84.6242C44.6276 84.7081 44.6276 84.0551 44.6276 84.0551C44.4807 83.1674 42.4484 82.8751 42.3854 82.8619C42.4104 82.8751 42.5166 82.9288 42.6241 83.0009C42.7683 83.0953 42.9243 83.2186 42.9361 83.3182C42.9584 83.5044 42.034 83.8427 42.034 83.8427L40.7307 83.4992C40.7307 83.4992 40.5091 83.4349 40.2062 83.3562H40.1774C39.7283 83.2339 39.272 83.1398 38.8111 83.0743C38.25 83.014 37.9628 83.4913 37.9038 83.5988C37.8995 83.6072 37.896 83.616 37.8933 83.625V83.625Z" fill="#3F3D56"/>
<path d="M21.0498 60.0459L21.6175 60.4812C21.6175 60.4812 21.7828 60.4734 22.0293 60.4655H22.1079C22.4606 60.4524 22.9471 60.4393 23.3601 60.4393C23.6271 60.4273 23.8946 60.4422 24.1586 60.4839C24.4419 60.5835 24.9453 58.8632 24.9453 58.8632L24.3763 58.7321L24.1875 58.6875L24.0564 58.6561L23.5935 58.5472L22.1905 58.7072L21.2045 59.3418L21.0498 60.0459Z" fill="#FBBEBE"/>
<path opacity="0.1" d="M21.0498 60.0459L21.6175 60.4813C21.6175 60.4813 21.7828 60.4734 22.0293 60.4655C21.9161 60.4219 21.8229 60.3384 21.767 60.2308C21.3999 59.212 23.2211 58.7767 23.2211 58.7767L24.0695 58.74L24.2347 58.7321H24.3658L24.177 58.6875L24.0459 58.6561L23.583 58.5472L22.1801 58.7072L21.194 59.3418L21.0498 60.0459Z" fill="black"/>
<path d="M19.9301 60.5062C20.2736 60.8235 22.5236 60.5062 22.6181 60.4983C22.4473 60.5175 22.2745 60.5055 22.108 60.4629C22.0256 60.4481 21.9475 60.4152 21.8795 60.3664C21.8114 60.3176 21.7551 60.2543 21.7146 60.181C21.3475 59.1609 23.1688 58.7269 23.1688 58.7269L24.0171 58.6902L24.181 58.6823L26.2435 58.5931L26.3431 58.0254C26.3431 58.0254 25.6731 58.0883 24.6215 58.1722C24.0302 58.2208 23.3104 58.2745 22.5328 58.3256C20.3602 58.4699 19.8436 59.8794 19.8436 59.8794C19.8436 59.8794 19.58 60.181 19.9301 60.5062Z" fill="#3F3D56"/>
<path d="M45.1639 35.8951C45.1779 35.9262 45.1946 35.956 45.2137 35.9842L45.7146 36.7185L47.0179 36.8496L47.0324 36.333L47.2513 28.5603C47.2513 28.5603 48.1534 23.347 46.4489 23.6473C44.7443 23.9475 45.8143 28.5603 45.8143 28.5603C45.8143 28.5603 45.6202 30.8994 45.4839 31.6022C45.3514 32.2814 44.7575 35.0428 45.1639 35.8951Z" fill="#FBBEBE"/>
<path d="M42.2386 55.201L42.6097 55.8357L43.4397 57.2557C43.4397 57.2557 44.9449 57.8077 45.3304 57.3868C45.5415 57.1573 45.7697 56.3562 45.9296 55.6823C46.0608 55.1368 46.1486 54.6766 46.1486 54.6766L42.2386 55.201Z" fill="#FBBEBE"/>
<path opacity="0.1" d="M42.2386 55.201L42.6097 55.8356C42.633 55.8156 42.6541 55.7932 42.6726 55.7688C43.0922 55.2338 44.9397 55.6547 45.9296 55.6888C46.0608 55.1433 46.1486 54.6831 46.1486 54.6831L42.2386 55.201Z" fill="black"/>
<path opacity="0.1" d="M23.3601 60.4367C23.6271 60.4246 23.8946 60.4396 24.1586 60.4812C24.4418 60.5809 24.9453 58.8606 24.9453 58.8606L24.1875 58.6823L26.25 58.5931L26.3496 58.0254C26.3496 58.0254 25.6796 58.0883 24.628 58.1722C24.4107 58.2974 24.2169 58.4593 24.055 58.6508L24.0236 58.6902C23.5843 59.2291 23.4217 59.924 23.3601 60.4367Z" fill="black"/>
<path opacity="0.1" d="M39.615 82.9733L40.1932 83.3562C41.056 83.2002 41.844 82.955 41.9371 82.5695C41.9375 82.5634 41.9375 82.5572 41.9371 82.5511C41.7535 82.4095 41.6316 82.302 41.6316 82.302L39.615 82.9733Z" fill="black"/>
<path opacity="0.1" d="M37.9052 83.6027C38.667 83.5648 39.4262 83.4834 40.1788 83.3588C39.7293 83.2355 39.2725 83.1405 38.8112 83.0743C38.2513 83.014 37.9642 83.4912 37.9052 83.6027Z" fill="black"/>
<path d="M23.4231 61.0988C23.4231 61.5171 24.5756 61.7845 24.5756 61.7845L28.0857 64.9091C28.0857 64.9091 30.2911 65.8951 31.6941 67.3151C33.097 68.7352 34.3348 67.5157 34.3348 67.5157C35.8217 67.1486 40.104 61.9681 40.104 61.9681C40.104 61.9681 40.2037 67.8842 40.4043 68.3182C40.6049 68.7522 40.3374 69.9388 40.2207 70.441C40.1471 70.8598 40.119 71.2854 40.1368 71.7102C40.1368 71.7102 38.5332 77.8427 38.667 78.3776C38.8007 78.9126 37.7977 81.4196 37.7977 81.4196V83.5083C37.7977 83.5083 41.7247 83.3575 41.941 82.4725C42.1574 81.5874 40.9563 81.2019 40.9563 81.2019V80.9843C41.743 80.5831 41.8912 77.8269 41.8912 77.8269C41.8912 77.8269 43.0621 74.4178 43.2286 73.8501C43.3951 73.2824 43.2286 72.4288 43.2286 72.4288L43.3453 71.6945C43.3453 71.6945 43.5957 71.1923 43.5957 71.0927C43.6285 70.8382 43.7265 70.5966 43.8803 70.3912C44.0638 70.1735 43.6797 69.6556 43.6797 69.6556L44.014 68.7863V67.8344L44.8007 64.3755C44.8007 64.3755 45.6202 60.3475 45.3357 59.0271C45.0512 57.7067 45.67 57.0394 45.67 57.0394C44.3287 57.7422 43.6521 56.1779 43.4305 55.5053C43.3741 55.3322 43.3466 55.2168 43.3466 55.2168C43.3466 55.2168 41.5044 54.5376 39.7894 54.7002C39.441 54.7284 39.0978 54.8011 38.7679 54.9165C36.8628 55.6023 36.5625 58.4423 36.5625 58.4423L34.875 61.0162C34.0057 63.3055 32.7024 63.5389 32.7024 63.5389C32.7024 63.5389 29.6447 61.4843 29.5555 61.3833C29.4664 61.2824 28.302 60.7815 28.302 60.7815C28.1644 60.5392 27.9538 60.3464 27.7002 60.2308C27.299 60.0629 27.2662 59.4441 27.2662 59.4441C27.2164 57.99 26.3641 57.8706 26.3641 57.8706C23.4061 57.6241 23.4231 60.6818 23.4231 61.0988Z" fill="#3F3D56"/>
<path d="M40.4344 52.9288H42.2386V47.3313H40.4344V52.9288Z" fill="#F86D70"/>
<path opacity="0.1" d="M40.4344 52.9288H42.2386V47.3313H40.4344V52.9288Z" fill="black"/>
<path opacity="0.1" d="M45.1626 35.8833C45.1623 35.8872 45.1623 35.8912 45.1626 35.8951C45.1765 35.9262 45.1932 35.9561 45.2124 35.9843L45.7133 36.7185L47.0166 36.8496L47.031 36.333C46.6246 36.3016 45.6988 36.1901 45.1626 35.8833Z" fill="black"/>
<path d="M45.2137 35.9843C45.2137 35.9843 45.2806 38.9239 44.545 39.3252C43.8094 39.7264 43.5236 41.8164 43.5236 41.8164C43.5236 41.8164 45.7526 43.2823 46.2495 43.9274C46.7465 44.5725 47.8872 46.1093 47.6525 46.4764C47.4178 46.8435 48.2215 48.5153 48.2215 48.5153C48.2215 48.5153 46.7504 51.5232 47.0847 52.66C47.4191 53.7968 47.4519 56.8033 47.4519 56.8033H48.0878C48.0878 56.8033 47.8872 54.3304 47.8872 53.3274C47.8872 52.3243 48.5546 48.7487 48.5546 48.7487C48.5546 48.7487 48.8562 45.2399 48.5546 45.1403C48.253 45.0406 46.4829 43.6364 46.3492 43.0004C46.2154 42.3645 47.2854 36.4445 47.2854 36.4445C47.2854 36.4445 45.9152 36.3855 45.2137 35.9843Z" fill="#F86D70"/>
<path opacity="0.1" d="M40.4004 46.8121C40.4614 47.2212 40.6104 47.6121 40.837 47.9581L42.0722 47.7483C42.0722 47.7483 45.7815 46.9117 46.5472 46.8436C47.0111 46.7823 47.4635 46.6533 47.8899 46.4607C47.596 45.4193 47.0223 44.4783 46.2312 43.74L45.7605 43.3034C45.0669 42.6594 44.263 42.1455 43.3873 41.7863C43.4423 41.8322 47.334 45.1548 46.4817 45.8064C45.6294 46.4581 43.3348 44.8715 43.3348 44.8715L40.7256 42.6294L40.6312 42.5481L40.4804 42.7828C40.5571 42.8144 40.6319 42.8503 40.7046 42.8903C41.5939 43.3784 42.2538 44.1987 42.5403 45.1718C43.0765 46.9747 40.4004 46.8121 40.4004 46.8121Z" fill="black"/>
<path d="M39.5979 55.1669C39.5979 55.1669 42.0708 56.5372 42.6713 55.7688C42.8024 55.5996 43.0791 55.5262 43.4239 55.5066C43.3676 55.3335 43.34 55.2181 43.34 55.2181C43.34 55.2181 41.4978 54.5389 39.7828 54.7015C39.67 54.9847 39.5979 55.1669 39.5979 55.1669Z" fill="#444053"/>
<path d="M40.736 42.5507L43.4397 44.8768C43.4397 44.8768 45.7251 46.4685 46.5865 45.8116C47.448 45.1547 43.4908 41.7902 43.4908 41.7902C44.3647 42.1505 45.1677 42.6628 45.8628 43.3033L46.3335 43.74C47.5712 44.8873 47.8505 44.8873 47.8925 46.5734C47.903 46.9891 47.7614 47.5857 47.6525 47.6932C47.2513 48.0866 46.9707 50.9436 47.0323 51.278C47.094 51.6123 46.285 54.4983 46.5472 55.3007C46.8094 56.1032 43.2692 54.8995 42.67 55.6692C42.0708 56.4388 39.5979 55.0673 39.5979 55.0673C39.5979 55.0673 40.9681 51.5573 41.3024 51.3239C41.6368 51.0905 42.038 49.285 41.3024 48.4498C40.5669 47.6145 40.5013 46.8121 40.5013 46.8121C40.5013 46.8121 43.1761 46.9773 42.6399 45.1744C42.489 44.6518 42.2272 44.1679 41.8725 43.7557C41.5177 43.3434 41.0782 43.0125 40.5839 42.7854L40.736 42.5507Z" fill="#E8E8F0"/>
<path opacity="0.1" d="M44.3444 48.4668C44.3444 48.4668 43.3073 50.4218 41.9659 50.9292C41.9226 50.9449 41.8807 50.9594 41.8348 50.9725C40.4344 51.3986 44.4493 49.0726 44.3444 48.4668Z" fill="black"/>
<path d="M29.84 31.1709C29.84 31.1709 30.3409 32.4414 30.7421 32.8754C31.1433 33.3094 34.1171 37.6547 34.1171 37.6547L34.3689 38.1792L34.5852 38.6263L36.4904 38.4257L36.6215 37.6573L36.5481 37.5682C36.3566 37.3387 35.8348 36.7225 35.4847 36.4537C35.0507 36.1206 34.1814 35.0179 34.1814 35.0179C34.1814 35.0179 31.4751 32.2094 31.2745 31.441C31.0738 30.6726 28.3662 26.0651 27.7657 26.8623C27.1652 27.6595 29.84 31.1709 29.84 31.1709Z" fill="#FBBEBE"/>
<g opacity="0.1">
<path opacity="0.1" d="M35.368 51.8392C35.1393 51.8194 34.9091 51.8526 34.6954 51.9362C34.2233 52.1657 34.1342 52.7859 33.8719 53.2408C33.5651 53.7732 32.9803 54.1023 32.3785 54.2242C32.2589 54.2474 32.1381 54.2641 32.0166 54.274C32.3999 54.3113 32.7866 54.2946 33.1652 54.2242C33.767 54.1023 34.3518 53.7732 34.6586 53.2408C34.9209 52.7859 35.01 52.1657 35.4821 51.9362C35.606 51.8804 35.7396 51.8492 35.8754 51.8444L35.368 51.8392Z" fill="black"/>
<path opacity="0.1" d="M40.0254 41.7811C40.0254 40.7387 40.7033 39.8405 41.2618 38.9607C41.8204 38.0809 42.2898 36.9703 41.8479 36.0262C41.4703 35.2199 39.1941 34.1381 37.8803 34.3519C39.1665 34.5184 40.7518 35.3654 41.0612 36.0262C41.5031 36.9703 41.0337 38.0809 40.4751 38.9607C39.9165 39.8405 39.236 40.7387 39.2387 41.7811C39.2387 43.1263 39.1482 44.1412 38.7784 45.4406C38.6722 45.8143 39.6963 46.3794 39.5389 46.7334C39.0066 47.9135 39.2557 49.2745 39.1705 50.5647C39.1687 50.8168 39.1071 51.0648 38.9908 51.2885C38.7286 51.7199 38.191 51.8313 37.6678 51.8549H38.1255C38.7365 51.8549 39.4616 51.8077 39.7776 51.2845C39.8938 51.0609 39.9554 50.8128 39.9572 50.5608C40.0424 49.2706 39.7933 47.9082 40.3256 46.7295C40.4856 46.3755 39.4589 45.8116 39.5651 45.4366C39.9349 44.1464 40.028 43.1263 40.0254 41.7811Z" fill="black"/>
</g>
<path opacity="0.1" d="M34.3689 38.1766L34.5852 38.6237L36.4904 38.4231L36.6215 37.6547L36.5481 37.5656C36.3449 37.6652 34.8226 38.3982 34.3689 38.1766Z" fill="black"/>
<path opacity="0.1" d="M41.4034 43.2024C41.4034 43.2024 40.9353 42.4681 40.6678 42.6674C40.4003 42.8667 40.2967 42.0656 40.1433 42.1993C39.9899 42.333 39.5428 42.7054 39.3566 42.1849C39.2111 41.7705 37.6271 39.1495 36.9847 38.0953C36.8194 37.8226 36.7159 37.6547 36.7159 37.6547C36.7159 37.6547 34.9117 38.5568 34.4777 38.2566V38.8912L34.8448 38.9253L36.8116 42.5966C36.8116 42.5966 37.4305 43.5813 37.3885 43.9248C37.3465 44.2684 38.1818 45.7723 38.3155 45.8719C38.4493 45.9716 39.8889 47.6434 39.8889 47.6434C39.8889 47.6434 40.6245 51.2531 39.9886 52.2561C39.3527 53.2592 38.2513 53.9934 38.2513 53.9934C38.2513 53.9934 37.9195 54.9624 37.968 55.0634C38.0166 55.1643 37.5826 55.5983 37.7832 55.7321C37.9838 55.8658 38.2513 56.8007 38.2513 56.8007C38.2513 56.8007 39.1875 55.2968 39.6936 55.0634C40.1997 54.83 40.8474 51.7539 40.8474 51.7539C40.8474 51.7539 41.0323 49.9419 41.0467 48.7723C41.0611 47.6027 41.0021 43.2024 41.4034 43.2024Z" fill="black"/>
<path d="M41.3024 43.2024C41.3024 43.2024 40.8356 42.4681 40.5681 42.6674C40.3007 42.8667 40.1958 42.0656 40.0437 42.1993C39.8916 42.333 39.4444 42.7054 39.2569 42.1849C39.1101 41.7705 37.5262 39.1495 36.885 38.0953L36.6162 37.6547C36.6162 37.6547 34.812 38.5568 34.3767 38.2566V38.8912L34.7452 38.9253L36.7119 42.5966C36.7119 42.5966 37.3321 43.5813 37.2889 43.9248C37.2456 44.2684 38.0756 45.7723 38.2159 45.8719C38.3562 45.9716 39.7893 47.6434 39.7893 47.6434C39.7893 47.6434 40.5249 51.2531 39.8903 52.2561C39.555 52.7599 39.1472 53.2115 38.68 53.5962C38.2876 53.9199 38.0114 54.3627 37.8933 54.8575C37.8706 54.925 37.8625 54.9965 37.8697 55.0673C37.9182 55.167 37.4842 55.6023 37.6848 55.736C37.8854 55.8698 38.1556 56.8086 38.1556 56.8086C38.1556 56.8086 39.0917 55.3046 39.5979 55.0712C40.104 54.8378 40.753 51.7618 40.753 51.7618C40.753 51.7618 40.9366 49.9497 40.9523 48.7802C40.968 47.6106 40.909 43.2024 41.3024 43.2024Z" fill="#F86D70"/>
<path opacity="0.1" d="M36.7238 58.4095C36.7238 58.4095 38.1281 58.6718 38.6906 59.0769C39.2531 59.4821 36.552 58.4423 36.552 58.4423L36.7238 58.4095Z" fill="black"/>
<path opacity="0.1" d="M40.1001 61.9681C40.1001 61.9681 41.5647 63.1888 41.3025 64.2915C41.0402 65.3942 40.3636 68.1687 40.3636 68.1687L40.1001 61.9681Z" fill="black"/>
<path opacity="0.1" d="M27.291 59.6211C27.291 59.6211 25.2272 59.8466 25.361 60.1141C25.4947 60.3816 27.291 59.8676 27.291 59.8676V59.6211Z" fill="black"/>
<path opacity="0.1" d="M43.1381 69.7723C43.1381 69.7723 43.2692 69.9388 42.5035 69.7723C41.7378 69.6058 42.3029 69.0918 42.3029 69.0918L43.1381 69.7723Z" fill="black"/>
<path opacity="0.1" d="M42.8759 72.0786C42.8759 72.0786 41.827 72.2452 41.2645 72.0786C40.702 71.9121 42.8759 72.0786 42.8759 72.0786Z" fill="black"/>
<path opacity="0.1" d="M40.7177 81.1023C40.7177 81.1023 40.5341 80.9016 39.615 81.2688C38.6959 81.6359 38.3287 81.6529 38.0612 81.531C37.7938 81.4091 40.7177 81.1023 40.7177 81.1023Z" fill="black"/>
<path opacity="0.1" d="M41.7378 59.3365L40.4344 61.1499C40.4344 61.1499 41.1359 59.5621 41.7378 59.3365Z" fill="black"/>
<path opacity="0.1" d="M39.2045 42.6674C39.2045 42.6674 39.1482 43.2693 38.3077 43.504C37.4672 43.7387 37.3073 43.9288 37.3073 43.9288" fill="black"/>
<path opacity="0.1" d="M37.0201 38.3051C37.0201 38.3051 35.9108 39.0918 34.7531 38.9252Z" fill="black"/>
<path opacity="0.1" d="M37.8645 55.1499C37.8645 55.1499 38.1884 55.3532 38.9659 54.4642Z" fill="black"/>
<path opacity="0.1" d="M45.9402 45.7238C45.9717 45.5612 45.8589 45.4104 45.7527 45.2832L45.535 45.021C45.4925 44.9673 45.4446 44.9181 45.3921 44.8741C45.261 44.7732 45.0932 44.743 44.9568 44.6525" fill="black"/>
<path opacity="0.1" d="M116.34 0.0144359C116.34 0.0144359 105.302 -0.651647 106.6 7.08437C106.6 7.08437 106.337 8.45194 107.58 9.07213C107.58 9.07213 107.6 8.49914 108.713 8.69451C109.11 8.7602 109.512 8.77956 109.913 8.7522C110.454 8.71481 110.969 8.50217 111.379 8.14643V8.14643C111.379 8.14643 114.483 6.86409 115.689 1.79241C115.689 1.79241 116.582 0.685765 116.546 0.401237L114.683 1.19713C114.683 1.19713 115.32 2.5411 114.814 3.65823C114.814 3.65823 114.754 1.24564 114.396 1.29809C114.324 1.30989 113.428 1.76356 113.428 1.76356C113.428 1.76356 114.523 4.10404 113.697 5.80596C113.697 5.80596 114.01 2.92134 113.086 1.9327L111.775 2.69844C111.775 2.69844 113.055 5.11627 112.187 7.08961C112.187 7.08961 112.41 4.06339 111.498 2.88463L110.31 3.81164C110.31 3.81164 111.513 6.19538 110.78 7.83174C110.78 7.83174 110.684 4.30858 110.053 4.04241C110.053 4.04241 109.014 4.96024 108.855 5.33524C108.855 5.33524 109.678 7.06601 109.167 7.9786C109.167 7.9786 108.854 5.63157 108.597 5.61846C108.597 5.61846 107.561 7.17353 107.453 8.24084C107.453 8.24084 107.498 6.65561 108.346 5.4716C108.346 5.4716 107.344 5.64337 106.76 6.29241C106.76 6.29241 106.921 5.19363 108.602 5.09792C108.602 5.09792 109.458 3.91785 109.686 3.84573C109.686 3.84573 108.016 3.70674 107.002 4.15517C107.002 4.15517 107.894 3.11802 109.993 3.59005L111.167 2.63157C111.167 2.63157 108.966 2.33131 108.033 2.66304C108.033 2.66304 109.107 1.7452 111.483 2.41391L112.76 1.6508C112.76 1.6508 110.883 1.24695 109.766 1.38856C109.766 1.38856 110.946 0.752636 113.135 1.44232L114.052 1.03192C114.052 1.03192 112.678 0.761814 112.276 0.718545C111.873 0.675276 111.852 0.565136 111.852 0.565136C112.723 0.419968 113.617 0.519377 114.434 0.852287C114.434 0.852287 116.375 0.136377 116.34 0.0144359Z" fill="#6C63FF"/>
<path opacity="0.1" d="M102.725 1.98254C102.725 1.98254 97.7426 1.68097 98.3261 5.1766C98.3261 5.1766 98.2094 5.79548 98.768 6.07607C98.768 6.07607 98.7771 5.81384 99.2806 5.90431C99.4595 5.93441 99.6412 5.94321 99.8222 5.93053C100.067 5.9139 100.299 5.81766 100.484 5.65649V5.65649C100.484 5.65649 101.887 5.07826 102.433 2.7863C102.433 2.7863 102.835 2.28543 102.82 2.15693L101.978 2.5162C101.978 2.5162 102.266 3.12459 102.039 3.6294C102.039 3.6294 102.012 2.53849 101.851 2.56471C101.818 2.56471 101.413 2.7745 101.413 2.7745C101.413 2.7745 101.908 3.83263 101.535 4.6023C101.535 4.6023 101.676 3.29898 101.258 2.85186L100.665 3.19802C100.665 3.19802 101.245 4.29023 100.851 5.18184C100.851 5.18184 100.952 3.81427 100.541 3.28193L100.004 3.70545C100.004 3.70545 100.547 4.78324 100.217 5.52144C100.217 5.52144 100.174 3.92966 99.8877 3.81034C99.8877 3.81034 99.4183 4.22468 99.3462 4.39513C99.3462 4.39513 99.7186 5.18184 99.4878 5.58831C99.4878 5.58831 99.3462 4.52756 99.2256 4.52363C99.2256 4.52363 98.7588 5.22642 98.7089 5.7037C98.7323 5.25828 98.8715 4.82666 99.1128 4.45151C98.8427 4.50268 98.5934 4.63165 98.3956 4.82258C98.3956 4.82258 98.469 4.32695 99.2282 4.28237C99.2282 4.28237 99.6215 3.75003 99.7186 3.71725C99.7186 3.71725 98.9633 3.65431 98.5057 3.85754C98.5057 3.85754 98.9083 3.38814 99.8576 3.59531L100.382 3.16261C100.382 3.16261 99.3882 3.03149 98.9659 3.17704C98.9659 3.17704 99.4511 2.7627 100.525 3.06427L101.102 2.71943C101.102 2.71943 100.255 2.53586 99.7487 2.60274C99.7487 2.60274 100.282 2.31427 101.271 2.62634L101.684 2.44146C101.684 2.44146 101.063 2.31821 100.88 2.29985C100.698 2.28149 100.689 2.23036 100.689 2.23036C101.082 2.16488 101.487 2.21028 101.856 2.36148C101.856 2.36148 102.741 2.03761 102.725 1.98254Z" fill="#6C63FF"/>
<path d="M120.13 85.3269C123.042 85.3269 125.402 84.9277 125.402 84.4353C125.402 83.9429 123.042 83.5437 120.13 83.5437C117.218 83.5437 114.858 83.9429 114.858 84.4353C114.858 84.9277 117.218 85.3269 120.13 85.3269Z" fill="#6C63FF"/>
<path d="M122.31 82.9773C122.551 82.7812 122.726 82.5164 122.813 82.2181C122.878 81.9179 122.75 81.5625 122.461 81.4458C122.139 81.3226 121.794 81.5468 121.533 81.7723C121.272 81.9978 120.972 82.2562 120.631 82.2076C120.806 82.048 120.938 81.8457 121.012 81.6204C121.087 81.395 121.102 81.1542 121.056 80.9214C121.041 80.8249 121 80.7343 120.938 80.6591C120.758 80.4677 120.434 80.549 120.219 80.6998C119.537 81.1797 119.347 82.1067 119.343 82.9393C119.275 82.639 119.333 82.3256 119.331 82.0214C119.33 81.7173 119.245 81.3659 118.984 81.2046C118.823 81.118 118.642 81.0755 118.459 81.0813C118.154 81.0695 117.812 81.101 117.603 81.3252C117.341 81.6032 117.41 82.07 117.636 82.3742C117.862 82.6784 118.206 82.8737 118.524 83.0848C118.777 83.2362 118.994 83.4428 119.157 83.6893C119.177 83.7237 119.192 83.7602 119.204 83.7981H121.126C121.556 83.5792 121.955 83.3031 122.31 82.9773V82.9773Z" fill="#6C63FF"/>
</g>
<defs>
<linearGradient id="paint0_linear" x1="106.011" y1="66.2058" x2="106.011" y2="13.4567" gradientUnits="userSpaceOnUse">
<stop stop-color="#808080" stop-opacity="0.25"/>
<stop offset="0.54" stop-color="#808080" stop-opacity="0.12"/>
<stop offset="1" stop-color="#808080" stop-opacity="0.1"/>
</linearGradient>
<linearGradient id="paint1_linear" x1="5225.27" y1="32856.4" x2="11701.4" y2="32856.4" gradientUnits="userSpaceOnUse">
<stop stop-color="#808080" stop-opacity="0.25"/>
<stop offset="0.54" stop-color="#808080" stop-opacity="0.12"/>
<stop offset="1" stop-color="#808080" stop-opacity="0.1"/>
</linearGradient>
<clipPath id="clip0">
<rect width="150" height="85.5577" fill="white"/>
</clipPath>
</defs>
</svg>

